{"glyphs":{"0":{"ha":876,"x_min":52,"x_max":834,"o":"m 157 60 q 80 138 109 91 q 52 239 52 184 q 68 368 52 293 q 109 506 84 442 q 170 629 134 570 q 252 735 206 689 q 483 834 354 834 q 749 707 656 834 q 834 420 834 591 q 705 106 834 218 q 370 -3 579 -3 q 157 60 250 -3 m 132 248 q 392 65 132 65 q 673 161 579 65 q 768 435 768 258 q 768 446 768 441 q 690 685 768 602 q 479 768 613 768 q 452 768 464 768 q 431 768 441 768 q 289 670 359 768 q 175 441 222 581 q 132 248 132 313 z "},"1":{"ha":178,"x_min":38,"x_max":149,"o":"m 38 22 q 40 102 38 47 q 44 227 42 157 q 49 372 46 296 q 54 517 52 448 q 57 640 56 586 q 60 722 58 694 q 71 760 57 751 q 101 768 84 768 q 131 765 118 768 q 149 743 144 762 l 127 46 q 90 12 125 22 q 38 22 54 1 z "},"2":{"ha":795,"x_min":22,"x_max":774,"o":"m 730 227 q 774 193 774 227 q 745 143 774 159 q 677 121 715 127 q 608 113 640 114 q 566 111 575 113 q 527 100 557 109 q 454 79 496 91 q 363 54 412 68 q 119 14 210 14 q 58 28 73 14 q 52 68 42 42 q 263 298 153 157 q 427 627 427 509 q 420 670 427 650 q 343 724 406 712 q 245 700 283 724 q 174 646 208 675 q 106 591 141 616 q 22 567 72 567 q 58 654 23 612 q 258 779 129 741 q 331 793 304 793 q 372 792 358 793 q 463 754 425 787 q 507 654 500 722 q 328 229 507 463 q 232 111 279 165 q 279 110 247 110 q 366 125 311 110 q 484 163 422 141 q 608 206 547 186 q 730 227 669 227 z "},"3":{"ha":707,"x_min":14,"x_max":674,"o":"m 654 688 q 524 496 654 606 q 468 450 491 471 q 667 372 635 448 q 674 335 674 354 q 664 284 674 316 q 621 209 654 252 q 543 125 589 165 q 339 8 446 41 q 280 -3 302 -3 q 244 -2 258 -3 q 216 7 231 -1 q 201 34 201 15 q 380 107 302 60 q 502 206 457 155 q 555 312 555 270 q 529 369 555 354 q 463 384 503 384 q 182 300 359 384 l 134 361 q 545 633 545 551 q 468 680 545 669 q 286 652 388 680 q 127 613 183 625 q 14 601 72 601 q 45 675 14 665 q 165 705 102 689 q 500 758 374 758 q 654 688 625 758 z "},"4":{"ha":945,"x_min":99,"x_max":922,"o":"m 538 -20 q 506 -4 510 -20 l 511 264 l 412 264 l 250 266 l 152 266 q 117 271 134 266 q 99 300 99 277 q 239 486 171 392 q 534 780 454 780 q 624 465 624 780 q 623 378 624 425 l 922 382 q 913 331 922 347 q 898 313 905 315 l 647 293 q 624 174 628 240 q 617 -8 617 65 l 538 -20 m 511 654 q 439 574 481 613 q 355 497 396 536 q 282 419 315 458 q 241 338 250 380 q 283 338 251 338 q 377 345 316 338 q 511 361 438 353 l 511 654 z "},"5":{"ha":983,"x_min":37,"x_max":962,"o":"m 37 392 l 46 486 q 68 675 56 564 l 84 811 q 101 831 90 829 q 133 834 113 834 q 163 824 153 834 q 173 799 172 814 q 170 765 174 784 q 165 728 165 746 q 355 749 260 728 q 543 793 449 769 q 730 838 636 818 q 918 859 823 859 q 943 855 932 859 q 962 833 955 852 q 943 806 956 817 q 897 784 929 795 q 811 762 865 773 q 671 732 757 750 q 463 688 586 713 q 174 624 340 662 l 174 450 q 273 464 217 454 q 430 481 376 481 q 520 480 484 481 q 602 461 556 479 q 713 305 701 423 q 667 161 713 220 q 549 66 620 102 q 240 0 416 0 q 186 8 202 0 q 170 43 170 16 q 191 95 170 71 q 240 119 213 119 l 240 95 q 471 117 400 95 q 583 180 541 140 q 624 279 624 220 q 600 366 624 339 q 540 407 575 393 q 416 429 486 429 q 312 418 347 429 q 243 393 277 407 q 104 359 152 359 l 83 359 q 37 392 37 359 z "},"6":{"ha":871,"x_min":30,"x_max":841,"o":"m 30 382 q 30 420 30 389 q 47 509 30 450 q 97 623 65 567 q 172 730 129 680 q 264 819 214 780 q 481 902 373 902 q 513 895 500 902 q 525 874 525 888 q 525 854 525 860 q 252 686 362 825 q 142 382 142 549 q 169 270 142 328 q 218 184 195 212 q 267 156 240 156 q 317 202 289 174 q 379 264 345 231 q 454 330 414 297 q 540 391 495 363 q 742 453 640 450 q 815 412 788 453 q 841 326 841 373 q 686 71 821 161 q 434 -5 576 -5 q 271 24 346 -5 q 58 228 119 84 q 30 382 30 296 m 751 316 q 708 362 751 362 q 612 330 665 362 q 510 254 560 297 q 355 103 445 199 q 409 99 380 99 q 488 106 438 99 q 600 140 538 113 q 704 211 661 167 q 751 316 747 255 z "},"7":{"ha":854,"x_min":14,"x_max":827,"o":"m 420 0 l 416 79 q 416 94 416 87 q 502 393 416 218 q 572 530 538 465 q 618 648 606 595 q 473 644 545 648 q 149 629 210 629 q 38 632 87 629 q 18 646 23 639 q 14 665 14 652 q 18 684 14 677 q 38 697 23 690 q 111 696 64 696 q 240 705 159 696 q 414 729 321 715 q 600 755 507 743 q 784 768 692 768 q 817 757 806 768 q 827 736 827 746 q 827 722 827 726 q 537 213 591 460 q 526 113 526 160 q 534 22 526 65 l 420 0 z "},"8":{"ha":901,"x_min":30,"x_max":865,"o":"m 706 800 q 727 793 706 800 q 772 760 747 787 q 796 674 798 734 q 728 540 795 614 q 829 483 807 509 q 858 429 850 457 q 865 361 865 401 q 817 200 865 269 q 696 87 769 132 q 535 20 623 42 q 384 -1 448 -1 q 261 7 320 -1 q 151 39 202 16 q 30 202 30 94 q 52 269 30 236 q 98 332 73 302 q 145 389 123 362 q 167 435 167 415 q 159 467 167 454 q 142 492 152 480 q 118 562 118 524 q 140 637 118 600 q 197 705 161 675 q 279 755 233 734 q 373 789 326 776 q 549 814 465 814 q 706 800 665 814 m 140 217 q 232 90 140 126 q 385 65 296 65 q 543 84 475 65 q 662 141 610 103 q 777 363 777 224 q 572 473 745 473 q 335 420 453 473 q 171 297 222 369 q 140 217 144 259 m 685 724 q 540 750 627 750 q 266 656 351 750 q 231 578 236 624 q 256 516 231 537 q 323 495 282 495 q 344 494 330 494 q 391 500 358 494 q 467 518 423 506 q 554 547 510 530 q 635 583 598 564 q 730 663 716 627 q 719 705 730 686 q 685 724 708 724 z "},"9":{"ha":791,"x_min":41,"x_max":715,"o":"m 335 0 q 304 20 317 3 q 292 62 292 38 q 478 199 422 140 q 564 316 534 258 q 600 449 594 374 q 563 450 586 450 q 498 444 540 450 q 410 430 457 438 q 270 412 301 412 q 208 414 239 412 q 136 433 178 416 q 60 486 95 449 q 41 532 41 511 q 178 730 41 632 q 399 831 289 810 q 450 837 426 837 q 495 830 473 837 q 699 644 654 781 q 715 559 715 594 q 712 481 715 524 q 686 368 709 439 q 625 232 663 297 q 538 117 586 167 q 335 0 435 5 m 168 524 q 323 496 231 496 q 594 552 457 496 q 600 593 600 575 q 597 633 600 610 q 578 681 594 655 q 464 745 540 739 q 194 629 264 745 q 168 524 168 586 z "}," ":{"ha":556,"x_min":0,"x_max":0,"o":""},"!":{"ha":187,"x_min":30,"x_max":168,"o":"m 85 91 q 155 80 142 91 q 168 57 168 69 q 103 -8 153 3 q 85 -9 95 -9 q 62 -4 76 -9 q 41 15 47 1 q 85 91 26 49 m 149 1222 q 141 782 141 1187 q 121 316 141 377 l 30 316 q 41 666 30 456 q 60 1217 60 1074 l 149 1222 z "},"\"":{"ha":328,"x_min":73,"x_max":292,"o":"m 198 806 l 199 844 l 198 899 q 247 1035 198 1012 l 270 1013 l 270 743 l 292 697 q 271 684 288 693 q 247 675 254 675 q 198 806 198 675 m 73 793 l 75 833 l 73 890 q 122 1025 73 1002 l 144 1004 l 144 734 l 167 688 q 145 673 161 682 q 122 665 129 665 q 73 793 73 665 z "},"#":{"ha":886,"x_min":76,"x_max":907,"o":"m 117 460 q 174 499 117 499 q 223 493 198 499 q 252 487 248 487 l 252 608 q 191 614 233 608 q 127 625 149 621 q 95 631 104 628 q 76 653 76 642 q 95 675 76 665 q 127 681 104 677 q 174 689 149 685 q 252 697 240 697 l 252 854 q 270 877 252 873 q 298 880 288 880 q 326 877 309 880 q 343 854 343 873 l 343 707 l 479 720 l 479 901 l 547 901 l 591 720 l 830 720 q 731 647 830 647 q 646 654 692 647 q 591 662 601 662 l 591 524 q 749 534 673 524 q 907 545 826 545 l 907 518 q 689 460 907 476 q 627 455 654 457 q 591 450 600 453 q 587 376 589 407 q 575 324 585 345 q 479 285 555 285 l 479 419 q 421 422 449 422 q 370 415 393 422 q 340 392 346 408 q 342 355 334 376 q 355 317 350 335 q 350 285 359 298 q 298 269 340 271 l 288 269 q 275 270 278 269 q 193 431 269 403 q 140 444 163 442 q 117 460 117 445 m 496 641 q 493 645 496 641 q 481 652 490 650 q 461 654 473 654 q 429 652 449 654 q 391 647 410 650 q 343 631 343 640 l 343 487 q 450 496 426 487 q 502 586 502 517 q 496 641 502 632 z "},"$":{"ha":773,"x_min":12,"x_max":753,"o":"m 465 270 l 490 46 l 490 31 q 437 0 490 11 q 365 -5 408 -5 l 346 263 q 250 236 355 236 l 212 237 q 203 259 206 240 q 193 300 197 292 q 321 334 205 324 q 354 338 346 336 l 354 518 l 321 518 q 38 581 111 518 q 15 632 15 601 q 12 671 12 646 q 39 736 12 697 q 115 806 66 774 q 309 879 205 863 l 309 1194 l 376 1194 l 420 924 l 692 924 l 692 867 l 445 833 l 444 574 l 751 574 q 753 534 753 562 q 739 471 753 507 q 697 406 724 434 q 635 360 670 378 q 566 328 600 342 q 506 300 533 313 q 465 270 479 288 m 648 506 q 586 528 635 528 q 513 518 552 528 q 457 500 475 509 l 465 382 q 648 506 648 435 m 216 583 l 274 585 q 309 585 293 585 q 337 585 326 585 q 354 586 349 586 l 331 788 q 321 791 331 789 q 294 793 311 793 q 247 780 278 793 q 187 745 216 766 q 123 640 123 694 q 216 583 123 583 z "},"%":{"ha":720,"x_min":42,"x_max":644,"o":"m 463 77 q 449 87 463 77 q 423 118 435 98 q 411 174 411 138 q 427 237 411 210 q 509 282 454 282 q 575 266 544 282 q 644 170 639 232 q 616 79 644 102 q 533 57 587 57 q 463 77 491 57 m 581 193 q 514 224 551 224 q 464 184 472 224 q 464 166 464 179 q 480 127 464 153 q 529 104 505 107 q 589 144 578 99 q 589 162 589 151 q 581 193 589 174 m 94 591 q 80 602 94 591 q 54 632 66 612 q 42 688 42 652 q 58 751 42 724 q 140 796 85 796 q 206 780 175 796 q 275 684 270 746 q 247 593 275 616 q 164 571 218 571 q 94 591 122 571 m 212 707 q 145 738 182 738 q 95 697 103 738 q 95 680 95 693 q 111 642 95 667 q 159 618 136 621 q 198 627 183 616 q 220 665 220 643 q 212 707 220 688 m 104 4 q 84 41 84 4 l 84 53 q 313 458 84 98 q 504 744 450 674 q 563 814 557 814 q 574 818 570 818 q 579 804 579 818 q 558 742 579 789 q 504 633 537 694 q 431 500 471 571 q 345 356 391 430 q 256 216 300 282 q 104 4 157 65 z "},"&":{"ha":930,"x_min":7,"x_max":925,"o":"m 844 103 q 784 65 844 65 q 682 102 745 65 q 635 127 659 115 q 583 138 612 138 q 491 90 541 117 q 186 -3 317 -3 l 142 0 q 135 0 141 0 q 106 5 129 0 q 16 47 46 20 q 7 66 7 57 q 9 80 7 75 l 256 473 q 182 618 197 576 q 160 774 160 685 q 252 1004 171 913 q 380 1073 316 1073 q 454 1025 429 1073 q 472 941 472 996 q 323 496 472 783 q 450 339 327 442 q 552 264 510 289 q 605 240 594 240 q 711 312 682 283 q 753 358 739 340 q 783 396 766 376 q 880 502 823 449 q 910 489 894 502 q 925 473 926 476 q 913 449 924 469 q 873 393 902 429 q 661 202 800 304 q 844 103 844 111 m 109 84 q 132 60 109 60 q 168 60 136 60 q 248 68 199 61 q 340 91 296 76 q 525 180 418 117 l 300 406 q 224 308 267 373 q 109 84 109 140 m 278 563 q 376 724 340 598 q 403 918 403 821 l 404 954 q 393 985 404 978 q 352 991 381 991 q 297 966 323 991 q 255 905 271 941 q 225 741 225 838 q 278 563 225 643 z "},"'":{"ha":225,"x_min":37,"x_max":174,"o":"m 141 840 q 174 792 174 840 q 127 646 174 736 q 102 600 114 618 l 37 594 l 113 833 q 141 840 129 840 z "},"(":{"ha":414,"x_min":20,"x_max":382,"o":"m 270 46 q 229 19 270 19 q 157 48 187 19 q 104 123 127 77 q 66 223 81 168 q 41 331 50 278 q 20 479 20 431 q 31 592 20 528 q 62 732 42 656 q 112 886 83 808 q 176 1028 141 964 q 338 1172 256 1172 q 364 1169 353 1172 q 382 1149 376 1166 q 214 880 255 968 q 153 713 172 792 q 133 553 133 633 q 155 409 133 472 q 201 286 176 346 q 248 167 227 227 q 270 46 270 107 z "},")":{"ha":488,"x_min":35,"x_max":448,"o":"m 38 1035 l 35 1057 q 52 1097 35 1088 q 95 1105 68 1105 q 296 979 208 1105 q 438 572 401 823 q 448 469 448 506 q 439 386 448 431 q 413 290 430 340 q 372 187 396 239 q 317 94 349 136 q 174 0 250 0 q 159 8 168 0 q 151 22 151 16 q 209 128 174 79 q 277 227 244 178 q 332 330 309 277 q 355 471 355 384 q 330 640 355 559 q 262 788 305 722 q 161 913 218 854 q 38 1035 103 971 z "},"*":{"ha":705,"x_min":53,"x_max":713,"o":"m 111 258 q 216 503 208 433 q 167 564 216 533 q 125 589 146 576 q 53 686 53 631 q 57 716 53 700 q 138 697 107 715 q 195 662 170 680 q 278 624 248 624 q 305 627 292 624 l 416 920 q 492 948 427 948 q 478 825 492 898 q 457 713 464 753 q 450 632 450 674 q 553 648 492 632 q 646 671 614 663 q 713 678 678 678 q 693 611 713 635 q 642 573 673 587 q 575 550 610 559 q 509 528 540 541 q 437 426 437 496 q 453 338 437 385 q 486 216 486 248 q 466 175 486 184 q 416 153 446 165 q 378 195 389 167 q 361 254 368 222 q 343 314 354 286 q 305 355 332 342 q 260 304 281 335 q 215 245 239 274 q 164 197 191 217 q 102 176 137 176 q 87 184 96 176 q 79 198 79 193 q 111 258 91 222 z "},"+":{"ha":728,"x_min":14,"x_max":697,"o":"m 285 654 q 332 680 285 680 q 362 671 355 680 q 373 642 369 662 q 381 595 377 621 q 389 541 385 570 q 395 487 392 513 q 399 452 399 461 l 697 452 q 570 391 697 399 q 502 388 534 389 q 399 382 414 387 q 396 345 396 363 q 399 298 396 327 q 408 228 401 270 q 422 113 422 142 q 420 68 422 84 q 361 46 393 46 q 331 68 335 46 q 326 134 328 96 q 317 212 323 171 q 285 361 304 313 q 198 346 248 361 q 55 315 96 316 q 14 350 14 315 q 149 393 14 387 q 258 407 231 399 q 285 429 285 415 l 285 654 z "},",":{"ha":247,"x_min":-30,"x_max":157,"o":"m 65 117 q 84 137 73 134 q 107 140 95 140 q 130 137 119 140 q 157 114 149 132 q 157 106 157 111 q 152 89 157 102 q 135 55 146 76 q 110 12 123 34 q 83 -31 96 -11 q 63 -62 69 -52 q 47 -83 57 -73 q -14 -115 15 -115 q -30 -113 -22 -115 l 65 117 z "},"-":{"ha":431,"x_min":41,"x_max":406,"o":"m 109 293 q 41 328 41 293 q 56 353 41 346 q 111 365 72 359 q 208 381 149 370 q 332 399 267 392 q 378 389 359 399 q 406 357 406 376 q 399 339 406 350 q 369 320 393 328 l 109 293 z "},".":{"ha":195,"x_min":31,"x_max":146,"o":"m 62 -1 q 31 26 31 1 q 65 81 31 56 q 86 91 79 91 q 98 90 94 91 q 136 78 126 90 q 146 47 146 66 q 138 19 146 28 q 118 5 130 9 q 62 -1 98 -1 z "},"/":{"ha":632,"x_min":28,"x_max":601,"o":"m 53 0 q 28 43 28 0 l 28 57 q 564 890 49 117 q 594 935 590 929 q 601 916 601 930 q 585 853 601 901 q 526 716 568 806 q 422 520 483 627 q 297 312 362 414 q 53 0 146 79 z "},":":{"ha":232,"x_min":42,"x_max":212,"o":"m 104 171 q 123 210 104 191 q 164 229 141 229 q 199 214 187 229 q 212 182 212 199 q 199 151 212 165 q 175 137 186 137 q 155 137 164 137 q 125 144 146 137 q 104 171 104 151 m 61 431 q 42 452 42 437 q 62 486 42 472 q 95 500 83 499 q 149 479 137 495 q 160 454 160 464 q 125 418 160 426 q 105 415 119 415 q 61 431 91 415 z "},";":{"ha":172,"x_min":-30,"x_max":130,"o":"m 92 159 q 130 115 130 159 q 125 22 130 72 q 104 -76 121 -27 q -30 -225 66 -186 q 92 159 83 159 m 43 420 q 37 444 35 426 q 53 475 38 463 q 85 487 68 487 q 115 475 102 487 q 130 445 129 463 q 106 404 132 404 q 43 420 64 404 z "},"<":{"ha":661,"x_min":114,"x_max":585,"o":"m 114 311 q 216 391 157 345 q 334 483 274 437 q 544 633 480 598 q 570 604 562 633 q 574 579 574 591 q 568 559 574 567 l 250 316 q 308 288 270 305 q 392 248 346 271 q 585 140 502 194 q 579 129 583 138 q 570 109 575 119 q 555 80 557 80 q 438 132 514 106 q 316 177 362 159 q 231 214 270 195 q 114 311 138 260 z "},"=":{"ha":684,"x_min":87,"x_max":623,"o":"m 127 189 q 95 236 95 189 q 104 249 95 240 q 118 258 113 258 q 311 285 222 275 q 576 324 480 305 q 623 275 623 324 q 621 256 623 266 q 485 245 544 256 q 372 222 426 235 q 127 189 229 189 m 155 366 l 130 365 q 87 389 90 365 l 114 438 q 225 454 118 442 q 492 486 448 477 q 544 494 536 494 q 562 488 552 494 q 572 468 572 481 q 549 419 572 434 l 155 366 z "},">":{"ha":655,"x_min":68,"x_max":578,"o":"m 160 65 q 92 114 99 88 q 92 123 92 119 q 189 222 92 165 q 374 338 331 305 q 426 403 418 372 l 68 537 l 136 604 q 258 537 202 556 q 367 507 315 518 q 471 479 419 495 q 578 422 522 464 q 489 337 543 380 q 376 250 435 294 q 260 159 317 205 q 160 65 202 113 z "},"?":{"ha":703,"x_min":14,"x_max":675,"o":"m 377 -3 q 328 45 328 -3 q 377 92 328 92 q 398 95 387 95 q 422 81 410 95 q 434 45 434 66 q 422 9 434 23 q 398 -5 410 -5 q 377 -3 387 -5 m 380 370 q 167 438 167 370 q 172 463 167 449 q 410 598 354 563 q 586 781 586 709 q 444 879 586 845 q 297 863 385 879 q 163 840 209 848 q 71 833 117 833 q 37 853 56 833 q 14 894 19 873 q 340 949 184 949 q 528 922 453 949 q 675 772 675 871 q 524 570 675 681 q 309 450 442 510 l 465 406 l 465 374 q 380 370 433 370 z "},"@":{"ha":1449,"x_min":37,"x_max":1413,"o":"m 803 464 q 553 340 658 340 q 477 369 505 340 q 446 439 446 400 q 465 517 446 477 q 637 654 506 608 q 792 675 703 675 q 806 676 798 675 q 831 677 814 677 q 865 668 848 677 q 892 642 882 659 q 908 602 903 624 q 922 562 913 581 q 989 517 943 517 q 1099 595 1099 517 q 964 781 1086 704 q 724 861 854 852 q 506 820 610 861 q 322 705 401 779 q 195 529 243 631 q 148 307 148 427 q 347 117 191 178 q 586 65 435 83 q 804 87 700 75 q 1001 129 907 100 q 1344 338 1203 190 q 1364 342 1354 342 q 1392 334 1374 342 q 1413 305 1411 327 q 1210 111 1411 195 q 819 11 1050 43 q 637 -7 700 -7 q 557 -1 574 -7 q 231 49 370 -1 q 62 175 114 90 q 37 281 37 220 q 92 530 37 412 q 238 735 146 647 q 448 874 330 823 q 696 925 567 925 q 1012 846 880 925 q 1123 739 1080 804 q 1166 594 1166 673 q 1126 477 1166 515 q 964 418 1063 418 q 803 464 865 418 m 779 570 q 732 597 773 597 q 637 574 686 597 q 521 480 547 530 q 513 454 513 465 q 518 431 513 442 q 541 420 526 420 q 579 423 556 420 q 646 445 602 426 q 779 570 751 494 z "},"A":{"ha":890,"x_min":35,"x_max":865,"o":"m 745 496 l 783 496 q 827 492 806 496 q 848 463 848 488 q 784 410 857 408 q 747 412 764 411 q 719 413 730 414 q 709 406 708 412 q 739 317 723 366 q 773 220 754 269 q 865 46 822 99 q 812 -1 842 18 q 779 -20 781 -20 q 776 -19 777 -20 l 585 384 l 214 293 l 201 236 q 113 19 161 80 q 79 16 104 5 q 35 43 35 33 q 64 122 35 46 q 121 276 92 198 q 182 439 151 354 q 243 602 214 525 q 294 741 271 680 q 327 831 317 803 q 340 880 336 859 q 350 916 343 901 q 418 947 363 947 q 508 862 476 914 q 562 750 540 810 q 606 629 585 690 q 665 518 628 568 q 701 498 677 499 q 745 496 726 496 m 406 789 q 357 620 395 707 q 296 485 319 533 q 256 396 273 437 q 483 450 349 396 q 548 477 517 465 q 406 789 484 750 z "},"B":{"ha":987,"x_min":41,"x_max":960,"o":"m 88 901 q 278 922 189 922 q 437 916 368 922 q 578 890 507 909 q 762 776 727 848 q 772 741 772 761 q 667 612 772 681 q 469 518 598 566 q 898 426 785 500 q 960 334 960 387 q 857 182 960 260 q 570 42 745 98 q 270 -9 408 -9 q 88 22 164 -9 q 81 201 85 109 q 71 546 71 406 q 80 838 71 686 q 53 842 65 838 q 41 868 41 845 q 88 901 41 901 m 210 90 q 568 142 429 102 q 770 229 708 182 q 831 319 831 275 q 750 410 831 376 q 516 445 662 445 q 178 406 370 445 l 210 90 m 336 834 l 302 834 q 178 811 191 834 l 164 538 q 461 597 286 538 q 628 684 575 636 q 655 734 655 708 q 635 777 655 760 q 585 804 616 793 q 517 821 555 815 q 445 830 480 827 q 336 834 391 834 z "},"C":{"ha":983,"x_min":30,"x_max":955,"o":"m 708 753 q 513 840 620 840 q 317 762 411 840 q 155 510 199 665 q 138 418 138 454 q 141 361 138 381 q 232 155 141 227 q 450 88 317 88 q 799 228 632 103 q 897 296 845 263 q 935 290 916 296 q 955 259 955 285 q 728 91 821 142 q 419 -1 557 -1 q 401 -1 410 -1 q 144 92 251 -1 q 30 339 30 191 q 70 552 30 450 q 180 732 110 654 q 345 856 250 810 q 551 902 441 902 q 673 876 644 902 q 708 753 708 845 z "},"D":{"ha":901,"x_min":52,"x_max":867,"o":"m 142 833 q 408 868 243 868 q 822 719 711 868 q 865 574 865 662 q 867 549 867 562 q 708 274 867 414 q 350 62 563 142 q 117 8 209 8 q 52 19 79 8 l 52 865 l 71 865 q 121 855 102 865 q 142 833 140 845 m 774 563 q 640 742 762 684 q 412 785 549 785 l 388 784 q 165 743 259 781 l 165 96 q 403 165 260 96 q 742 449 650 288 q 774 563 774 506 z "},"E":{"ha":822,"x_min":41,"x_max":795,"o":"m 479 861 q 659 844 614 861 l 659 777 q 559 771 623 772 q 423 769 495 770 q 149 749 222 765 q 127 601 126 640 q 130 540 129 562 q 136 415 136 487 q 347 431 228 415 q 530 455 465 448 q 665 463 595 463 l 665 388 l 145 323 l 153 100 q 428 113 288 100 q 641 132 568 126 q 795 138 713 138 q 779 87 795 111 q 720 61 746 43 q 294 20 481 35 q 41 0 106 5 l 46 865 q 176 854 81 854 l 479 861 z "},"F":{"ha":962,"x_min":52,"x_max":948,"o":"m 127 225 q 52 260 52 236 q 77 301 52 278 q 129 349 103 324 q 104 531 129 430 q 69 688 80 632 q 58 789 58 743 q 73 848 58 836 q 114 860 87 860 q 149 852 141 860 q 160 834 157 845 q 163 811 163 823 q 168 788 164 799 q 210 762 175 762 q 392 778 301 764 q 572 807 483 792 q 824 837 751 837 q 939 833 897 837 q 944 788 940 807 q 948 757 948 769 q 903 741 948 734 q 194 635 194 715 q 206 484 194 547 q 224 404 218 420 q 239 388 231 388 q 395 401 316 388 q 554 431 475 415 q 713 460 633 446 q 871 473 793 473 q 872 463 872 473 q 871 441 872 453 q 871 408 867 408 q 659 355 812 376 q 524 338 593 346 q 396 320 454 330 q 240 270 262 301 l 225 4 q 191 -11 210 -11 l 141 -7 q 127 -7 134 -7 l 127 225 z "},"G":{"ha":962,"x_min":30,"x_max":930,"o":"m 673 -66 l 673 182 q 494 65 544 94 q 289 1 377 1 q 107 79 183 1 q 30 262 30 159 q 76 481 37 370 q 346 827 157 718 q 562 883 439 883 q 567 883 564 883 l 604 884 q 661 836 666 884 q 457 785 552 830 q 292 665 362 741 q 182 490 222 590 q 142 285 142 389 q 197 134 142 180 q 336 88 251 88 q 540 152 410 88 q 663 244 623 193 q 684 296 684 269 l 684 496 q 494 465 643 496 q 323 430 346 434 q 307 439 316 434 q 296 453 297 444 q 355 515 293 473 q 534 547 370 524 q 743 578 699 571 q 818 589 788 585 q 852 589 831 586 q 890 591 872 593 q 930 544 933 590 l 818 498 q 792 186 792 415 l 795 -16 q 795 -66 795 -43 q 716 -87 754 -87 q 673 -66 678 -87 z "},"H":{"ha":841,"x_min":28,"x_max":795,"o":"m 210 382 q 206 252 206 336 q 232 46 206 167 l 125 -8 l 76 361 q 28 393 28 368 q 51 438 28 412 q 84 481 73 464 q 97 519 95 498 q 103 594 99 540 q 111 709 107 648 q 117 825 114 770 q 121 901 121 879 q 164 937 151 930 q 210 924 198 955 l 202 496 q 605 540 537 496 l 605 968 q 681 991 613 991 q 705 990 696 991 q 707 912 705 964 q 711 793 709 860 q 716 653 713 727 q 722 513 719 579 q 728 309 726 374 q 795 46 738 146 q 661 22 734 22 q 594 427 598 176 q 472 430 505 430 q 399 426 439 430 q 210 382 315 420 z "},"I":{"ha":210,"x_min":35,"x_max":142,"o":"m 142 22 q 110 -1 142 -1 q 52 22 85 -1 q 35 197 35 58 q 38 425 35 335 q 43 591 41 515 q 52 766 52 757 q 117 789 91 789 q 142 766 142 789 l 142 22 z "},"J":{"ha":735,"x_min":12,"x_max":703,"o":"m 582 444 l 578 700 q 581 808 578 761 q 601 854 585 854 l 692 854 q 696 770 692 833 q 701 645 700 708 q 703 537 703 582 q 701 421 703 492 q 688 264 700 350 q 579 22 659 68 q 385 5 518 -12 q 149 84 251 24 q 12 247 30 153 q 33 301 12 278 q 99 345 69 345 q 141 217 100 267 q 446 103 236 103 q 515 107 481 103 q 582 444 582 142 z "},"K":{"ha":841,"x_min":58,"x_max":826,"o":"m 58 20 q 62 37 58 26 q 68 92 65 47 q 74 200 72 137 q 78 338 76 263 q 82 492 80 414 q 87 646 84 571 q 95 784 90 722 q 127 945 107 920 q 201 977 138 977 q 220 977 201 977 q 208 760 220 925 q 195 563 197 594 q 366 660 283 608 q 519 756 448 712 q 648 829 590 800 q 735 859 707 859 q 783 822 783 859 q 739 759 783 793 q 631 687 696 724 q 489 612 566 650 q 347 538 412 574 q 239 471 282 502 q 195 416 195 439 q 276 376 220 401 q 402 319 332 351 q 547 252 472 288 q 685 179 623 216 q 826 46 826 99 q 803 22 826 28 q 784 19 793 19 l 770 19 q 648 50 705 19 q 527 125 591 81 q 381 215 463 168 q 184 293 300 262 l 184 22 q 160 9 182 16 q 94 0 129 0 q 58 20 58 0 z "},"L":{"ha":962,"x_min":75,"x_max":939,"o":"m 109 593 l 106 930 l 214 926 l 202 132 l 917 111 q 939 88 939 104 q 918 54 939 72 q 829 19 879 19 q 803 22 817 19 l 75 28 q 109 593 109 155 z "},"M":{"ha":1149,"x_min":38,"x_max":1101,"o":"m 167 227 l 172 127 q 172 98 172 119 q 155 59 171 76 q 117 42 140 42 q 83 43 95 42 q 38 83 38 43 q 68 345 38 115 q 106 642 98 575 q 120 753 114 708 q 129 821 126 799 q 137 864 132 842 q 153 899 142 886 q 232 925 174 925 q 433 648 330 876 q 530 442 506 486 q 578 382 555 399 l 849 854 q 892 875 878 875 q 959 836 936 875 q 998 740 982 796 q 1025 616 1013 684 q 1045 474 1036 548 q 1062 330 1054 400 q 1091 117 1081 160 q 1101 55 1101 73 q 1089 20 1101 37 q 1055 3 1077 3 q 1012 20 1034 3 q 985 62 990 37 q 976 127 981 87 q 964 219 971 168 q 951 326 958 270 q 937 434 944 382 q 925 526 930 486 q 917 586 920 566 q 916 636 917 613 q 905 665 914 659 q 876 652 895 670 q 821 578 856 633 q 601 180 745 460 q 551 165 582 146 q 488 270 514 186 l 239 800 q 179 369 206 735 q 174 293 175 324 q 167 227 167 259 z "},"N":{"ha":871,"x_min":34,"x_max":825,"o":"m 825 479 q 791 -4 825 66 l 692 4 q 441 366 617 133 q 303 549 372 458 q 178 730 235 640 q 151 247 151 609 q 145 14 151 109 q 89 -11 119 -11 q 46 -5 58 -11 q 34 16 34 1 q 37 60 34 30 q 45 163 41 91 q 54 315 50 235 q 65 675 65 524 q 62 924 65 826 q 109 963 92 951 q 145 962 125 975 q 197 907 165 949 q 288 780 229 864 q 680 248 487 496 l 705 924 q 735 961 720 951 q 774 971 750 971 q 822 884 822 971 l 821 834 l 825 479 z "},"O":{"ha":930,"x_min":30,"x_max":887,"o":"m 62 228 q 30 400 30 301 q 62 576 30 499 q 149 708 94 652 q 445 823 267 823 q 751 738 631 823 q 887 458 887 640 q 783 126 887 233 q 460 19 680 19 q 62 228 155 19 m 141 427 q 464 107 141 107 q 722 202 623 107 q 821 448 821 296 q 703 665 821 590 q 449 730 602 730 q 233 642 327 730 q 141 427 141 553 z "},"P":{"ha":886,"x_min":52,"x_max":864,"o":"m 113 -3 l 52 0 l 52 316 q 62 496 58 418 q 77 632 66 575 q 113 728 88 689 q 186 789 137 766 q 510 833 274 833 q 682 813 612 833 q 787 776 753 793 q 864 670 864 738 q 825 547 864 602 q 725 452 787 492 q 586 387 663 412 q 431 345 509 361 q 165 317 293 317 l 160 14 q 113 -3 160 -3 m 164 471 q 222 403 164 403 q 251 404 231 403 q 322 408 271 404 q 430 421 373 411 q 545 448 487 431 q 648 488 602 464 q 753 633 753 545 q 591 746 732 722 q 516 754 549 754 q 437 751 483 754 q 332 730 392 747 q 232 682 273 712 q 187 613 191 652 q 180 575 186 597 q 164 471 164 506 z "},"Q":{"ha":990,"x_min":37,"x_max":940,"o":"m 37 331 q 66 516 37 418 q 155 690 96 614 q 298 812 213 766 q 495 859 384 859 q 528 860 511 860 q 804 754 704 860 q 895 500 895 658 q 803 214 895 346 q 802 193 802 208 q 821 164 802 179 q 870 137 841 149 q 920 111 899 125 q 940 86 940 98 q 939 68 940 75 q 898 51 924 57 q 863 47 872 45 q 840 59 854 49 q 811 81 825 69 q 747 114 774 110 q 589 30 696 65 q 146 88 317 -56 q 37 331 37 182 m 452 88 q 567 95 533 88 q 669 157 640 110 l 420 382 q 419 387 419 384 l 419 393 q 438 424 419 418 q 485 430 457 430 q 546 408 513 430 q 610 357 579 387 q 672 297 642 328 q 735 247 703 266 q 806 477 804 353 q 807 563 807 515 q 784 651 800 612 q 620 760 751 734 q 499 773 556 773 q 431 773 442 773 q 277 694 347 773 q 182 518 221 631 q 148 350 148 427 q 228 149 148 209 q 452 88 308 88 z "},"R":{"ha":990,"x_min":62,"x_max":926,"o":"m 160 806 q 430 878 235 878 q 635 853 552 878 q 759 802 718 829 q 800 742 800 774 q 627 594 800 667 q 492 545 601 582 q 345 494 382 507 q 235 445 262 463 q 240 433 235 438 q 266 417 245 429 q 327 385 286 406 q 439 324 368 363 q 880 75 654 208 q 909 52 891 66 q 926 21 926 38 q 916 -3 926 4 q 890 -13 905 -9 q 859 -16 875 -16 l 831 -16 q 718 42 804 -16 q 569 144 632 100 q 441 228 506 187 q 198 357 288 327 l 198 46 q 152 19 198 19 l 137 19 q 95 47 109 19 q 76 208 76 91 l 80 480 q 62 833 80 681 q 142 829 95 888 q 160 806 153 815 m 618 789 l 530 791 q 178 720 224 791 q 164 672 164 701 q 167 621 164 643 q 198 541 174 566 q 212 540 202 540 q 250 545 222 540 q 325 565 278 551 q 425 600 372 579 q 526 642 477 620 q 680 754 680 711 q 618 789 680 779 z "},"S":{"ha":892,"x_min":20,"x_max":846,"o":"m 20 119 q 20 131 20 119 q 41 163 20 144 q 74 191 62 183 q 90 202 85 198 q 256 79 96 79 q 551 157 382 79 q 711 269 670 212 q 724 298 724 286 q 720 316 724 309 l 157 442 q 110 465 133 448 q 68 519 68 495 q 201 689 68 613 q 593 814 347 772 q 675 825 648 823 q 701 820 684 822 q 735 814 718 818 q 770 779 777 804 q 594 705 770 732 q 310 648 366 671 q 229 601 254 625 q 202 543 203 576 q 233 528 202 536 q 308 508 264 519 q 420 477 351 496 q 833 361 589 431 q 846 305 846 331 q 762 167 846 233 q 499 41 667 92 q 277 -1 359 -1 q 145 23 208 -1 q 52 71 83 47 q 20 119 20 94 z "},"T":{"ha":865,"x_min":0,"x_max":865,"o":"m 665 666 l 544 669 q 434 659 496 669 q 423 522 431 606 q 395 135 395 224 q 397 9 395 46 l 270 0 l 312 670 l 23 686 q 6 704 12 686 q 0 736 0 722 q 12 769 0 751 q 41 787 24 787 q 240 773 140 783 q 556 757 426 757 l 640 760 q 837 781 739 762 q 864 713 859 777 q 865 692 865 700 q 665 666 776 666 z "},"U":{"ha":780,"x_min":27,"x_max":724,"o":"m 713 22 q 671 -3 713 -3 q 634 3 651 -3 q 613 14 617 9 l 627 187 q 445 53 502 80 q 262 8 355 8 q 225 9 244 8 q 27 263 27 31 q 81 623 27 369 q 104 766 99 701 q 122 768 109 768 q 138 768 122 768 q 151 769 145 769 q 194 704 194 769 q 176 593 194 659 q 122 290 122 374 q 168 152 122 202 q 262 113 198 119 q 278 113 270 113 q 568 326 499 113 q 616 627 609 450 q 623 788 620 708 q 663 829 637 829 q 720 806 689 829 q 724 651 724 727 l 711 133 q 713 22 711 77 z "},"V":{"ha":871,"x_min":15,"x_max":849,"o":"m 354 22 q 218 313 317 119 q 87 570 119 506 q 15 743 15 718 q 84 788 15 761 q 173 612 132 700 q 255 448 214 525 q 412 187 351 259 q 510 372 434 209 l 621 606 q 736 854 711 796 q 817 911 784 911 q 849 854 849 911 l 464 9 q 405 -5 441 -5 q 354 22 369 -5 z "},"W":{"ha":1306,"x_min":19,"x_max":1284,"o":"m 1035 225 q 1192 1028 1103 445 q 1282 975 1278 1028 q 1284 952 1283 959 q 1279 905 1284 945 q 1263 793 1274 865 q 1238 627 1253 722 q 1204 429 1223 532 q 1109 19 1158 186 q 1034 8 1061 -15 q 1012 41 1021 20 q 990 90 1002 62 q 925 212 972 113 q 848 369 878 311 q 792 477 819 427 q 688 609 730 590 q 514 193 639 533 q 475 82 492 133 q 445 0 457 31 l 361 4 l 22 788 q 19 802 19 795 q 24 815 19 808 q 41 827 28 822 q 87 836 64 836 q 120 827 110 836 q 136 804 130 818 q 146 774 142 791 q 162 732 151 758 q 196 656 174 707 q 244 551 218 606 q 296 440 270 495 q 345 339 321 385 q 406 225 393 237 q 600 686 563 613 q 646 774 636 758 q 669 798 661 798 q 865 537 727 798 q 936 404 903 468 q 1035 225 1016 250 z "},"X":{"ha":833,"x_min":37,"x_max":802,"o":"m 404 305 q 338 228 369 277 q 276 133 308 179 q 209 53 244 87 q 132 19 174 19 q 75 31 91 19 q 58 60 58 42 q 60 90 58 79 l 317 395 q 199 543 247 481 q 119 643 151 604 q 71 705 88 682 q 47 737 54 727 q 37 753 39 747 q 73 791 37 780 q 127 788 104 800 l 388 473 l 712 856 l 791 792 l 465 406 q 570 299 511 343 q 681 216 629 255 q 767 138 732 178 q 802 46 802 99 q 773 4 798 15 q 754 1 768 1 q 713 22 741 1 l 404 305 z "},"Y":{"ha":742,"x_min":38,"x_max":719,"o":"m 377 -24 q 331 -11 355 -24 q 293 39 283 18 q 335 153 309 68 l 372 275 q 410 404 391 334 l 47 773 q 38 795 38 785 q 49 810 38 804 q 92 818 66 818 q 143 810 117 818 q 209 769 170 802 q 463 494 286 704 q 578 794 543 727 q 634 881 613 861 q 672 902 655 901 q 701 901 689 903 q 719 882 713 898 q 638 679 677 792 q 559 445 600 566 q 377 -24 452 125 z "},"Z":{"ha":1089,"x_min":38,"x_max":1044,"o":"m 1044 22 q 429 -4 709 -4 q 38 46 38 -4 q 52 68 38 57 l 637 722 q 549 724 583 724 q 471 724 514 724 q 359 718 427 723 q 84 697 160 701 q 59 709 64 697 q 52 766 54 722 q 742 812 354 799 q 779 807 761 812 q 796 779 796 802 q 534 434 758 673 q 229 99 271 155 q 404 84 304 84 q 608 90 505 84 q 822 106 711 96 q 1034 122 933 115 l 1044 22 z "},"[":{"ha":590,"x_min":42,"x_max":551,"o":"m 42 1057 q 140 1076 87 1063 q 250 1100 194 1088 q 453 1131 389 1131 q 456 1095 453 1114 q 445 1067 460 1076 q 374 1052 420 1061 q 279 1031 328 1043 q 126 979 160 1004 q 125 873 125 936 q 133 712 125 811 q 155 494 141 613 q 180 255 168 374 q 193 9 193 136 l 538 57 q 542 35 538 50 q 548 3 545 20 q 551 -27 551 -14 q 544 -42 551 -41 l 88 -114 l 42 1057 z "},"\\":{"ha":697,"x_min":0,"x_max":670,"o":"m 600 -3 q 38 732 271 366 q 0 796 0 793 q 14 777 0 798 q 33 808 14 803 q 73 814 53 814 q 221 636 152 736 q 360 431 290 536 q 505 229 430 327 q 670 57 581 130 q 647 14 670 30 q 600 -3 624 -3 z "},"]":{"ha":751,"x_min":0,"x_max":623,"o":"m 568 892 q 623 -94 568 472 q 571 -98 610 -95 q 479 -106 532 -102 q 368 -115 427 -111 q 255 -123 308 -119 q 113 -132 151 -132 q 109 -57 109 -132 q 239 -53 176 -53 l 266 -54 q 469 11 414 -54 q 502 139 502 47 q 497 344 502 231 q 483 572 492 457 q 435 1016 465 807 q 395 1017 420 1017 q 328 1009 369 1017 q 239 989 286 1001 q 42 955 107 955 q 27 962 38 955 q 0 1002 0 981 q 12 1039 0 1024 q 183 1066 12 1042 q 402 1097 354 1090 q 486 1108 450 1103 l 526 1111 q 574 1085 567 1109 q 568 892 568 996 z "},"^":{"ha":426,"x_min":24,"x_max":407,"o":"m 80 692 q 40 699 56 692 q 24 731 24 705 q 39 781 24 757 q 79 833 53 806 q 220 932 136 892 q 312 868 289 887 q 399 758 350 834 q 407 728 407 742 q 401 705 407 713 q 353 704 387 684 q 294 749 302 741 q 269 774 285 757 q 210 833 252 792 q 98 727 127 776 q 80 692 88 711 z "},"_":{"ha":954,"x_min":43,"x_max":901,"o":"m 45 0 l 43 24 l 43 52 q 427 115 164 100 q 848 159 724 132 q 884 153 867 159 q 901 127 901 148 q 878 68 901 99 q 45 0 415 56 z "},"`":{"ha":239,"x_min":64,"x_max":205,"o":"m 64 798 q 84 836 64 836 q 114 817 96 836 l 205 728 l 182 670 q 76 758 92 731 q 67 780 71 769 q 64 798 64 791 z "},"a":{"ha":707,"x_min":24,"x_max":680,"o":"m 570 225 q 298 27 468 65 q 227 19 259 19 q 174 20 195 19 q 127 26 153 20 q 80 43 102 31 q 30 123 30 72 q 24 178 24 148 q 38 259 24 209 q 87 368 52 309 q 175 475 123 426 q 407 608 282 578 q 474 616 444 616 q 529 612 505 616 q 635 505 608 612 q 656 315 652 437 q 663 128 659 194 q 680 8 666 62 l 600 8 q 591 73 594 45 q 586 126 589 102 q 570 225 579 183 m 564 435 q 487 514 564 514 q 468 515 477 515 q 259 420 369 515 q 171 323 208 377 q 117 184 117 245 q 209 90 117 104 q 442 201 331 92 q 521 304 490 248 q 564 435 564 378 z "},"b":{"ha":780,"x_min":41,"x_max":753,"o":"m 45 787 l 41 962 q 56 996 41 983 q 92 1008 71 1008 q 132 996 114 1008 q 145 964 149 985 l 155 378 q 385 570 240 492 q 597 635 506 635 q 720 583 677 635 q 753 475 753 543 q 728 359 753 408 q 662 264 703 309 q 568 179 621 218 q 461 109 515 140 q 258 9 358 49 q 231 11 250 12 q 184 9 212 9 q 56 27 111 9 q 42 419 42 156 l 45 787 m 159 121 q 186 106 159 106 q 255 117 214 106 q 353 154 296 127 q 469 222 411 180 q 674 449 605 319 q 568 526 656 526 q 388 467 488 526 q 184 255 245 381 q 159 153 159 205 q 159 132 159 140 q 159 121 159 123 z "},"c":{"ha":879,"x_min":30,"x_max":842,"o":"m 585 143 q 613 154 585 143 q 693 184 640 165 q 794 203 746 203 q 842 174 842 203 q 839 153 842 167 q 802 119 836 138 q 721 81 769 99 q 616 49 673 64 q 505 23 559 34 q 345 0 392 0 q 242 11 297 0 q 140 46 187 22 q 30 214 30 103 q 30 247 30 222 q 50 317 30 271 q 111 408 71 362 q 206 491 152 453 q 445 597 320 572 q 517 606 488 606 q 566 606 547 606 q 605 603 585 605 q 640 593 625 601 q 675 524 675 575 q 629 460 675 491 q 608 445 617 452 q 590 498 601 476 q 543 519 579 519 q 267 418 382 486 q 137 255 137 340 q 138 235 137 245 q 205 111 138 148 q 334 84 255 84 q 472 102 414 84 q 585 143 530 121 z "},"d":{"ha":712,"x_min":12,"x_max":678,"o":"m 678 1089 q 671 835 678 959 q 657 592 663 711 q 651 340 651 473 q 670 57 651 206 q 659 12 670 26 q 620 -1 647 -1 q 556 104 556 -1 l 556 149 q 231 5 363 5 q 123 31 178 5 q 19 136 68 57 q 12 202 12 168 q 25 284 12 236 q 78 384 38 332 q 175 475 118 435 q 445 559 300 559 q 564 540 507 559 q 568 625 564 564 q 575 754 571 686 q 586 962 583 930 q 593 1017 589 994 q 608 1055 598 1039 q 678 1089 628 1089 m 111 213 q 189 106 111 106 q 216 109 201 106 q 353 141 271 109 q 541 247 507 202 l 541 427 q 464 475 541 475 q 439 476 454 476 q 391 469 423 476 q 317 445 358 463 q 237 401 277 427 q 123 271 155 346 q 111 213 111 243 z "},"e":{"ha":751,"x_min":27,"x_max":707,"o":"m 313 95 q 673 203 433 95 q 697 193 688 203 q 707 170 707 183 q 499 26 652 77 q 213 8 346 -26 q 30 178 62 47 q 27 247 27 203 q 50 361 27 290 q 126 496 72 433 q 254 597 180 560 q 410 633 327 633 q 586 579 488 633 q 659 521 632 553 q 686 454 686 488 q 685 435 686 445 q 605 331 682 353 q 526 321 571 321 l 331 330 q 182 288 233 330 q 140 218 152 264 q 313 95 174 95 m 555 514 q 540 525 555 514 q 492 545 525 536 q 438 555 460 555 q 368 541 416 555 q 281 509 319 526 q 187 418 187 465 q 350 408 296 408 q 553 434 500 408 q 586 468 586 448 q 555 514 586 492 z "},"f":{"ha":825,"x_min":19,"x_max":825,"o":"m 815 453 q 822 416 822 453 q 825 366 822 380 l 359 309 l 384 8 l 274 14 q 247 293 274 136 l 71 225 q 41 245 53 225 q 19 309 19 281 l 225 382 q 198 762 198 616 q 222 989 198 907 q 294 1098 247 1070 q 393 1126 340 1126 q 501 1103 446 1126 q 606 1044 556 1080 q 692 965 656 1009 q 727 879 727 921 q 720 833 727 846 q 589 968 666 909 q 415 1039 496 1039 q 312 929 338 1039 q 300 768 300 872 q 305 578 300 665 q 338 406 311 492 q 526 420 422 406 q 815 453 727 452 z "},"g":{"ha":716,"x_min":31,"x_max":688,"o":"m 429 -581 l 410 -579 q 323 -585 369 -579 l 271 -585 q 144 -553 190 -585 q 119 -505 119 -537 l 431 -490 q 575 -335 575 -486 q 575 -317 575 -330 q 575 -260 575 -304 l 582 176 q 581 214 582 199 q 157 9 361 9 q 122 11 140 9 q 31 91 31 11 q 68 229 34 153 q 155 374 102 304 q 277 499 209 444 q 479 585 381 585 q 666 464 593 585 q 688 5 688 141 q 684 -217 688 -130 q 665 -376 680 -304 q 628 -490 651 -448 q 574 -551 605 -532 q 429 -581 522 -581 m 510 486 q 465 491 494 491 q 389 467 435 491 q 301 404 343 442 q 222 317 259 365 q 133 132 133 201 q 145 99 133 110 q 169 94 155 94 q 210 98 183 94 q 284 123 237 103 q 381 174 331 142 q 472 243 431 205 q 567 412 567 330 q 510 486 567 463 z "},"h":{"ha":688,"x_min":31,"x_max":674,"o":"m 674 19 q 611 -4 662 -4 q 560 33 560 -4 q 553 252 560 193 q 502 393 541 384 q 342 412 404 412 q 241 375 281 412 q 180 252 201 338 q 149 9 159 165 l 45 9 q 47 153 47 87 q 45 311 47 220 q 38 511 42 403 q 31 722 31 636 q 42 880 31 808 q 81 906 56 906 q 130 884 113 906 q 149 844 148 861 l 142 620 q 155 431 142 494 q 407 513 277 513 q 496 506 449 513 q 629 393 598 453 q 648 327 644 362 q 654 247 652 292 q 674 19 662 92 z "},"i":{"ha":210,"x_min":33,"x_max":189,"o":"m 159 637 q 189 50 176 384 q 123 8 180 8 q 93 14 109 8 q 73 31 77 20 l 73 637 l 159 637 m 33 822 q 88 869 33 869 q 148 853 125 869 q 152 824 152 838 q 141 796 152 810 q 109 783 130 783 q 65 793 87 783 q 33 822 43 803 z "},"j":{"ha":247,"x_min":-155,"x_max":235,"o":"m 235 -271 q 115 -498 235 -498 q 85 -497 103 -498 q 31 -492 66 -496 q -42 -475 -5 -487 q -155 -388 -130 -445 q -148 -369 -155 -384 q -136 -338 -136 -342 q -39 -401 -91 -372 q 71 -431 12 -431 q 133 -374 110 -431 q 155 -277 155 -326 q 136 65 155 -145 q 109 467 109 381 q 111 608 109 553 q 141 656 107 640 q 198 669 167 669 q 186 536 186 585 q 186 435 186 487 q 195 282 187 382 q 212 81 202 182 q 235 -271 235 -137 m 149 959 q 171 911 171 944 q 146 872 171 879 q 136 872 145 872 q 107 890 127 872 q 127 952 107 933 q 149 959 136 959 z "},"k":{"ha":853,"x_min":41,"x_max":830,"o":"m 171 247 l 178 129 q 126 -3 178 20 q 100 -7 115 -7 q 65 0 85 -7 l 66 507 q 54 728 66 617 q 41 948 41 838 q 87 991 41 991 l 98 991 q 110 990 107 991 q 137 787 130 906 q 164 431 152 522 q 267 500 187 444 q 396 592 347 557 q 488 656 445 627 q 616 723 590 723 q 650 697 637 723 q 431 507 582 612 q 310 424 370 465 q 199 338 250 382 q 372 287 290 313 q 529 239 453 260 q 830 180 704 187 q 823 133 830 144 q 773 111 811 114 l 762 111 q 543 163 680 134 q 171 247 273 218 z "},"l":{"ha":218,"x_min":30,"x_max":174,"o":"m 61 526 q 60 563 61 526 q 56 657 58 600 q 52 743 53 715 q 30 879 52 770 q 54 910 42 895 q 87 925 65 925 q 160 525 134 925 q 174 61 174 293 q 87 -1 174 -1 l 76 0 q 72 180 76 71 q 66 372 68 290 q 61 526 64 453 z "},"m":{"ha":1081,"x_min":35,"x_max":1072,"o":"m 149 22 q 75 -1 94 -1 q 50 3 57 -1 q 35 22 43 7 q 39 134 35 66 q 45 279 42 202 q 47 435 47 357 q 39 579 47 514 q 98 623 39 623 q 119 574 111 623 q 130 498 126 525 q 136 458 133 471 q 275 559 171 522 q 380 576 331 576 q 466 565 429 576 q 530 523 503 553 q 556 442 556 492 q 715 562 591 509 q 917 612 827 612 q 1043 514 1046 612 l 1072 9 q 1032 0 1072 3 q 956 14 956 -5 q 955 68 955 41 l 962 286 q 932 529 962 439 q 794 500 842 522 q 709 444 746 477 q 644 355 673 411 q 581 24 581 231 q 528 -4 572 -4 q 479 6 498 -4 q 464 24 460 16 q 490 248 490 168 q 477 370 490 312 q 445 502 464 427 q 182 346 250 502 q 149 216 152 277 q 145 113 145 156 q 149 22 145 71 z "},"n":{"ha":694,"x_min":46,"x_max":655,"o":"m 566 297 q 548 534 566 458 q 515 555 559 555 q 396 532 469 555 q 277 486 323 509 q 155 382 167 433 l 155 14 l 64 14 q 46 273 46 60 q 54 552 46 463 q 65 654 61 642 q 122 677 100 677 q 156 597 156 677 q 153 536 156 566 q 149 496 149 507 q 490 658 369 658 q 646 437 627 658 q 654 222 654 359 l 652 115 q 655 0 652 56 q 633 -8 642 -8 q 616 -4 629 -7 q 581 0 602 -1 q 566 111 567 54 q 564 214 564 167 l 566 297 z "},"o":{"ha":781,"x_min":71,"x_max":760,"o":"m 71 258 q 209 515 71 418 q 473 609 319 593 q 511 609 481 609 q 591 591 541 609 q 743 457 703 553 q 760 393 760 419 q 758 355 760 366 q 629 88 758 186 q 331 -1 510 -1 q 136 58 202 -1 q 71 258 71 118 m 164 225 q 209 111 164 141 q 323 90 243 90 q 464 102 403 90 q 572 144 525 114 q 674 346 674 209 q 631 479 674 427 q 506 534 583 534 q 399 514 453 525 q 298 472 346 503 q 164 225 195 406 z "},"p":{"ha":773,"x_min":84,"x_max":739,"o":"m 167 544 q 486 608 351 608 q 713 518 656 608 q 739 427 739 476 q 696 288 739 359 q 583 157 654 216 q 184 -9 419 23 q 185 -58 184 -24 q 186 -132 186 -91 q 188 -218 187 -172 q 190 -307 189 -264 q 196 -426 194 -411 q 198 -450 198 -441 q 176 -501 198 -484 q 119 -518 155 -518 q 106 -518 113 -518 l 84 572 q 117 589 96 590 q 149 578 137 587 q 167 544 161 568 m 563 496 q 467 519 518 519 q 366 510 416 519 q 198 414 252 488 q 174 327 174 378 q 174 316 174 321 l 174 81 q 570 255 453 144 q 637 387 637 319 q 563 496 637 458 z "},"q":{"ha":713,"x_min":49,"x_max":678,"o":"m 658 -480 l 621 -481 l 590 -481 l 570 111 q 410 27 517 61 q 235 -4 312 -4 q 131 14 172 -4 q 70 52 90 31 q 50 96 50 73 q 49 133 49 119 q 87 286 49 212 q 195 420 125 361 q 351 511 266 480 q 515 543 435 543 l 534 543 q 606 514 574 543 q 661 450 639 486 q 662 -15 661 214 q 678 -480 663 -244 l 658 -480 m 543 388 q 515 452 543 452 q 269 372 378 452 q 152 152 152 283 q 225 84 152 87 q 279 84 245 84 q 359 93 312 84 q 445 125 407 102 q 534 277 534 175 l 543 388 z "},"r":{"ha":766,"x_min":37,"x_max":741,"o":"m 703 495 q 556 536 646 536 q 400 505 472 536 q 214 358 264 448 q 193 271 193 317 q 193 226 193 263 q 206 125 193 189 q 220 -3 220 62 q 174 -9 191 -4 q 144 -15 156 -15 q 123 -4 132 -15 q 103 38 114 7 q 98 84 102 46 q 87 176 94 122 q 74 295 81 231 q 60 422 66 359 q 37 621 45 557 q 84 654 37 654 q 129 630 113 654 q 155 576 145 606 q 168 515 164 545 q 174 473 171 486 q 618 633 353 633 q 681 632 648 633 q 701 633 689 633 q 726 617 713 633 q 741 571 741 598 q 703 495 741 503 z "},"s":{"ha":697,"x_min":30,"x_max":650,"o":"m 500 350 q 650 274 650 350 q 567 141 650 217 q 235 -39 444 28 q 214 -20 225 -39 q 196 9 202 -1 q 187 22 190 19 q 444 146 343 73 q 511 227 511 195 q 431 258 511 258 q 197 220 351 258 q 75 270 126 222 q 30 355 30 312 q 54 433 30 397 q 119 500 79 469 q 214 557 160 532 q 490 621 347 621 q 571 613 532 621 q 609 585 604 613 q 614 491 614 556 q 434 528 534 528 q 228 477 309 528 q 141 350 144 429 q 197 312 141 312 l 296 323 q 500 350 423 350 z "},"t":{"ha":562,"x_min":22,"x_max":547,"o":"m 241 130 l 244 347 q 235 435 244 399 l 24 435 l 22 529 l 225 529 l 225 879 q 241 903 229 891 q 273 922 260 922 q 296 920 286 922 q 316 901 305 917 q 338 631 338 811 q 342 543 338 586 q 429 548 385 548 q 499 548 429 548 q 547 551 525 548 l 543 453 l 345 458 l 351 -9 q 309 -20 327 -20 q 241 130 241 -20 z "},"u":{"ha":705,"x_min":18,"x_max":663,"o":"m 30 180 q 26 241 30 202 q 20 326 23 279 q 18 419 18 372 q 26 506 18 467 q 99 594 43 594 q 150 567 137 583 q 163 527 163 551 q 151 468 163 503 q 106 255 106 350 q 110 189 106 224 q 259 98 132 98 q 385 121 326 98 q 540 220 499 163 q 552 329 552 282 q 549 412 552 376 q 541 493 545 449 q 534 590 536 537 q 569 598 552 598 q 604 581 586 598 q 635 514 623 563 q 652 399 648 465 q 657 263 656 334 q 658 127 658 193 q 663 14 658 61 q 632 -1 647 -1 q 552 107 578 -1 q 492 71 534 92 q 281 5 403 22 q 229 3 258 3 q 158 14 201 3 q 77 64 115 24 q 30 180 39 103 z "},"v":{"ha":720,"x_min":46,"x_max":700,"o":"m 49 525 q 46 541 46 532 q 53 564 46 549 q 73 590 60 579 q 101 600 85 601 q 126 581 117 600 l 354 157 q 389 218 365 174 q 443 317 412 262 q 507 433 473 373 q 568 544 540 494 q 646 659 633 659 q 687 638 674 659 q 700 606 700 617 q 700 591 700 595 q 559 286 624 426 q 474 105 495 146 q 437 39 453 64 q 381 -3 408 -3 q 319 40 354 -3 q 239 155 283 83 q 49 525 160 285 z "},"w":{"ha":1123,"x_min":62,"x_max":1063,"o":"m 552 374 q 503 191 522 275 q 464 52 483 107 q 396 -28 434 -28 q 350 -9 376 -28 q 174 285 288 57 q 62 563 62 507 q 77 593 62 587 q 111 594 92 600 q 176 552 157 581 q 199 505 186 538 l 233 420 q 346 160 290 278 q 403 279 376 206 l 445 396 q 543 552 499 549 q 746 312 576 574 q 836 179 818 201 q 865 260 848 179 q 895 398 882 342 q 926 503 907 454 q 1029 617 971 617 q 1056 604 1048 617 q 1063 583 1063 591 q 1063 571 1063 575 q 1029 466 1047 525 q 992 345 1012 407 q 953 223 972 283 q 914 114 933 163 q 840 0 869 8 q 765 53 817 -11 q 716 123 742 83 q 662 208 690 164 q 552 374 593 316 z "},"x":{"ha":654,"x_min":24,"x_max":650,"o":"m 35 41 q 170 193 102 107 q 252 307 237 278 l 138 431 q 96 477 117 454 q 60 518 76 500 q 34 548 43 536 l 24 559 l 103 643 q 193 530 164 568 q 240 468 222 491 q 327 374 270 430 q 395 472 346 401 q 525 651 476 593 q 575 629 556 651 q 594 589 594 608 q 492 429 559 513 q 448 371 468 399 q 415 311 427 343 q 613 113 498 252 q 650 65 639 81 q 635 37 650 56 q 594 -4 612 4 q 541 40 568 8 q 481 110 513 72 q 417 186 450 148 q 347 248 384 224 q 260 146 316 213 q 125 0 159 24 q 52 24 99 -5 q 35 41 39 31 z "},"y":{"ha":762,"x_min":30,"x_max":738,"o":"m 323 -511 q 255 -575 294 -575 q 227 -558 236 -575 q 227 -518 218 -541 q 313 -231 256 -392 q 388 -14 369 -69 q 239 176 340 34 q 30 498 30 469 q 31 500 30 499 l 83 552 q 362 216 190 453 q 431 115 406 156 q 476 214 460 172 q 503 280 492 255 q 530 347 513 305 q 658 633 576 460 q 684 639 670 639 q 732 621 718 639 q 738 606 738 614 q 735 589 738 597 l 323 -511 z "},"z":{"ha":688,"x_min":26,"x_max":678,"o":"m 187 -5 q 52 54 52 -5 q 111 153 52 92 q 216 253 171 214 q 301 328 260 292 q 458 491 397 416 q 422 491 446 491 q 351 488 397 491 q 252 479 304 484 q 69 464 113 464 q 26 483 26 464 q 52 525 26 506 q 90 544 79 544 q 108 545 102 544 q 129 549 114 547 q 172 554 144 551 q 247 562 199 557 q 540 587 340 571 q 605 540 605 579 q 510 393 605 490 q 330 224 426 309 q 197 98 235 138 q 289 94 250 94 l 511 103 q 605 98 563 103 q 656 90 647 94 q 678 43 678 77 q 673 14 678 30 q 602 18 639 18 q 506 14 566 18 q 362 3 446 9 q 187 -5 247 -5 z "},"{":{"ha":490,"x_min":71,"x_max":590,"o":"m 380 1280 q 368 1269 380 1280 q 341 1223 357 1259 q 317 1125 326 1188 q 309 963 309 1062 q 323 711 309 864 q 302 664 323 682 q 255 630 281 646 q 208 598 229 614 q 187 556 187 582 q 184 538 184 549 q 199 502 184 526 q 302 406 235 449 q 337 388 331 388 q 345 388 343 388 q 336 256 336 308 q 342 143 336 203 q 371 31 349 83 q 425 -44 393 -20 q 489 -77 457 -68 q 549 -85 521 -85 q 590 -90 576 -85 l 585 -187 q 298 -3 357 -172 q 262 186 269 83 q 248 351 255 289 q 214 387 240 368 q 160 429 189 406 q 71 548 83 491 q 99 626 77 598 q 146 672 121 654 q 195 707 171 690 q 233 755 220 724 q 225 872 231 807 q 217 1019 217 954 q 224 1144 217 1084 q 258 1256 232 1204 q 458 1370 315 1370 l 458 1297 q 380 1280 403 1301 z "},"|":{"ha":202,"x_min":71,"x_max":151,"o":"m 140 -92 l 104 -92 q 75 -95 80 -92 l 71 1329 l 151 1329 l 151 -90 q 140 -92 151 -92 z "},"}":{"ha":665,"x_min":33,"x_max":576,"o":"m 38 -296 l 33 -198 q 75 -194 46 -194 q 137 -185 104 -194 q 203 -152 170 -176 q 297 132 297 -85 q 289 274 297 194 q 297 274 290 274 q 332 292 304 274 q 441 391 404 334 q 453 422 453 411 q 450 439 453 433 q 428 481 450 465 q 379 513 406 498 q 331 546 353 528 q 310 601 309 564 q 311 699 311 637 q 302 838 311 760 q 272 979 293 917 q 222 1074 251 1040 q 165 1126 194 1108 q 111 1150 137 1145 q 71 1161 85 1156 l 71 1234 q 305 1123 220 1234 q 393 882 370 1039 q 406 740 406 810 q 404 636 406 670 q 445 583 418 605 q 500 539 472 560 q 551 495 529 518 q 576 441 572 472 q 488 307 574 373 q 426 264 456 281 q 388 237 396 247 q 377 115 381 176 q 363 -5 373 53 q 336 -113 354 -62 q 281 -201 317 -163 q 38 -296 203 -283 z "},"~":{"ha":617,"x_min":35,"x_max":586,"o":"m 201 769 q 84 659 157 769 q 58 665 76 659 q 35 688 39 670 q 96 803 56 753 q 182 871 137 853 q 206 875 193 875 q 239 861 220 875 q 283 821 259 846 q 334 772 308 795 q 389 749 359 749 q 435 758 418 749 q 466 785 452 768 q 497 829 480 803 q 545 887 514 854 q 569 877 553 887 q 585 857 585 867 q 586 831 586 846 q 575 791 586 817 q 540 741 564 766 q 384 673 471 673 q 285 713 321 673 q 239 753 258 738 q 201 769 220 769 z "},"¡":{"ha":187,"x_min":31,"x_max":170,"o":"m 87 576 q 156 584 144 576 q 169 601 169 592 q 105 647 154 640 q 87 648 97 648 q 64 644 78 648 q 43 631 50 641 q 87 576 28 606 m 150 -239 q 142 78 142 -213 q 122 414 142 370 l 32 414 q 43 162 32 313 q 62 -235 62 -132 l 150 -239 z "},"¢":{"ha":879,"x_min":28,"x_max":842,"o":"m 469 -92 l 433 -92 q 404 -95 407 -92 l 403 5 q 331 0 365 0 q 242 11 297 0 q 140 46 187 22 q 30 214 30 103 q 28 232 28 222 q 138 435 28 332 q 401 586 248 540 l 401 773 l 481 773 l 480 604 q 555 609 528 609 q 675 524 675 609 q 629 460 675 491 q 608 445 617 452 q 566 515 595 506 q 480 505 548 521 l 480 106 q 563 135 522 118 q 643 168 604 152 q 789 203 735 203 q 842 174 842 203 q 802 117 842 140 q 709 76 762 95 q 480 19 606 41 l 480 -90 q 469 -92 480 -92 m 345 84 q 403 88 378 84 l 401 480 q 152 309 206 404 q 137 264 137 283 q 138 235 137 244 q 205 111 138 148 q 345 84 255 84 z "},"£":{"ha":749,"x_min":-30,"x_max":727,"o":"m 39 334 q -30 368 -30 334 q -14 393 -30 387 q 22 403 3 400 q 72 409 41 406 q 126 416 103 412 q 135 564 130 502 q 153 669 140 627 q 189 738 165 712 q 252 777 212 764 q 439 812 359 812 q 602 781 537 812 q 696 709 666 750 q 727 643 727 669 q 703 617 727 617 q 632 665 680 617 q 540 719 598 700 q 423 743 464 743 q 348 733 382 743 q 279 691 313 723 q 227 600 245 659 l 206 431 l 319 430 q 391 399 374 430 q 388 373 396 387 q 355 351 380 359 l 205 350 l 168 90 q 263 106 222 99 q 338 118 304 114 q 405 122 373 122 q 472 117 437 122 q 646 71 529 107 q 658 59 654 68 q 658 41 662 50 q 618 15 647 19 q 568 16 589 11 q 521 27 547 20 q 397 46 446 46 q 328 43 347 46 q 294 34 309 39 q 263 22 278 28 q 106 0 205 0 q 77 0 92 0 q 104 339 98 91 l 39 334 z "},"¤":{"ha":781,"x_min":-1,"x_max":814,"o":"m 612 151 q 323 68 496 68 q 216 80 262 68 q 174 45 205 69 q 130 8 144 20 q 103 -7 110 -7 q 82 -4 96 -7 q 50 5 68 -1 q -1 39 8 19 l 117 141 q 62 327 62 201 q 149 540 62 453 l 41 647 l 138 738 q 250 616 209 662 q 465 678 343 666 q 505 678 475 678 q 583 661 536 678 q 625 711 597 678 q 667 760 652 743 q 690 787 681 777 q 752 763 730 787 q 774 719 774 739 q 743 669 765 703 l 709 618 q 692 593 699 602 q 753 445 753 525 q 751 426 753 435 q 696 236 751 321 q 814 111 760 176 q 796 80 814 99 q 746 35 766 45 q 682 79 715 47 q 612 151 648 111 m 145 281 q 190 168 145 197 q 304 145 225 145 q 445 158 384 145 q 553 201 506 171 q 655 403 655 266 q 612 534 655 483 q 487 590 564 590 q 380 571 434 582 q 281 529 327 560 q 145 281 176 460 z "},"¥":{"ha":742,"x_min":-14,"x_max":680,"o":"m 164 252 q 354 278 290 271 l 354 336 l 203 317 q 186 317 197 317 q 165 317 176 316 q 137 340 140 321 l 164 389 q 354 412 167 392 l 355 473 l -7 844 q -14 860 -14 853 q -8 876 -14 867 q 14 892 -3 884 q 65 913 47 913 q 104 885 87 897 q 138 860 121 873 q 175 827 155 846 q 227 773 195 807 q 408 563 271 726 q 585 944 519 888 q 623 963 606 962 q 656 945 640 964 q 680 909 673 925 q 631 811 658 863 q 575 703 604 760 q 468 460 503 557 l 465 426 q 524 433 496 430 q 575 441 551 437 q 608 441 597 448 q 622 421 620 434 q 618 393 624 408 q 600 370 612 378 l 463 351 l 458 290 q 621 317 537 300 q 661 301 652 317 q 669 273 669 285 q 666 250 669 260 q 456 224 555 247 l 445 4 q 426 -16 441 -5 q 361 -24 391 -42 q 342 14 345 -16 q 355 202 353 34 q 174 182 254 182 q 141 229 141 182 q 150 243 141 235 q 164 252 159 252 z "},"¦":{"ha":178,"x_min":38,"x_max":149,"o":"m 38 22 l 49 393 l 138 393 l 127 46 q 90 11 125 22 q 38 22 54 1 m 50 426 q 60 722 54 585 q 71 760 57 751 q 101 768 84 768 q 131 765 118 768 q 149 743 144 762 l 138 426 l 50 426 z "},"§":{"ha":697,"x_min":14,"x_max":670,"o":"m 517 682 q 670 608 670 682 q 582 469 670 548 q 469 388 534 427 q 588 353 555 380 q 621 296 621 327 q 578 212 621 256 q 469 132 534 168 q 134 33 319 47 q 96 81 122 33 q 88 94 91 91 q 391 184 264 123 q 488 258 488 232 q 408 285 488 285 q 180 259 327 285 q 58 309 110 262 q 14 399 14 351 q 146 568 14 490 q 77 624 102 589 q 52 694 52 659 q 141 833 52 764 q 473 952 277 936 q 523 954 492 954 q 593 945 553 954 q 631 917 625 945 q 636 823 636 888 q 456 860 556 860 q 187 754 266 860 q 163 681 164 723 q 180 651 163 658 q 218 644 197 644 l 317 655 q 517 682 438 682 m 530 560 q 467 598 530 598 q 353 576 415 598 q 244 526 292 555 q 125 388 137 461 q 179 353 125 353 q 210 354 194 353 q 430 456 336 395 q 530 560 530 519 z "},"¨":{"ha":515,"x_min":90,"x_max":403,"o":"m 122 810 q 90 856 90 810 q 157 901 90 872 q 196 888 186 901 q 206 857 206 876 q 198 829 206 838 q 178 817 190 821 q 122 810 161 810 m 317 810 q 285 856 285 810 q 354 901 285 873 q 403 854 403 901 q 346 811 403 812 q 317 810 331 810 z "},"©":{"ha":876,"x_min":52,"x_max":834,"o":"m 157 60 q 80 138 109 91 q 52 239 52 184 q 68 368 52 293 q 109 506 84 442 q 170 629 134 570 q 252 735 206 689 q 483 834 354 834 q 749 707 656 834 q 834 420 834 591 q 705 106 834 218 q 370 -3 579 -3 q 157 60 250 -3 m 132 248 q 392 65 132 65 q 673 161 579 65 q 768 435 768 258 q 768 446 768 441 q 690 685 768 602 q 479 768 613 768 q 452 768 464 768 q 431 768 441 768 q 289 670 359 768 q 175 441 222 581 q 132 248 132 313 m 222 334 q 222 350 222 342 q 250 467 222 407 q 323 577 277 528 q 418 652 369 627 q 509 678 468 678 q 536 677 518 678 q 573 665 553 677 q 593 617 593 654 q 578 564 593 581 q 553 536 564 548 q 544 582 551 563 q 515 601 537 601 q 358 513 427 575 q 283 370 283 445 q 284 336 283 362 q 295 286 285 311 q 323 247 305 260 q 396 222 350 222 q 475 238 442 222 q 540 273 509 254 q 602 309 571 293 q 652 324 632 324 q 680 319 673 324 q 688 304 688 315 q 686 281 688 294 q 665 250 684 267 q 618 218 646 233 q 557 191 590 203 q 494 168 525 178 q 402 148 429 148 q 345 157 376 148 q 286 187 313 167 q 222 334 222 237 z "},"ª":{"ha":346,"x_min":14,"x_max":304,"o":"m 255 290 q 135 183 210 203 q 104 178 118 178 q 81 179 90 178 q 60 182 72 179 q 39 192 49 185 q 17 235 17 207 q 15 265 15 248 q 21 309 15 281 q 43 367 27 336 q 81 425 58 399 q 183 498 128 481 q 213 502 199 502 q 237 500 226 502 q 283 442 272 500 q 293 339 291 405 q 296 238 294 273 q 303 173 297 202 l 268 173 q 264 208 266 192 q 262 237 263 223 q 255 290 259 267 m 252 404 q 218 447 252 447 q 210 448 214 448 q 118 396 166 448 q 79 343 95 373 q 55 268 55 301 q 96 217 55 225 q 199 277 150 218 q 233 333 220 303 q 252 404 252 373 z "},"«":{"ha":974,"x_min":114,"x_max":902,"o":"m 114 311 q 216 391 157 345 q 334 483 274 437 q 544 633 480 598 q 570 604 562 633 q 574 579 574 591 q 568 559 574 567 l 250 316 q 308 288 270 305 q 392 248 346 271 q 585 140 502 194 q 579 129 583 138 q 570 109 575 119 q 555 80 557 80 q 438 132 514 106 q 316 177 362 159 q 231 214 270 195 q 114 311 138 260 m 431 340 q 532 421 475 374 q 651 515 590 468 q 860 665 793 625 q 887 633 878 662 q 886 589 895 608 l 567 346 q 625 318 587 335 q 708 278 662 301 q 902 171 833 216 q 897 159 901 168 q 887 138 892 149 q 871 111 875 111 q 754 163 830 137 q 633 208 678 190 q 547 245 587 225 q 431 340 454 292 z "},"¬":{"ha":833,"x_min":99,"x_max":796,"o":"m 796 463 q 789 357 789 388 l 789 312 q 777 164 789 264 q 743 163 758 163 q 716 165 728 163 q 693 229 693 172 l 697 370 l 99 361 l 103 449 q 166 448 125 448 q 289 454 208 448 l 461 469 q 653 477 572 477 q 796 463 734 477 z "},"®":{"ha":876,"x_min":52,"x_max":834,"o":"m 157 60 q 80 138 109 91 q 52 239 52 184 q 68 368 52 293 q 109 506 84 442 q 170 629 134 570 q 252 735 206 689 q 483 834 354 834 q 749 707 656 834 q 834 420 834 591 q 705 106 834 218 q 370 -3 579 -3 q 157 60 250 -3 m 132 248 q 392 65 132 65 q 701 194 606 65 q 684 193 693 193 l 670 193 q 621 216 658 193 q 534 269 583 239 q 343 372 407 350 l 343 222 q 330 211 343 212 q 312 210 316 210 q 284 238 289 210 q 279 309 279 266 l 282 463 q 274 597 282 526 q 323 583 292 631 q 463 618 362 618 q 574 605 524 618 q 654 552 654 586 q 524 469 654 511 q 361 412 378 422 q 368 404 361 408 q 410 384 376 400 q 615 279 530 324 q 707 229 700 233 q 716 218 713 224 q 768 435 768 305 q 768 446 768 441 q 690 685 768 602 q 479 768 613 768 q 452 768 464 768 q 431 768 441 768 q 289 670 359 768 q 175 441 222 581 q 132 248 132 313 m 507 576 q 332 544 358 576 q 326 521 326 534 q 327 496 326 507 q 343 458 331 471 q 353 457 346 457 q 383 463 359 457 q 442 480 407 468 q 559 528 525 507 q 593 559 593 548 q 560 576 593 571 l 507 576 z "},"¯":{"ha":431,"x_min":41,"x_max":406,"o":"m 109 724 q 41 758 41 724 q 56 784 41 777 q 111 796 72 791 q 208 812 149 802 q 332 829 267 822 q 404 798 389 829 q 406 786 406 792 q 399 770 406 780 q 369 751 393 760 l 109 724 z "},"°":{"ha":305,"x_min":34,"x_max":267,"o":"m 86 387 q 72 397 86 387 q 46 427 58 407 q 34 484 34 448 q 50 548 34 521 q 132 593 79 593 q 244 536 202 593 q 267 480 263 511 q 239 389 267 411 q 155 366 212 366 q 86 387 114 366 m 203 502 q 137 534 172 534 q 87 494 95 534 q 87 477 87 490 q 103 437 87 464 q 141 415 127 416 q 166 414 155 414 q 191 425 178 414 q 212 460 212 438 q 203 502 212 483 z "},"±":{"ha":728,"x_min":24,"x_max":701,"o":"m 165 -7 q 96 28 96 -7 q 112 53 96 46 q 148 63 127 60 q 218 75 168 66 q 328 94 269 83 q 323 157 326 122 q 315 228 320 193 q 285 361 302 308 q 198 346 248 361 q 58 315 96 316 q 33 334 42 315 q 24 374 24 354 l 285 429 l 285 654 q 332 680 285 680 q 362 671 355 680 q 373 642 369 662 q 381 595 377 621 q 389 541 385 570 q 395 487 392 513 q 399 452 399 461 l 652 480 q 650 434 652 449 q 624 411 647 419 q 549 396 601 403 q 397 372 496 389 q 393 337 393 353 q 395 300 393 321 q 404 245 397 279 q 422 111 420 153 q 627 144 532 130 q 697 113 682 144 q 701 101 701 107 q 695 84 701 95 q 665 65 689 73 l 165 -7 z "},"²":{"ha":521,"x_min":12,"x_max":484,"o":"m 456 350 q 484 332 484 350 q 465 306 484 314 q 423 294 446 298 q 380 290 400 290 q 354 289 359 290 q 329 283 348 288 q 284 272 310 278 q 227 259 258 266 q 75 238 131 238 q 36 245 46 238 q 32 266 26 253 q 164 387 96 313 q 267 560 267 498 q 263 583 267 572 q 214 611 253 605 q 153 598 177 611 q 109 570 130 586 q 67 541 88 554 q 14 529 45 529 q 36 574 14 552 q 161 640 80 620 q 207 648 190 648 q 232 647 224 648 q 289 627 265 644 q 317 574 313 610 q 205 351 317 474 q 145 289 175 318 q 174 288 154 288 q 229 297 194 288 q 302 316 263 305 q 380 339 341 328 q 456 350 418 350 z "},"³":{"ha":456,"x_min":15,"x_max":412,"o":"m 399 628 q 321 518 399 582 q 288 492 302 504 q 407 447 388 490 q 411 426 411 437 q 405 397 411 415 q 380 353 399 378 q 332 305 360 328 q 211 238 275 257 q 176 232 189 232 q 154 232 162 232 q 137 237 146 233 q 128 253 128 242 q 235 295 189 268 q 308 352 281 322 q 340 413 340 388 q 324 445 340 437 q 285 454 309 454 q 117 406 223 454 l 88 441 q 334 597 334 550 q 288 624 334 617 q 179 608 240 624 q 84 586 118 593 q 16 578 51 578 q 35 621 16 615 q 107 638 69 629 q 307 669 232 669 q 399 628 382 669 z "},"´":{"ha":239,"x_min":34,"x_max":194,"o":"m 127 821 q 168 846 146 846 q 189 833 182 846 q 194 808 195 821 q 187 785 193 796 q 170 760 182 774 q 76 675 146 734 l 34 713 l 127 821 z "},"µ":{"ha":681,"x_min":45,"x_max":621,"o":"m 45 307 q 103 605 45 605 q 153 578 123 605 q 146 484 152 526 q 137 361 137 399 q 138 296 137 323 q 149 217 138 270 q 271 126 183 163 q 395 99 335 99 q 487 124 454 99 q 529 187 519 149 q 540 288 540 250 q 530 425 540 353 q 519 516 519 498 q 521 545 519 534 q 562 583 525 575 q 610 430 593 552 q 621 280 621 350 q 620 174 621 210 q 583 -35 618 -26 q 570 -37 579 -37 q 538 -24 560 -37 q 534 4 534 -22 q 532 52 534 54 q 387 4 472 4 q 228 39 305 4 q 137 107 159 71 q 136 79 136 92 l 141 -41 q 109 -144 141 -126 q 87 -149 100 -149 q 57 -144 73 -149 q 58 -121 58 -137 q 57 -75 58 -106 q 53 19 56 -43 q 45 307 45 209 z "},"¶":{"ha":526,"x_min":24,"x_max":495,"o":"m 425 575 l 410 578 q 399 333 401 578 q 396 46 396 88 l 395 3 q 373 2 387 3 q 347 5 359 1 q 320 54 317 15 q 324 153 323 90 q 328 298 327 283 q 130 366 202 323 q 24 507 24 433 q 119 624 24 582 q 282 654 186 654 q 495 617 378 654 l 475 -1 l 420 3 q 418 46 418 3 l 426 532 q 425 575 426 575 z "},"·":{"ha":195,"x_min":20,"x_max":138,"o":"m 20 326 q 43 370 27 358 q 69 381 60 381 q 91 379 79 381 q 119 361 103 377 q 138 324 136 346 q 125 281 138 292 q 94 271 111 271 q 65 275 76 271 q 43 285 54 278 q 20 326 20 301 z "},"¸":{"ha":370,"x_min":58,"x_max":332,"o":"m 64 11 q 80 38 64 38 q 109 20 96 38 q 115 -3 121 1 q 117 -68 115 -39 q 142 -96 118 -96 q 207 -94 172 -94 q 278 -107 241 -94 q 332 -179 332 -129 q 269 -277 332 -233 q 141 -316 213 -316 q 62 -302 104 -316 q 58 -296 58 -302 q 59 -279 58 -289 q 60 -261 60 -270 q 58 -250 61 -252 q 95 -251 73 -251 q 152 -245 117 -251 q 220 -226 187 -239 q 269 -198 252 -213 q 228 -155 304 -165 q 183 -152 212 -152 q 111 -156 155 -152 q 65 -9 65 -156 q 64 11 64 3 z "},"¹":{"ha":156,"x_min":35,"x_max":123,"o":"m 36 204 q 38 246 36 217 q 41 310 39 274 q 45 386 43 346 q 48 461 47 425 q 51 526 50 497 q 53 568 52 554 q 62 588 51 584 q 85 592 72 592 q 108 591 98 592 q 123 579 118 589 l 106 217 q 76 199 104 204 q 36 204 49 193 z "},"º":{"ha":377,"x_min":31,"x_max":347,"o":"m 32 337 q 95 474 32 422 q 216 523 145 515 q 233 523 220 523 q 270 514 247 523 q 339 443 320 494 q 346 409 346 423 q 346 389 346 395 q 287 247 346 299 q 151 200 233 200 q 62 232 92 200 q 32 337 32 263 m 75 320 q 95 260 75 275 q 147 248 111 248 q 211 255 184 248 q 261 277 239 261 q 307 384 307 311 q 288 454 307 427 q 231 484 266 484 q 182 473 207 479 q 136 451 158 467 q 75 320 89 416 z "},"»":{"ha":909,"x_min":68,"x_max":887,"o":"m 160 65 q 92 114 99 88 q 92 123 92 119 q 189 222 92 165 q 374 338 331 305 q 426 403 418 372 l 68 537 l 136 604 q 258 537 202 556 q 367 507 315 518 q 471 479 419 495 q 578 422 522 464 q 489 337 543 380 q 376 250 435 294 q 260 159 317 205 q 160 65 202 113 m 468 103 q 437 218 349 149 q 546 290 481 254 q 644 350 610 327 q 735 441 724 401 l 376 575 l 444 642 q 566 575 510 594 q 675 545 623 556 q 779 517 728 533 q 887 460 830 502 q 798 375 852 418 q 686 288 745 332 q 569 197 627 243 q 468 103 511 151 z "},"¼":{"ha":861,"x_min":18,"x_max":727,"o":"m 85 212 q 87 250 85 224 q 90 309 88 276 q 93 377 91 341 q 96 445 95 412 q 99 503 98 477 q 101 541 100 528 q 108 559 99 555 q 130 563 118 563 q 151 562 142 563 q 164 551 160 560 l 149 224 q 122 208 147 212 q 85 212 97 203 m 42 -11 q 18 33 18 -11 l 18 46 q 553 879 38 106 q 583 924 579 918 q 590 905 590 920 q 574 842 590 890 q 515 705 557 795 q 412 509 472 616 q 286 301 351 403 q 42 -11 136 68 m 493 20 q 473 29 475 20 l 476 181 l 416 181 l 317 182 l 258 182 q 236 185 247 182 q 226 201 226 188 q 310 306 269 253 q 490 473 441 473 q 544 295 544 473 q 544 246 544 272 l 726 248 q 720 219 726 228 q 711 209 715 210 l 558 197 q 544 130 547 167 q 540 27 540 68 l 493 20 m 476 402 q 432 357 458 379 q 381 313 406 335 q 337 269 357 291 q 312 223 317 246 q 338 223 318 223 q 394 227 357 223 q 476 236 432 231 l 476 402 z "},"½":{"ha":901,"x_min":31,"x_max":736,"o":"m 36 201 q 37 240 36 214 q 41 298 39 266 q 44 367 42 331 q 48 435 46 403 q 50 494 49 468 q 53 532 52 519 q 61 550 50 546 q 84 554 71 554 q 107 553 97 554 q 121 543 117 551 l 105 213 q 75 197 102 201 q 36 201 48 192 m 56 0 q 31 43 31 0 l 31 57 q 567 890 52 117 q 597 935 593 929 q 604 916 604 930 q 587 853 604 901 q 528 716 571 806 q 425 520 486 627 q 300 312 365 414 q 56 0 149 79 m 708 146 q 736 126 736 146 q 717 97 736 106 q 675 84 699 88 q 631 79 652 80 q 605 78 611 79 q 580 71 600 76 q 535 59 561 66 q 477 44 508 52 q 323 20 381 20 q 285 29 294 20 q 281 52 275 37 q 414 189 345 105 q 517 383 517 313 q 513 409 517 397 q 464 441 504 434 q 403 426 427 441 q 358 394 379 412 q 315 362 337 377 q 262 348 294 348 q 285 399 263 374 q 411 473 329 451 q 457 482 440 482 q 482 481 474 482 q 540 459 516 478 q 568 399 564 439 q 455 148 568 286 q 394 78 424 110 q 424 77 404 77 q 479 86 444 77 q 553 109 514 96 q 631 134 593 122 q 708 146 670 146 z "},"¾":{"ha":1198,"x_min":12,"x_max":970,"o":"m 463 619 q 371 501 463 569 q 332 473 348 485 q 472 424 450 471 q 477 402 477 413 q 470 370 477 390 q 440 324 463 351 q 385 272 417 297 q 241 200 317 220 q 200 194 216 194 q 175 194 184 194 q 155 199 165 194 q 144 216 144 205 q 270 261 216 232 q 356 322 324 291 q 393 388 393 362 q 375 423 393 413 q 328 432 357 432 q 131 380 256 432 l 97 418 q 387 586 387 535 q 332 614 387 607 q 204 597 276 614 q 92 573 132 581 q 12 566 53 566 q 34 611 12 605 q 119 630 74 620 q 355 662 266 662 q 463 619 443 662 m 298 -27 q 274 16 274 -27 l 274 30 q 810 863 294 90 q 840 907 836 902 q 846 888 846 903 q 830 826 846 873 q 771 689 814 779 q 668 493 728 600 q 543 285 608 387 q 298 -27 392 52 m 717 19 q 695 30 698 19 l 699 202 l 634 202 l 527 203 l 462 203 q 439 207 451 203 q 427 225 427 210 q 519 344 475 284 q 714 534 661 534 q 773 331 773 534 q 772 276 773 305 l 970 278 q 964 245 970 256 q 954 234 958 235 l 788 221 q 773 144 776 187 q 769 27 769 74 l 717 19 m 699 452 q 651 402 679 426 q 596 352 623 377 q 548 302 569 327 q 521 249 527 276 q 549 249 527 249 q 611 254 570 249 q 699 264 651 259 l 699 452 z "},"¿":{"ha":673,"x_min":-41,"x_max":517,"o":"m 211 986 q 252 938 252 986 q 211 890 252 890 q 193 887 203 887 q 173 901 183 887 q 163 938 163 916 q 173 974 163 960 q 193 989 183 989 q 211 986 203 989 m 209 607 q 387 538 387 607 q 383 514 387 527 q 183 376 230 412 q 35 190 35 263 q 155 91 35 125 q 278 106 204 91 q 391 130 352 122 q 468 137 430 137 q 496 117 481 137 q 516 75 512 96 q 242 19 373 19 q 84 46 147 19 q -40 199 -40 99 q 88 405 -40 292 q 268 526 156 465 l 137 571 l 137 603 q 209 607 164 607 z "},"À":{"ha":890,"x_min":28,"x_max":859,"o":"m 738 490 l 776 490 q 820 486 799 490 q 841 456 841 481 q 777 403 850 401 q 740 406 757 404 q 712 406 723 407 q 703 399 701 406 q 732 311 716 359 q 766 213 747 262 q 859 39 815 92 q 805 -8 836 11 q 772 -27 774 -27 q 769 -26 770 -27 l 578 377 l 208 286 l 194 229 q 106 12 155 73 q 72 9 98 -1 q 28 37 28 26 q 57 115 28 39 q 115 269 85 191 q 176 433 144 347 q 236 595 208 518 q 288 734 264 673 q 320 824 311 796 q 333 873 330 852 q 343 909 336 894 q 411 940 357 940 q 501 855 469 907 q 555 743 533 803 q 600 623 578 684 q 658 511 621 562 q 694 491 670 492 q 738 490 719 490 m 399 783 q 350 613 388 700 q 289 478 312 526 q 250 389 266 430 q 476 444 342 389 q 541 471 510 458 q 399 783 477 743 m 343 1138 q 363 1176 343 1176 q 393 1157 376 1176 l 484 1069 l 461 1010 q 355 1099 372 1072 q 347 1120 350 1109 q 343 1138 343 1131 z "},"Á":{"ha":890,"x_min":35,"x_max":865,"o":"m 745 496 l 783 496 q 827 492 806 496 q 848 463 848 488 q 784 410 857 408 q 747 412 764 411 q 719 413 730 414 q 709 406 708 412 q 739 317 723 366 q 773 220 754 269 q 865 46 822 99 q 812 -1 842 18 q 779 -20 781 -20 q 776 -19 777 -20 l 585 384 l 214 293 l 201 236 q 113 19 161 80 q 79 16 104 5 q 35 43 35 33 q 64 122 35 46 q 121 276 92 198 q 182 439 151 354 q 243 602 214 525 q 294 741 271 680 q 327 831 317 803 q 340 880 336 859 q 350 916 343 901 q 418 947 363 947 q 508 862 476 914 q 562 750 540 810 q 606 629 585 690 q 665 518 628 568 q 701 498 677 499 q 745 496 726 496 m 406 789 q 357 620 395 707 q 296 485 319 533 q 256 396 273 437 q 483 450 349 396 q 548 477 517 465 q 406 789 484 750 m 373 1166 q 414 1192 392 1192 q 434 1179 427 1192 q 439 1154 441 1166 q 433 1131 438 1142 q 415 1105 427 1120 q 321 1021 392 1080 l 279 1059 l 373 1166 z "},"Â":{"ha":890,"x_min":35,"x_max":865,"o":"m 745 496 l 783 496 q 827 492 806 496 q 848 463 848 488 q 784 410 857 408 q 747 412 764 411 q 719 413 730 414 q 709 406 708 412 q 739 317 723 366 q 773 220 754 269 q 865 46 822 99 q 812 -1 842 18 q 779 -20 781 -20 q 776 -19 777 -20 l 585 384 l 214 293 l 201 236 q 113 19 161 80 q 79 16 104 5 q 35 43 35 33 q 64 122 35 46 q 121 276 92 198 q 182 439 151 354 q 243 602 214 525 q 294 741 271 680 q 327 831 317 803 q 340 880 336 859 q 350 916 343 901 q 418 947 363 947 q 508 862 476 914 q 562 750 540 810 q 606 629 585 690 q 665 518 628 568 q 701 498 677 499 q 745 496 726 496 m 406 789 q 357 620 395 707 q 296 485 319 533 q 256 396 273 437 q 483 450 349 396 q 548 477 517 465 q 406 789 484 750 m 270 917 q 230 924 245 917 q 214 956 214 930 q 229 1006 214 982 q 269 1058 243 1031 q 410 1157 326 1118 q 502 1093 479 1112 q 589 983 540 1059 q 597 953 597 967 q 591 930 597 939 q 543 929 576 909 q 484 974 492 966 q 458 1000 475 982 q 400 1058 442 1017 q 288 952 317 1001 q 270 917 278 936 z "},"Ã":{"ha":890,"x_min":35,"x_max":865,"o":"m 745 496 l 783 496 q 827 492 806 496 q 848 463 848 488 q 784 410 857 408 q 747 412 764 411 q 719 413 730 414 q 709 406 708 412 q 739 317 723 366 q 773 220 754 269 q 865 46 822 99 q 812 -1 842 18 q 779 -20 781 -20 q 776 -19 777 -20 l 585 384 l 214 293 l 201 236 q 113 19 161 80 q 79 16 104 5 q 35 43 35 33 q 64 122 35 46 q 121 276 92 198 q 182 439 151 354 q 243 602 214 525 q 294 741 271 680 q 327 831 317 803 q 340 880 336 859 q 350 916 343 901 q 418 947 363 947 q 508 862 476 914 q 562 750 540 810 q 606 629 585 690 q 665 518 628 568 q 701 498 677 499 q 745 496 726 496 m 406 789 q 357 620 395 707 q 296 485 319 533 q 256 396 273 437 q 483 450 349 396 q 548 477 517 465 q 406 789 484 750 m 345 1082 q 228 972 301 1082 q 201 978 220 972 q 179 1001 183 983 q 240 1116 199 1066 q 326 1184 281 1166 q 350 1188 336 1188 q 383 1174 363 1188 q 427 1134 403 1160 q 477 1085 452 1108 q 532 1062 503 1062 q 578 1072 562 1062 q 610 1099 595 1081 q 641 1142 624 1116 q 689 1200 658 1168 q 706 1186 697 1200 q 715 1162 715 1172 q 716 1137 716 1152 q 706 1097 716 1122 q 673 1048 696 1073 q 529 985 613 985 q 429 1027 467 985 q 382 1067 401 1051 q 345 1082 363 1082 z "},"Ä":{"ha":890,"x_min":35,"x_max":865,"o":"m 745 496 l 783 496 q 827 492 806 496 q 848 463 848 488 q 784 410 857 408 q 747 412 764 411 q 719 413 730 414 q 709 406 708 412 q 739 317 723 366 q 773 220 754 269 q 865 46 822 99 q 812 -1 842 18 q 779 -20 781 -20 q 776 -19 777 -20 l 585 384 l 214 293 l 201 236 q 113 19 161 80 q 79 16 104 5 q 35 43 35 33 q 64 122 35 46 q 121 276 92 198 q 182 439 151 354 q 243 602 214 525 q 294 741 271 680 q 327 831 317 803 q 340 880 336 859 q 350 916 343 901 q 418 947 363 947 q 508 862 476 914 q 562 750 540 810 q 606 629 585 690 q 665 518 628 568 q 701 498 677 499 q 745 496 726 496 m 406 789 q 357 620 395 707 q 296 485 319 533 q 256 396 273 437 q 483 450 349 396 q 548 477 517 465 q 406 789 484 750 m 312 1015 q 279 1061 279 1015 q 347 1105 279 1077 q 386 1093 376 1105 q 396 1062 396 1081 q 388 1034 396 1043 q 368 1021 380 1025 q 312 1015 351 1015 m 507 1015 q 475 1061 475 1015 q 544 1105 475 1078 q 593 1059 593 1105 q 536 1016 593 1017 q 507 1015 521 1015 z "},"Å":{"ha":890,"x_min":35,"x_max":865,"o":"m 745 496 l 783 496 q 827 492 806 496 q 848 463 848 488 q 784 410 857 408 q 747 412 764 411 q 719 413 730 414 q 709 406 708 412 q 739 317 723 366 q 773 220 754 269 q 865 46 822 99 q 812 -1 842 18 q 779 -20 781 -20 q 776 -19 777 -20 l 585 384 l 214 293 l 201 236 q 113 19 161 80 q 79 16 104 5 q 35 43 35 33 q 64 122 35 46 q 121 276 92 198 q 182 439 151 354 q 243 602 214 525 q 294 741 271 680 q 327 831 317 803 q 340 880 336 859 q 350 916 343 901 q 418 947 363 947 q 508 862 476 914 q 562 750 540 810 q 606 629 585 690 q 665 518 628 568 q 701 498 677 499 q 745 496 726 496 m 406 789 q 357 620 395 707 q 296 485 319 533 q 256 396 273 437 q 483 450 349 396 q 548 477 517 465 q 406 789 484 750 m 328 928 q 314 938 328 928 q 288 968 300 948 q 275 1025 275 989 q 292 1088 275 1061 q 373 1133 319 1133 q 439 1116 408 1133 q 509 1020 503 1082 q 480 930 509 952 q 397 907 452 907 q 328 928 355 907 m 445 1043 q 378 1074 415 1074 q 328 1034 336 1074 q 328 1017 328 1029 q 345 978 328 1004 q 396 955 373 955 q 453 996 444 955 q 453 1013 453 1002 q 445 1043 453 1024 z "},"Æ":{"ha":1218,"x_min":41,"x_max":1199,"o":"m 991 758 l 803 762 q 647 749 709 762 q 624 595 621 629 q 628 540 627 562 q 632 415 632 472 q 812 426 730 415 q 1062 448 975 448 l 1062 374 l 643 323 l 650 100 q 902 109 806 100 q 1194 123 1077 123 q 1199 111 1199 121 q 1190 90 1199 102 q 1119 46 1164 56 q 819 20 968 30 q 538 0 670 11 l 538 4 q 492 14 495 11 l 458 342 l 220 307 q 205 250 214 286 q 184 175 197 214 q 118 33 155 79 q 85 31 110 22 q 51 46 61 39 q 41 71 41 53 q 54 140 41 88 q 92 262 68 193 q 147 410 117 332 q 209 562 178 488 q 319 791 282 734 q 380 884 347 853 q 450 922 419 922 q 544 865 513 922 q 658 853 587 854 q 804 852 728 852 q 1058 830 1001 852 l 1058 762 q 991 758 1028 758 m 469 481 l 475 654 q 464 795 475 730 q 262 410 294 547 q 359 418 321 410 q 473 435 431 434 q 469 481 469 454 z "},"Ç":{"ha":983,"x_min":30,"x_max":955,"o":"m 708 753 q 513 840 620 840 q 317 762 411 840 q 155 510 199 665 q 138 418 138 454 q 141 361 138 381 q 232 155 141 227 q 450 88 317 88 q 799 228 632 103 q 897 296 845 263 q 935 290 916 296 q 955 259 955 285 q 728 91 821 142 q 419 -1 557 -1 q 401 -1 410 -1 q 144 92 251 -1 q 30 339 30 191 q 70 552 30 450 q 180 732 110 654 q 345 856 250 810 q 551 902 441 902 q 673 876 644 902 q 708 753 708 845 m 363 20 q 380 47 363 47 q 408 29 396 47 q 415 7 420 11 q 416 -58 415 -30 q 442 -87 418 -87 q 507 -84 472 -84 q 578 -98 541 -84 q 632 -170 632 -119 q 568 -267 632 -224 q 441 -307 513 -307 q 362 -293 404 -307 q 358 -286 358 -293 q 359 -270 358 -279 q 360 -252 359 -260 q 358 -240 361 -243 q 395 -241 373 -241 q 452 -235 416 -241 q 519 -216 487 -229 q 568 -189 552 -203 q 528 -145 604 -156 q 483 -142 511 -142 q 411 -146 454 -142 q 365 0 365 -146 q 363 20 363 12 z "},"È":{"ha":822,"x_min":41,"x_max":795,"o":"m 479 861 q 659 844 614 861 l 659 777 q 559 771 623 772 q 423 769 495 770 q 149 749 222 765 q 127 601 126 640 q 130 540 129 562 q 136 415 136 487 q 347 431 228 415 q 530 455 465 448 q 665 463 595 463 l 665 388 l 145 323 l 153 100 q 428 113 288 100 q 641 132 568 126 q 795 138 713 138 q 779 87 795 111 q 720 61 746 43 q 294 20 481 35 q 41 0 106 5 l 46 865 q 176 854 81 854 l 479 861 m 254 1042 q 274 1080 254 1080 q 304 1061 286 1080 l 395 972 l 372 914 q 266 1002 282 975 q 257 1024 260 1013 q 254 1042 254 1035 z "},"É":{"ha":822,"x_min":41,"x_max":795,"o":"m 479 861 q 659 844 614 861 l 659 777 q 559 771 623 772 q 423 769 495 770 q 149 749 222 765 q 127 601 126 640 q 130 540 129 562 q 136 415 136 487 q 347 431 228 415 q 530 455 465 448 q 665 463 595 463 l 665 388 l 145 323 l 153 100 q 428 113 288 100 q 641 132 568 126 q 795 138 713 138 q 779 87 795 111 q 720 61 746 43 q 294 20 481 35 q 41 0 106 5 l 46 865 q 176 854 81 854 l 479 861 m 381 1069 q 422 1095 400 1095 q 442 1082 435 1095 q 448 1057 449 1069 q 441 1034 446 1044 q 423 1008 435 1023 q 330 924 400 982 l 288 962 l 381 1069 z "},"Ê":{"ha":822,"x_min":41,"x_max":795,"o":"m 479 861 q 659 844 614 861 l 659 777 q 559 771 623 772 q 423 769 495 770 q 149 749 222 765 q 127 601 126 640 q 130 540 129 562 q 136 415 136 487 q 347 431 228 415 q 530 455 465 448 q 665 463 595 463 l 665 388 l 145 323 l 153 100 q 428 113 288 100 q 641 132 568 126 q 795 138 713 138 q 779 87 795 111 q 720 61 746 43 q 294 20 481 35 q 41 0 106 5 l 46 865 q 176 854 81 854 l 479 861 m 250 917 q 210 924 225 917 q 194 956 194 930 q 208 1006 194 982 q 248 1058 222 1031 q 389 1157 305 1118 q 481 1093 458 1112 q 568 983 519 1059 q 576 953 576 967 q 571 930 576 939 q 522 929 556 909 q 463 974 472 966 q 438 1000 454 982 q 380 1058 422 1017 q 267 952 297 1001 q 250 917 258 936 z "},"Ë":{"ha":822,"x_min":41,"x_max":795,"o":"m 479 861 q 659 844 614 861 l 659 777 q 559 771 623 772 q 423 769 495 770 q 149 749 222 765 q 127 601 126 640 q 130 540 129 562 q 136 415 136 487 q 347 431 228 415 q 530 455 465 448 q 665 463 595 463 l 665 388 l 145 323 l 153 100 q 428 113 288 100 q 641 132 568 126 q 795 138 713 138 q 779 87 795 111 q 720 61 746 43 q 294 20 481 35 q 41 0 106 5 l 46 865 q 176 854 81 854 l 479 861 m 258 913 q 225 959 225 913 q 293 1004 225 975 q 332 991 321 1004 q 342 960 342 979 q 334 932 342 941 q 313 920 326 924 q 258 913 297 913 m 453 913 q 420 959 420 913 q 490 1004 420 977 q 538 958 538 1004 q 481 914 538 916 q 453 913 467 913 z "},"Ì":{"ha":210,"x_min":11,"x_max":152,"o":"m 142 22 q 110 -1 142 -1 q 52 22 85 -1 q 35 197 35 58 q 38 425 35 335 q 43 591 41 515 q 52 766 52 757 q 117 789 91 789 q 142 766 142 789 l 142 22 m 11 994 q 31 1032 11 1032 q 61 1013 43 1032 l 152 925 l 129 867 q 23 955 39 928 q 14 977 18 966 q 11 994 11 987 z "},"Í":{"ha":210,"x_min":16,"x_max":176,"o":"m 142 22 q 110 -1 142 -1 q 52 22 85 -1 q 35 197 35 58 q 38 425 35 335 q 43 591 41 515 q 52 766 52 757 q 117 789 91 789 q 142 766 142 789 l 142 22 m 110 964 q 151 990 129 990 q 171 977 164 990 q 176 952 178 964 q 170 929 175 940 q 152 903 164 918 q 58 819 129 878 l 16 857 l 110 964 z "},"Î":{"ha":210,"x_min":-77,"x_max":305,"o":"m 142 22 q 110 -1 142 -1 q 52 22 85 -1 q 35 197 35 58 q 38 425 35 335 q 43 591 41 515 q 52 766 52 757 q 117 789 91 789 q 142 766 142 789 l 142 22 m -22 827 q -62 834 -46 827 q -77 867 -77 841 q -63 917 -77 892 q -23 968 -49 941 q 118 1067 34 1028 q 210 1004 187 1023 q 297 894 248 970 q 305 863 305 878 q 300 841 305 849 q 251 840 285 819 q 192 884 201 876 q 167 910 183 892 q 109 968 151 928 q -4 863 26 911 q -22 827 -14 846 z "},"Ï":{"ha":210,"x_min":-64,"x_max":250,"o":"m 142 22 q 110 -1 142 -1 q 52 22 85 -1 q 35 197 35 58 q 38 425 35 335 q 43 591 41 515 q 52 766 52 757 q 117 789 91 789 q 142 766 142 789 l 142 22 m -31 852 q -64 898 -64 852 q 4 943 -64 914 q 43 930 33 943 q 53 899 53 918 q 45 871 53 880 q 24 859 37 863 q -31 852 8 852 m 164 852 q 132 898 132 852 q 201 943 132 916 q 250 897 250 943 q 193 853 250 854 q 164 852 178 852 z "},"Ð":{"ha":947,"x_min":14,"x_max":914,"o":"m 81 263 q 14 297 14 263 q 29 323 14 316 q 58 332 45 330 q 79 334 71 334 q 99 338 88 335 l 99 865 l 117 865 q 168 855 149 865 q 189 833 186 845 q 454 868 289 868 q 871 719 758 868 q 913 574 913 662 q 914 533 914 563 q 892 450 914 503 q 824 343 869 397 q 716 241 779 289 q 585 152 654 193 q 445 81 515 111 q 161 9 279 9 q 99 19 125 9 l 99 263 l 81 263 m 213 743 l 213 355 q 305 368 258 363 q 377 336 362 368 q 374 311 382 324 q 342 290 366 298 l 213 275 l 213 96 q 450 165 308 96 q 789 449 697 288 q 822 563 822 506 q 686 742 807 685 q 454 785 595 785 q 213 743 313 785 z "},"Ñ":{"ha":871,"x_min":34,"x_max":825,"o":"m 825 479 q 791 -4 825 66 l 692 4 q 441 366 617 133 q 303 549 372 458 q 178 730 235 640 q 151 247 151 609 q 145 14 151 109 q 89 -11 119 -11 q 46 -5 58 -11 q 34 16 34 1 q 37 60 34 30 q 45 163 41 91 q 54 315 50 235 q 65 675 65 524 q 62 924 65 826 q 109 963 92 951 q 145 962 125 975 q 197 907 165 949 q 288 780 229 864 q 680 248 487 496 l 705 924 q 735 961 720 951 q 774 971 750 971 q 822 884 822 971 l 821 834 l 825 479 m 331 1111 q 214 1001 288 1111 q 188 1006 206 1001 q 165 1029 170 1012 q 227 1145 186 1095 q 312 1213 267 1195 q 336 1217 323 1217 q 370 1202 350 1217 q 414 1162 389 1188 q 464 1114 438 1137 q 519 1090 490 1090 q 565 1100 548 1090 q 596 1127 582 1109 q 627 1171 610 1145 q 675 1229 644 1196 q 692 1215 684 1229 q 702 1190 701 1200 q 703 1165 703 1180 q 692 1126 703 1150 q 659 1077 682 1101 q 515 1013 600 1013 q 415 1055 453 1013 q 369 1095 388 1080 q 331 1111 350 1111 z "},"Ò":{"ha":930,"x_min":30,"x_max":887,"o":"m 62 228 q 30 400 30 301 q 62 576 30 499 q 149 708 94 652 q 445 823 267 823 q 751 738 631 823 q 887 458 887 640 q 783 126 887 233 q 460 19 680 19 q 62 228 155 19 m 141 427 q 464 107 141 107 q 722 202 623 107 q 821 448 821 296 q 703 665 821 590 q 449 730 602 730 q 233 642 327 730 q 141 427 141 553 m 382 1012 q 403 1050 382 1050 q 433 1031 415 1050 l 524 943 l 500 884 q 395 972 411 945 q 386 994 389 983 q 382 1012 382 1005 z "},"Ó":{"ha":930,"x_min":30,"x_max":887,"o":"m 62 228 q 30 400 30 301 q 62 576 30 499 q 149 708 94 652 q 445 823 267 823 q 751 738 631 823 q 887 458 887 640 q 783 126 887 233 q 460 19 680 19 q 62 228 155 19 m 141 427 q 464 107 141 107 q 722 202 623 107 q 821 448 821 296 q 703 665 821 590 q 449 730 602 730 q 233 642 327 730 q 141 427 141 553 m 487 1023 q 528 1048 506 1048 q 548 1036 541 1048 q 553 1010 555 1023 q 547 987 552 998 q 529 962 541 977 q 435 878 506 936 l 393 916 l 487 1023 z "},"Ô":{"ha":930,"x_min":30,"x_max":887,"o":"m 62 228 q 30 400 30 301 q 62 576 30 499 q 149 708 94 652 q 445 823 267 823 q 751 738 631 823 q 887 458 887 640 q 783 126 887 233 q 460 19 680 19 q 62 228 155 19 m 141 427 q 464 107 141 107 q 722 202 623 107 q 821 448 821 296 q 703 665 821 590 q 449 730 602 730 q 233 642 327 730 q 141 427 141 553 m 332 836 q 292 842 308 836 q 277 875 277 849 q 291 925 277 901 q 331 977 305 949 q 472 1076 388 1036 q 564 1012 541 1031 q 651 902 602 978 q 659 871 659 886 q 654 849 659 857 q 605 848 639 827 q 546 892 555 884 q 521 918 537 901 q 463 977 505 936 q 350 871 380 920 q 332 836 340 854 z "},"Õ":{"ha":930,"x_min":30,"x_max":887,"o":"m 62 228 q 30 400 30 301 q 62 576 30 499 q 149 708 94 652 q 445 823 267 823 q 751 738 631 823 q 887 458 887 640 q 783 126 887 233 q 460 19 680 19 q 62 228 155 19 m 141 427 q 464 107 141 107 q 722 202 623 107 q 821 448 821 296 q 703 665 821 590 q 449 730 602 730 q 233 642 327 730 q 141 427 141 553 m 399 966 q 282 856 355 966 q 256 861 274 856 q 233 884 237 867 q 294 1000 254 949 q 380 1067 335 1050 q 404 1072 391 1072 q 437 1057 418 1072 q 481 1017 457 1043 q 532 968 506 991 q 587 945 557 945 q 633 955 616 945 q 664 982 650 964 q 695 1025 678 1000 q 743 1084 712 1051 q 760 1069 751 1084 q 770 1045 769 1055 q 770 1020 770 1035 q 760 981 770 1005 q 727 932 750 956 q 583 868 667 868 q 483 910 521 868 q 437 950 456 935 q 399 966 418 966 z "},"Ö":{"ha":930,"x_min":30,"x_max":887,"o":"m 62 228 q 30 400 30 301 q 62 576 30 499 q 149 708 94 652 q 445 823 267 823 q 751 738 631 823 q 887 458 887 640 q 783 126 887 233 q 460 19 680 19 q 62 228 155 19 m 141 427 q 464 107 141 107 q 722 202 623 107 q 821 448 821 296 q 703 665 821 590 q 449 730 602 730 q 233 642 327 730 q 141 427 141 553 m 342 876 q 309 922 309 876 q 377 967 309 939 q 416 955 406 967 q 426 924 426 943 q 418 896 426 905 q 397 883 410 887 q 342 876 381 876 m 537 876 q 505 922 505 876 q 574 967 505 940 q 623 921 623 967 q 566 878 623 879 q 537 876 551 876 z "},"×":{"ha":654,"x_min":103,"x_max":556,"o":"m 338 283 q 176 102 208 127 q 132 114 148 102 q 111 133 115 126 q 214 248 170 191 q 269 324 258 304 q 188 414 221 376 q 129 479 155 452 q 103 509 103 507 l 160 571 q 226 488 205 517 q 260 442 247 460 q 323 374 283 411 q 353 417 336 392 q 388 469 369 442 q 467 576 430 532 q 503 561 490 576 q 515 530 515 545 q 457 433 490 475 q 410 372 425 392 q 388 328 396 353 q 529 184 450 283 q 556 149 548 161 q 539 119 556 136 q 517 99 522 102 q 477 132 498 109 q 434 182 457 155 q 338 283 376 255 z "},"Ø":{"ha":930,"x_min":30,"x_max":887,"o":"m 62 228 q 30 400 30 301 q 62 576 30 499 q 149 708 94 652 q 445 823 267 823 q 751 738 631 823 q 887 458 887 640 q 783 126 887 233 q 460 19 680 19 q 62 228 155 19 m 141 427 q 464 107 141 107 q 722 202 623 107 q 821 448 821 296 q 703 665 821 590 q 449 730 602 730 q 233 642 327 730 q 141 427 141 553 m 175 -45 q 151 -1 151 -45 l 151 12 q 686 845 171 72 q 716 890 712 884 q 723 871 723 886 q 707 808 723 856 q 648 671 690 761 q 545 475 605 582 q 419 267 484 369 q 175 -45 269 34 z "},"Ù":{"ha":780,"x_min":27,"x_max":724,"o":"m 713 22 q 671 -3 713 -3 q 634 3 651 -3 q 613 14 617 9 l 627 187 q 445 53 502 80 q 262 8 355 8 q 225 9 244 8 q 27 263 27 31 q 81 623 27 369 q 104 766 99 701 q 122 768 109 768 q 138 768 122 768 q 151 769 145 769 q 194 704 194 769 q 176 593 194 659 q 122 290 122 374 q 168 152 122 202 q 262 113 198 119 q 278 113 270 113 q 568 326 499 113 q 616 627 609 450 q 623 788 620 708 q 663 829 637 829 q 720 806 689 829 q 724 651 724 727 l 711 133 q 713 22 711 77 m 308 943 q 328 981 308 981 q 358 962 340 981 l 449 873 l 426 815 q 320 903 336 876 q 311 925 315 914 q 308 943 308 936 z "},"Ú":{"ha":780,"x_min":27,"x_max":724,"o":"m 713 22 q 671 -3 713 -3 q 634 3 651 -3 q 613 14 617 9 l 627 187 q 445 53 502 80 q 262 8 355 8 q 225 9 244 8 q 27 263 27 31 q 81 623 27 369 q 104 766 99 701 q 122 768 109 768 q 138 768 122 768 q 151 769 145 769 q 194 704 194 769 q 176 593 194 659 q 122 290 122 374 q 168 152 122 202 q 262 113 198 119 q 278 113 270 113 q 568 326 499 113 q 616 627 609 450 q 623 788 620 708 q 663 829 637 829 q 720 806 689 829 q 724 651 724 727 l 711 133 q 713 22 711 77 m 430 1013 q 471 1039 449 1039 q 491 1026 484 1039 q 496 1001 498 1013 q 490 978 495 989 q 472 952 484 967 q 378 868 449 926 l 336 906 l 430 1013 z "},"Û":{"ha":780,"x_min":27,"x_max":724,"o":"m 713 22 q 671 -3 713 -3 q 634 3 651 -3 q 613 14 617 9 l 627 187 q 445 53 502 80 q 262 8 355 8 q 225 9 244 8 q 27 263 27 31 q 81 623 27 369 q 104 766 99 701 q 122 768 109 768 q 138 768 122 768 q 151 769 145 769 q 194 704 194 769 q 176 593 194 659 q 122 290 122 374 q 168 152 122 202 q 262 113 198 119 q 278 113 270 113 q 568 326 499 113 q 616 627 609 450 q 623 788 620 708 q 663 829 637 829 q 720 806 689 829 q 724 651 724 727 l 711 133 q 713 22 711 77 m 275 864 q 235 871 251 864 q 220 903 220 878 q 234 954 220 929 q 274 1005 248 978 q 415 1104 331 1065 q 507 1040 484 1059 q 594 930 545 1006 q 602 900 602 914 q 597 878 602 886 q 548 876 582 856 q 489 921 498 913 q 464 947 480 929 q 406 1005 448 964 q 293 899 323 948 q 275 864 283 883 z "},"Ü":{"ha":780,"x_min":27,"x_max":724,"o":"m 713 22 q 671 -3 713 -3 q 634 3 651 -3 q 613 14 617 9 l 627 187 q 445 53 502 80 q 262 8 355 8 q 225 9 244 8 q 27 263 27 31 q 81 623 27 369 q 104 766 99 701 q 122 768 109 768 q 138 768 122 768 q 151 769 145 769 q 194 704 194 769 q 176 593 194 659 q 122 290 122 374 q 168 152 122 202 q 262 113 198 119 q 278 113 270 113 q 568 326 499 113 q 616 627 609 450 q 623 788 620 708 q 663 829 637 829 q 720 806 689 829 q 724 651 724 727 l 711 133 q 713 22 711 77 m 279 884 q 247 930 247 884 q 315 975 247 947 q 353 963 343 975 q 363 932 363 951 q 355 904 363 913 q 335 891 347 895 q 279 884 319 884 m 475 884 q 442 930 442 884 q 511 975 442 948 q 560 929 560 975 q 503 886 560 887 q 475 884 488 884 z "},"Ý":{"ha":742,"x_min":38,"x_max":719,"o":"m 377 -24 q 331 -11 355 -24 q 293 39 283 18 q 335 153 309 68 l 372 275 q 410 404 391 334 l 47 773 q 38 795 38 785 q 49 810 38 804 q 92 818 66 818 q 143 810 117 818 q 209 769 170 802 q 463 494 286 704 q 578 794 543 727 q 634 881 613 861 q 672 902 655 901 q 701 901 689 903 q 719 882 713 898 q 638 679 677 792 q 559 445 600 566 q 377 -24 452 125 m 435 1040 q 476 1066 454 1066 q 496 1053 490 1066 q 502 1028 503 1040 q 495 1005 500 1016 q 477 979 490 994 q 384 895 454 954 l 342 933 l 435 1040 z "},"Þ":{"ha":703,"x_min":45,"x_max":684,"o":"m 144 34 q 104 1 144 1 l 81 7 q 61 28 68 14 l 46 918 q 45 937 45 924 q 60 963 45 951 q 97 975 76 975 q 136 964 118 975 q 149 932 153 952 l 156 594 q 369 773 241 707 q 530 821 458 821 q 656 754 614 821 q 684 644 684 711 q 658 524 684 576 q 589 425 632 472 q 491 338 547 377 q 258 231 377 258 q 193 222 220 222 q 149 225 167 222 l 144 34 m 160 334 q 199 313 160 313 q 307 340 245 313 q 418 403 368 366 q 605 617 537 488 q 495 703 586 703 q 365 663 431 703 q 180 467 233 586 q 160 387 160 419 q 160 346 160 355 q 160 334 160 336 z "},"ß":{"ha":987,"x_min":99,"x_max":917,"o":"m 302 834 q 178 811 191 834 l 198 -197 l 106 -197 q 121 31 121 -102 q 116 291 121 163 q 105 553 111 419 q 99 743 99 688 l 99 812 q 142 879 99 850 q 226 905 167 895 q 335 916 285 916 q 450 911 385 916 q 591 880 514 906 q 709 817 669 854 q 749 739 749 779 q 668 619 749 680 q 426 503 587 559 q 854 412 739 486 q 917 319 917 373 q 817 171 917 245 q 532 30 704 87 q 362 -12 448 1 l 353 94 q 607 153 509 115 q 747 231 705 191 q 788 305 788 270 q 723 387 788 355 q 471 431 631 431 q 290 419 391 431 l 285 562 q 612 720 612 629 q 496 814 612 784 q 331 834 419 834 l 302 834 z "},"à":{"ha":707,"x_min":24,"x_max":680,"o":"m 570 225 q 298 27 468 65 q 227 19 259 19 q 174 20 195 19 q 127 26 153 20 q 80 43 102 31 q 30 123 30 72 q 24 178 24 148 q 38 259 24 209 q 87 368 52 309 q 175 475 123 426 q 407 608 282 578 q 474 616 444 616 q 529 612 505 616 q 635 505 608 612 q 656 315 652 437 q 663 128 659 194 q 680 8 666 62 l 600 8 q 591 73 594 45 q 586 126 589 102 q 570 225 579 183 m 564 435 q 487 514 564 514 q 468 515 477 515 q 259 420 369 515 q 171 323 208 377 q 117 184 117 245 q 209 90 117 104 q 442 201 331 92 q 521 304 490 248 q 564 435 564 378 m 285 798 q 305 836 285 836 q 335 817 317 836 l 426 728 l 403 670 q 297 758 313 731 q 288 780 292 769 q 285 798 285 791 z "},"á":{"ha":707,"x_min":24,"x_max":680,"o":"m 570 225 q 298 27 468 65 q 227 19 259 19 q 174 20 195 19 q 127 26 153 20 q 80 43 102 31 q 30 123 30 72 q 24 178 24 148 q 38 259 24 209 q 87 368 52 309 q 175 475 123 426 q 407 608 282 578 q 474 616 444 616 q 529 612 505 616 q 635 505 608 612 q 656 315 652 437 q 663 128 659 194 q 680 8 666 62 l 600 8 q 591 73 594 45 q 586 126 589 102 q 570 225 579 183 m 564 435 q 487 514 564 514 q 468 515 477 515 q 259 420 369 515 q 171 323 208 377 q 117 184 117 245 q 209 90 117 104 q 442 201 331 92 q 521 304 490 248 q 564 435 564 378 m 366 821 q 407 846 385 846 q 427 833 420 846 q 433 808 434 821 q 426 785 431 796 q 408 760 420 774 q 315 675 385 734 l 273 713 l 366 821 z "},"â":{"ha":707,"x_min":24,"x_max":680,"o":"m 570 225 q 298 27 468 65 q 227 19 259 19 q 174 20 195 19 q 127 26 153 20 q 80 43 102 31 q 30 123 30 72 q 24 178 24 148 q 38 259 24 209 q 87 368 52 309 q 175 475 123 426 q 407 608 282 578 q 474 616 444 616 q 529 612 505 616 q 635 505 608 612 q 656 315 652 437 q 663 128 659 194 q 680 8 666 62 l 600 8 q 591 73 594 45 q 586 126 589 102 q 570 225 579 183 m 564 435 q 487 514 564 514 q 468 515 477 515 q 259 420 369 515 q 171 323 208 377 q 117 184 117 245 q 209 90 117 104 q 442 201 331 92 q 521 304 490 248 q 564 435 564 378 m 210 692 q 170 699 186 692 q 155 731 155 705 q 169 781 155 757 q 209 833 183 806 q 350 932 266 892 q 442 868 419 887 q 529 758 480 834 q 537 728 537 742 q 532 705 537 713 q 483 704 517 684 q 424 749 433 741 q 399 774 415 757 q 340 833 382 792 q 228 727 258 776 q 210 692 218 711 z "},"ã":{"ha":707,"x_min":24,"x_max":680,"o":"m 570 225 q 298 27 468 65 q 227 19 259 19 q 174 20 195 19 q 127 26 153 20 q 80 43 102 31 q 30 123 30 72 q 24 178 24 148 q 38 259 24 209 q 87 368 52 309 q 175 475 123 426 q 407 608 282 578 q 474 616 444 616 q 529 612 505 616 q 635 505 608 612 q 656 315 652 437 q 663 128 659 194 q 680 8 666 62 l 600 8 q 591 73 594 45 q 586 126 589 102 q 570 225 579 183 m 564 435 q 487 514 564 514 q 468 515 477 515 q 259 420 369 515 q 171 323 208 377 q 117 184 117 245 q 209 90 117 104 q 442 201 331 92 q 521 304 490 248 q 564 435 564 378 m 240 769 q 123 659 197 769 q 97 665 115 659 q 75 688 79 670 q 136 803 95 753 q 221 871 176 853 q 245 875 232 875 q 279 861 259 875 q 323 821 298 846 q 373 772 347 795 q 428 749 399 749 q 474 758 457 749 q 505 785 491 768 q 536 829 519 803 q 585 887 553 854 q 602 873 593 887 q 611 848 610 859 q 612 823 612 838 q 602 784 612 808 q 568 735 591 760 q 425 671 509 671 q 324 713 362 671 q 278 753 297 738 q 240 769 259 769 z "},"ä":{"ha":707,"x_min":24,"x_max":680,"o":"m 570 225 q 298 27 468 65 q 227 19 259 19 q 174 20 195 19 q 127 26 153 20 q 80 43 102 31 q 30 123 30 72 q 24 178 24 148 q 38 259 24 209 q 87 368 52 309 q 175 475 123 426 q 407 608 282 578 q 474 616 444 616 q 529 612 505 616 q 635 505 608 612 q 656 315 652 437 q 663 128 659 194 q 680 8 666 62 l 600 8 q 591 73 594 45 q 586 126 589 102 q 570 225 579 183 m 564 435 q 487 514 564 514 q 468 515 477 515 q 259 420 369 515 q 171 323 208 377 q 117 184 117 245 q 209 90 117 104 q 442 201 331 92 q 521 304 490 248 q 564 435 564 378 m 228 810 q 195 856 195 810 q 263 901 195 872 q 302 888 292 901 q 312 857 312 876 q 304 829 312 838 q 283 817 296 821 q 228 810 267 810 m 423 810 q 391 856 391 810 q 460 901 391 873 q 509 854 509 901 q 452 811 509 812 q 423 810 437 810 z "},"å":{"ha":707,"x_min":24,"x_max":680,"o":"m 570 225 q 298 27 468 65 q 227 19 259 19 q 174 20 195 19 q 127 26 153 20 q 80 43 102 31 q 30 123 30 72 q 24 178 24 148 q 38 259 24 209 q 87 368 52 309 q 175 475 123 426 q 407 608 282 578 q 474 616 444 616 q 529 612 505 616 q 635 505 608 612 q 656 315 652 437 q 663 128 659 194 q 680 8 666 62 l 600 8 q 591 73 594 45 q 586 126 589 102 q 570 225 579 183 m 564 435 q 487 514 564 514 q 468 515 477 515 q 259 420 369 515 q 171 323 208 377 q 117 184 117 245 q 209 90 117 104 q 442 201 331 92 q 521 304 490 248 q 564 435 564 378 m 303 536 q 289 546 303 536 q 263 576 275 556 q 251 633 251 597 q 267 696 251 669 q 349 741 294 741 q 415 724 384 741 q 484 628 479 690 q 456 538 484 560 q 373 515 427 515 q 303 536 331 515 m 420 651 q 354 682 391 682 q 304 642 312 682 q 304 625 304 637 q 320 586 304 612 q 372 563 349 563 q 429 604 419 563 q 429 621 429 610 q 420 651 429 632 z "},"æ":{"ha":1283,"x_min":24,"x_max":1274,"o":"m 570 225 q 298 27 468 65 q 227 19 259 19 q 174 20 195 19 q 127 26 153 20 q 80 43 102 31 q 30 123 30 72 q 24 178 24 148 q 38 259 24 209 q 87 368 52 309 q 175 475 123 426 q 407 608 282 578 q 474 616 444 616 q 529 612 505 616 q 635 505 608 612 q 656 315 652 437 q 663 128 659 194 q 680 8 666 62 l 600 8 q 591 73 594 45 q 586 126 589 102 q 570 225 579 183 m 564 435 q 487 514 564 514 q 468 515 477 515 q 259 420 369 515 q 171 323 208 377 q 117 184 117 245 q 209 90 117 104 q 442 201 331 92 q 521 304 490 248 q 564 435 564 378 m 880 73 q 1240 182 1000 73 q 1264 172 1255 182 q 1274 148 1274 161 q 1066 4 1219 56 q 780 -14 913 -47 q 597 156 629 26 q 594 225 594 182 q 616 340 594 269 q 693 475 639 411 q 821 575 747 538 q 977 612 894 612 q 1153 557 1055 612 q 1226 499 1199 532 q 1253 433 1253 467 q 1252 414 1253 423 q 1172 309 1249 331 q 1093 300 1138 300 l 898 308 q 749 266 800 308 q 707 197 719 243 q 880 73 741 73 m 1122 492 q 1107 503 1122 492 q 1059 524 1092 514 q 1005 533 1027 533 q 935 519 983 533 q 848 487 886 505 q 754 396 754 444 q 917 387 863 387 q 1120 412 1067 387 q 1153 446 1153 426 q 1122 492 1153 471 z "},"ç":{"ha":879,"x_min":30,"x_max":842,"o":"m 585 143 q 613 154 585 143 q 693 184 640 165 q 794 203 746 203 q 842 174 842 203 q 839 153 842 167 q 802 119 836 138 q 721 81 769 99 q 616 49 673 64 q 505 23 559 34 q 345 0 392 0 q 242 11 297 0 q 140 46 187 22 q 30 214 30 103 q 30 247 30 222 q 50 317 30 271 q 111 408 71 362 q 206 491 152 453 q 445 597 320 572 q 517 606 488 606 q 566 606 547 606 q 605 603 585 605 q 640 593 625 601 q 675 524 675 575 q 629 460 675 491 q 608 445 617 452 q 590 498 601 476 q 543 519 579 519 q 267 418 382 486 q 137 255 137 340 q 138 235 137 245 q 205 111 138 148 q 334 84 255 84 q 472 102 414 84 q 585 143 530 121 m 236 11 q 252 38 236 38 q 281 20 269 38 q 288 -3 293 1 q 289 -68 288 -39 q 315 -96 290 -96 q 379 -94 345 -94 q 450 -107 414 -94 q 505 -179 505 -129 q 441 -277 505 -233 q 313 -316 385 -316 q 235 -302 277 -316 q 231 -296 231 -302 q 231 -279 231 -289 q 233 -261 232 -270 q 231 -250 233 -252 q 267 -251 245 -251 q 324 -245 289 -251 q 392 -226 359 -239 q 441 -198 425 -213 q 400 -155 476 -165 q 355 -152 384 -152 q 283 -156 327 -152 q 237 -9 237 -156 q 236 11 236 3 z "},"è":{"ha":751,"x_min":27,"x_max":707,"o":"m 313 95 q 673 203 433 95 q 697 193 688 203 q 707 170 707 183 q 499 26 652 77 q 213 8 346 -26 q 30 178 62 47 q 27 247 27 203 q 50 361 27 290 q 126 496 72 433 q 254 597 180 560 q 410 633 327 633 q 586 579 488 633 q 659 521 632 553 q 686 454 686 488 q 685 435 686 445 q 605 331 682 353 q 526 321 571 321 l 331 330 q 182 288 233 330 q 140 218 152 264 q 313 95 174 95 m 555 514 q 540 525 555 514 q 492 545 525 536 q 438 555 460 555 q 368 541 416 555 q 281 509 319 526 q 187 418 187 465 q 350 408 296 408 q 553 434 500 408 q 586 468 586 448 q 555 514 586 492 m 307 798 q 327 836 307 836 q 357 817 339 836 l 448 728 l 425 670 q 319 758 335 731 q 310 780 313 769 q 307 798 307 791 z "},"é":{"ha":751,"x_min":27,"x_max":707,"o":"m 313 95 q 673 203 433 95 q 697 193 688 203 q 707 170 707 183 q 499 26 652 77 q 213 8 346 -26 q 30 178 62 47 q 27 247 27 203 q 50 361 27 290 q 126 496 72 433 q 254 597 180 560 q 410 633 327 633 q 586 579 488 633 q 659 521 632 553 q 686 454 686 488 q 685 435 686 445 q 605 331 682 353 q 526 321 571 321 l 331 330 q 182 288 233 330 q 140 218 152 264 q 313 95 174 95 m 555 514 q 540 525 555 514 q 492 545 525 536 q 438 555 460 555 q 368 541 416 555 q 281 509 319 526 q 187 418 187 465 q 350 408 296 408 q 553 434 500 408 q 586 468 586 448 q 555 514 586 492 m 388 821 q 429 846 407 846 q 449 833 442 846 q 454 808 456 821 q 448 785 453 796 q 430 760 442 774 q 336 675 407 734 l 294 713 l 388 821 z "},"ê":{"ha":751,"x_min":27,"x_max":707,"o":"m 313 95 q 673 203 433 95 q 697 193 688 203 q 707 170 707 183 q 499 26 652 77 q 213 8 346 -26 q 30 178 62 47 q 27 247 27 203 q 50 361 27 290 q 126 496 72 433 q 254 597 180 560 q 410 633 327 633 q 586 579 488 633 q 659 521 632 553 q 686 454 686 488 q 685 435 686 445 q 605 331 682 353 q 526 321 571 321 l 331 330 q 182 288 233 330 q 140 218 152 264 q 313 95 174 95 m 555 514 q 540 525 555 514 q 492 545 525 536 q 438 555 460 555 q 368 541 416 555 q 281 509 319 526 q 187 418 187 465 q 350 408 296 408 q 553 434 500 408 q 586 468 586 448 q 555 514 586 492 m 233 692 q 193 699 209 692 q 178 731 178 705 q 192 781 178 757 q 232 833 206 806 q 373 932 289 892 q 465 868 442 887 q 552 758 503 834 q 560 728 560 742 q 555 705 560 713 q 506 704 540 684 q 447 749 456 741 q 422 774 438 757 q 363 833 406 792 q 251 727 281 776 q 233 692 241 711 z "},"ë":{"ha":751,"x_min":27,"x_max":707,"o":"m 313 95 q 673 203 433 95 q 697 193 688 203 q 707 170 707 183 q 499 26 652 77 q 213 8 346 -26 q 30 178 62 47 q 27 247 27 203 q 50 361 27 290 q 126 496 72 433 q 254 597 180 560 q 410 633 327 633 q 586 579 488 633 q 659 521 632 553 q 686 454 686 488 q 685 435 686 445 q 605 331 682 353 q 526 321 571 321 l 331 330 q 182 288 233 330 q 140 218 152 264 q 313 95 174 95 m 555 514 q 540 525 555 514 q 492 545 525 536 q 438 555 460 555 q 368 541 416 555 q 281 509 319 526 q 187 418 187 465 q 350 408 296 408 q 553 434 500 408 q 586 468 586 448 q 555 514 586 492 m 251 810 q 218 856 218 810 q 286 901 218 872 q 325 888 315 901 q 335 857 335 876 q 327 829 335 838 q 307 817 319 821 q 251 810 290 810 m 446 810 q 414 856 414 810 q 483 901 414 873 q 532 854 532 901 q 475 811 532 812 q 446 810 460 810 z "},"ì":{"ha":210,"x_min":38,"x_max":189,"o":"m 189 50 q 167 19 184 28 q 138 9 149 9 q 118 8 127 8 q 93 14 109 8 q 73 31 77 20 l 73 637 l 159 637 q 189 50 176 384 m 38 868 q 58 906 38 906 q 88 887 71 906 l 179 799 l 156 741 q 52 829 66 802 q 41 850 45 840 q 38 868 38 861 z "},"í":{"ha":210,"x_min":45,"x_max":205,"o":"m 159 637 q 189 50 176 384 q 123 8 180 8 q 93 14 109 8 q 73 31 77 20 l 73 637 l 159 637 m 138 867 q 179 892 157 892 q 199 880 193 892 q 205 854 206 867 q 198 831 203 842 q 180 806 193 821 q 87 722 157 780 l 45 760 l 138 867 z "},"î":{"ha":210,"x_min":-92,"x_max":290,"o":"m 159 637 q 189 50 176 384 q 123 8 180 8 q 93 14 109 8 q 73 31 77 20 l 73 637 l 159 637 m -37 692 q -77 699 -61 692 q -92 731 -92 705 q -78 781 -92 757 q -38 833 -64 806 q 103 932 19 892 q 195 868 172 887 q 282 758 233 834 q 290 728 290 742 q 285 705 290 713 q 236 704 270 684 q 177 749 186 741 q 152 774 168 757 q 94 833 136 792 q -19 727 11 776 q -37 692 -28 711 z "},"ï":{"ha":210,"x_min":-52,"x_max":262,"o":"m 159 637 q 189 50 176 384 q 123 8 180 8 q 93 14 109 8 q 73 31 77 20 l 73 637 l 159 637 m -19 810 q -52 856 -52 810 q 16 901 -52 872 q 55 888 45 901 q 65 857 65 876 q 57 829 65 838 q 37 817 49 821 q -19 810 20 810 m 176 810 q 144 856 144 810 q 213 901 144 873 q 262 854 262 901 q 205 811 262 812 q 176 810 190 810 z "},"ð":{"ha":806,"x_min":69,"x_max":750,"o":"m 655 632 q 734 323 734 476 q 637 73 734 161 q 528 15 594 34 q 481 8 506 8 q 416 16 457 8 q 318 50 376 24 q 208 114 260 76 q 72 274 94 194 q 69 306 69 286 q 88 351 69 326 q 198 423 141 406 q 289 441 255 441 q 361 439 323 441 q 474 421 399 438 q 632 388 549 404 q 556 581 621 487 l 449 519 l 393 609 l 486 655 q 323 787 427 747 q 342 825 323 811 q 380 844 362 840 q 490 783 464 800 q 594 697 543 749 l 693 768 l 750 701 l 655 632 m 198 315 q 292 144 198 201 q 496 99 368 99 q 610 160 575 104 q 633 230 633 195 q 628 288 633 264 q 376 342 490 342 q 198 315 262 342 z "},"ñ":{"ha":694,"x_min":46,"x_max":655,"o":"m 566 297 q 548 534 566 458 q 515 555 559 555 q 396 532 469 555 q 277 486 323 509 q 155 382 167 433 l 155 14 l 64 14 q 46 273 46 60 q 54 552 46 463 q 65 654 61 642 q 122 677 100 677 q 156 597 156 677 q 153 536 156 566 q 149 496 149 507 q 490 658 369 658 q 646 437 627 658 q 654 222 654 359 l 652 115 q 655 0 652 56 q 633 -8 642 -8 q 616 -4 629 -7 q 581 0 602 -1 q 566 111 567 54 q 564 214 564 167 l 566 297 m 247 848 q 130 738 203 848 q 104 743 122 738 q 81 766 85 749 q 142 882 102 831 q 228 949 183 932 q 252 954 239 954 q 286 939 266 954 q 330 899 305 925 q 380 850 354 873 q 435 827 406 827 q 481 837 464 827 q 512 864 498 846 q 543 907 526 882 q 591 966 560 933 q 608 951 600 966 q 618 927 617 937 q 618 902 618 917 q 608 863 618 887 q 575 814 598 838 q 431 750 515 750 q 331 792 369 750 q 285 832 304 817 q 247 848 266 848 z "},"ò":{"ha":781,"x_min":71,"x_max":760,"o":"m 71 258 q 209 515 71 418 q 473 609 319 593 q 511 609 481 609 q 591 591 541 609 q 743 457 703 553 q 760 393 760 419 q 758 355 760 366 q 629 88 758 186 q 331 -1 510 -1 q 136 58 202 -1 q 71 258 71 118 m 164 225 q 209 111 164 141 q 323 90 243 90 q 464 102 403 90 q 572 144 525 114 q 674 346 674 209 q 631 479 674 427 q 506 534 583 534 q 399 514 453 525 q 298 472 346 503 q 164 225 195 406 m 321 798 q 342 836 321 836 q 372 817 354 836 l 463 728 l 439 670 q 334 758 350 731 q 325 780 328 769 q 321 798 321 791 z "},"ó":{"ha":781,"x_min":71,"x_max":760,"o":"m 71 258 q 209 515 71 418 q 473 609 319 593 q 511 609 481 609 q 591 591 541 609 q 743 457 703 553 q 760 393 760 419 q 758 355 760 366 q 629 88 758 186 q 331 -1 510 -1 q 136 58 202 -1 q 71 258 71 118 m 164 225 q 209 111 164 141 q 323 90 243 90 q 464 102 403 90 q 572 144 525 114 q 674 346 674 209 q 631 479 674 427 q 506 534 583 534 q 399 514 453 525 q 298 472 346 503 q 164 225 195 406 m 403 821 q 444 846 422 846 q 464 833 457 846 q 469 808 471 821 q 463 785 468 796 q 445 760 457 774 q 351 675 422 734 l 309 713 l 403 821 z "},"ô":{"ha":781,"x_min":71,"x_max":760,"o":"m 71 258 q 209 515 71 418 q 473 609 319 593 q 511 609 481 609 q 591 591 541 609 q 743 457 703 553 q 760 393 760 419 q 758 355 760 366 q 629 88 758 186 q 331 -1 510 -1 q 136 58 202 -1 q 71 258 71 118 m 164 225 q 209 111 164 141 q 323 90 243 90 q 464 102 403 90 q 572 144 525 114 q 674 346 674 209 q 631 479 674 427 q 506 534 583 534 q 399 514 453 525 q 298 472 346 503 q 164 225 195 406 m 248 692 q 208 699 224 692 q 193 731 193 705 q 207 781 193 757 q 247 833 221 806 q 388 932 304 892 q 480 868 457 887 q 567 758 518 834 q 575 728 575 742 q 570 705 575 713 q 521 704 555 684 q 462 749 471 741 q 437 774 453 757 q 378 833 420 792 q 266 727 296 776 q 248 692 256 711 z "},"õ":{"ha":781,"x_min":71,"x_max":760,"o":"m 71 258 q 209 515 71 418 q 473 609 319 593 q 511 609 481 609 q 591 591 541 609 q 743 457 703 553 q 760 393 760 419 q 758 355 760 366 q 629 88 758 186 q 331 -1 510 -1 q 136 58 202 -1 q 71 258 71 118 m 164 225 q 209 111 164 141 q 323 90 243 90 q 464 102 403 90 q 572 144 525 114 q 674 346 674 209 q 631 479 674 427 q 506 534 583 534 q 399 514 453 525 q 298 472 346 503 q 164 225 195 406 m 277 769 q 160 659 233 769 q 134 665 152 659 q 111 688 115 670 q 172 803 132 753 q 258 871 213 853 q 282 875 269 875 q 315 861 296 875 q 359 821 335 846 q 410 772 384 795 q 465 749 435 749 q 511 758 494 749 q 542 785 528 768 q 573 829 556 803 q 621 887 590 854 q 638 873 629 887 q 648 848 647 859 q 648 823 648 838 q 638 784 648 808 q 605 735 628 760 q 461 671 545 671 q 361 713 399 671 q 315 753 334 738 q 277 769 296 769 z "},"ö":{"ha":781,"x_min":71,"x_max":760,"o":"m 71 258 q 209 515 71 418 q 473 609 319 593 q 511 609 481 609 q 591 591 541 609 q 743 457 703 553 q 760 393 760 419 q 758 355 760 366 q 629 88 758 186 q 331 -1 510 -1 q 136 58 202 -1 q 71 258 71 118 m 164 225 q 209 111 164 141 q 323 90 243 90 q 464 102 403 90 q 572 144 525 114 q 674 346 674 209 q 631 479 674 427 q 506 534 583 534 q 399 514 453 525 q 298 472 346 503 q 164 225 195 406 m 266 810 q 233 856 233 810 q 301 901 233 872 q 340 888 330 901 q 350 857 350 876 q 342 829 350 838 q 321 817 334 821 q 266 810 305 810 m 461 810 q 429 856 429 810 q 498 901 429 873 q 547 854 547 901 q 490 811 547 812 q 461 810 475 810 z "},"÷":{"ha":477,"x_min":79,"x_max":444,"o":"m 232 184 q 250 224 232 205 q 292 243 269 243 q 327 228 315 243 q 339 196 339 213 q 326 165 339 179 q 302 151 313 151 q 283 151 292 151 q 253 157 274 151 q 232 184 232 164 m 189 445 q 170 465 170 450 q 190 499 170 486 q 222 514 210 513 q 276 493 264 509 q 288 468 288 477 q 252 431 288 439 q 233 429 247 429 q 189 445 218 429 m 146 293 q 79 328 79 293 q 94 353 79 346 q 149 365 110 359 q 246 381 187 370 q 370 399 305 392 q 416 389 397 399 q 444 357 444 376 q 437 339 444 350 q 407 320 431 328 l 146 293 z "},"ø":{"ha":781,"x_min":71,"x_max":760,"o":"m 71 258 q 209 515 71 418 q 473 609 319 593 q 511 609 481 609 q 591 591 541 609 q 743 457 703 553 q 760 393 760 419 q 758 355 760 366 q 629 88 758 186 q 331 -1 510 -1 q 136 58 202 -1 q 71 258 71 118 m 164 225 q 209 111 164 141 q 323 90 243 90 q 464 102 403 90 q 572 144 525 114 q 674 346 674 209 q 631 479 674 427 q 506 534 583 534 q 399 514 453 525 q 298 472 346 503 q 164 225 195 406 m 171 -52 q 150 -17 150 -52 l 150 -6 q 620 666 168 42 q 646 702 642 697 q 652 686 652 698 q 638 636 652 674 q 586 526 623 598 q 495 368 548 454 q 385 200 442 282 q 171 -52 253 12 z "},"ù":{"ha":705,"x_min":18,"x_max":663,"o":"m 30 180 q 26 241 30 202 q 20 326 23 279 q 18 419 18 372 q 26 506 18 467 q 99 594 43 594 q 150 567 137 583 q 163 527 163 551 q 151 468 163 503 q 106 255 106 350 q 110 189 106 224 q 259 98 132 98 q 385 121 326 98 q 540 220 499 163 q 552 329 552 282 q 549 412 552 376 q 541 493 545 449 q 534 590 536 537 q 569 598 552 598 q 604 581 586 598 q 635 514 623 563 q 652 399 648 465 q 657 263 656 334 q 658 127 658 193 q 663 14 658 61 q 632 -1 647 -1 q 552 107 578 -1 q 492 71 534 92 q 281 5 403 22 q 229 3 258 3 q 158 14 201 3 q 77 64 115 24 q 30 180 39 103 m 283 798 q 304 836 283 836 q 334 817 316 836 l 425 728 l 401 670 q 296 758 312 731 q 287 780 290 769 q 283 798 283 791 z "},"ú":{"ha":705,"x_min":18,"x_max":663,"o":"m 30 180 q 26 241 30 202 q 20 326 23 279 q 18 419 18 372 q 26 506 18 467 q 99 594 43 594 q 150 567 137 583 q 163 527 163 551 q 151 468 163 503 q 106 255 106 350 q 110 189 106 224 q 259 98 132 98 q 385 121 326 98 q 540 220 499 163 q 552 329 552 282 q 549 412 552 376 q 541 493 545 449 q 534 590 536 537 q 569 598 552 598 q 604 581 586 598 q 635 514 623 563 q 652 399 648 465 q 657 263 656 334 q 658 127 658 193 q 663 14 658 61 q 632 -1 647 -1 q 552 107 578 -1 q 492 71 534 92 q 281 5 403 22 q 229 3 258 3 q 158 14 201 3 q 77 64 115 24 q 30 180 39 103 m 365 821 q 406 846 384 846 q 426 833 419 846 q 431 808 433 821 q 425 785 430 796 q 407 760 419 774 q 313 675 384 734 l 271 713 l 365 821 z "},"û":{"ha":705,"x_min":18,"x_max":663,"o":"m 30 180 q 26 241 30 202 q 20 326 23 279 q 18 419 18 372 q 26 506 18 467 q 99 594 43 594 q 150 567 137 583 q 163 527 163 551 q 151 468 163 503 q 106 255 106 350 q 110 189 106 224 q 259 98 132 98 q 385 121 326 98 q 540 220 499 163 q 552 329 552 282 q 549 412 552 376 q 541 493 545 449 q 534 590 536 537 q 569 598 552 598 q 604 581 586 598 q 635 514 623 563 q 652 399 648 465 q 657 263 656 334 q 658 127 658 193 q 663 14 658 61 q 632 -1 647 -1 q 552 107 578 -1 q 492 71 534 92 q 281 5 403 22 q 229 3 258 3 q 158 14 201 3 q 77 64 115 24 q 30 180 39 103 m 210 692 q 170 699 186 692 q 155 731 155 705 q 169 781 155 757 q 209 833 183 806 q 350 932 266 892 q 442 868 419 887 q 529 758 480 834 q 537 728 537 742 q 532 705 537 713 q 483 704 517 684 q 424 749 433 741 q 399 774 415 757 q 340 833 382 792 q 228 727 258 776 q 210 692 218 711 z "},"ü":{"ha":705,"x_min":18,"x_max":663,"o":"m 30 180 q 26 241 30 202 q 20 326 23 279 q 18 419 18 372 q 26 506 18 467 q 99 594 43 594 q 150 567 137 583 q 163 527 163 551 q 151 468 163 503 q 106 255 106 350 q 110 189 106 224 q 259 98 132 98 q 385 121 326 98 q 540 220 499 163 q 552 329 552 282 q 549 412 552 376 q 541 493 545 449 q 534 590 536 537 q 569 598 552 598 q 604 581 586 598 q 635 514 623 563 q 652 399 648 465 q 657 263 656 334 q 658 127 658 193 q 663 14 658 61 q 632 -1 647 -1 q 552 107 578 -1 q 492 71 534 92 q 281 5 403 22 q 229 3 258 3 q 158 14 201 3 q 77 64 115 24 q 30 180 39 103 m 228 810 q 195 856 195 810 q 263 901 195 872 q 302 888 292 901 q 312 857 312 876 q 304 829 312 838 q 283 817 296 821 q 228 810 267 810 m 423 810 q 391 856 391 810 q 460 901 391 873 q 509 854 509 901 q 452 811 509 812 q 423 810 437 810 z "},"ý":{"ha":762,"x_min":30,"x_max":738,"o":"m 323 -511 q 255 -575 294 -575 q 227 -558 236 -575 q 227 -518 218 -541 q 313 -231 256 -392 q 388 -14 369 -69 q 239 176 340 34 q 30 498 30 469 q 31 500 30 499 l 83 552 q 362 216 190 453 q 431 115 406 156 q 476 214 460 172 q 503 280 492 255 q 530 347 513 305 q 658 633 576 460 q 684 639 670 639 q 732 621 718 639 q 738 606 738 614 q 735 589 738 597 l 323 -511 m 393 821 q 434 846 412 846 q 454 833 448 846 q 460 808 461 821 q 453 785 458 796 q 435 760 448 774 q 342 675 412 734 l 300 713 l 393 821 z "},"þ":{"ha":720,"x_min":33,"x_max":692,"o":"m 155 39 l 153 -24 q 159 -106 153 -64 q 160 -125 160 -117 q 139 -177 160 -160 q 98 -194 118 -194 q 68 -193 77 -194 l 33 789 q 79 802 64 802 q 104 781 95 802 q 129 570 123 746 q 438 624 308 624 q 666 543 609 624 q 692 461 692 506 q 651 338 692 400 q 541 225 610 277 q 153 87 382 110 q 155 39 155 62 m 526 528 q 429 545 480 545 q 328 536 378 545 q 160 439 214 514 q 136 353 136 404 q 136 342 136 347 l 142 178 q 537 334 419 240 q 602 439 602 387 q 526 528 602 498 z "},"ÿ":{"ha":762,"x_min":30,"x_max":738,"o":"m 323 -511 q 255 -575 294 -575 q 227 -558 236 -575 q 227 -518 218 -541 q 313 -231 256 -392 q 388 -14 369 -69 q 239 176 340 34 q 30 498 30 469 q 31 500 30 499 l 83 552 q 362 216 190 453 q 431 115 406 156 q 476 214 460 172 q 503 280 492 255 q 530 347 513 305 q 658 633 576 460 q 684 639 670 639 q 732 621 718 639 q 738 606 738 614 q 735 589 738 597 l 323 -511 m 256 810 q 224 856 224 810 q 292 901 224 872 q 330 888 320 901 q 340 857 340 876 q 332 829 340 838 q 312 817 324 821 q 256 810 296 810 m 452 810 q 419 856 419 810 q 488 901 419 873 q 537 854 537 901 q 480 811 537 812 q 452 810 465 810 z "},"Ā":{"ha":890,"x_min":35,"x_max":865,"o":"m 745 496 l 783 496 q 827 492 806 496 q 848 463 848 488 q 784 410 857 408 q 747 412 764 411 q 719 413 730 414 q 709 406 708 412 q 739 317 723 366 q 773 220 754 269 q 865 46 822 99 q 812 -1 842 18 q 779 -20 781 -20 q 776 -19 777 -20 l 585 384 l 214 293 l 201 236 q 113 19 161 80 q 79 16 104 5 q 35 43 35 33 q 64 122 35 46 q 121 276 92 198 q 182 439 151 354 q 243 602 214 525 q 294 741 271 680 q 327 831 317 803 q 340 880 336 859 q 350 916 343 901 q 418 947 363 947 q 508 862 476 914 q 562 750 540 810 q 606 629 585 690 q 665 518 628 568 q 701 498 677 499 q 745 496 726 496 m 406 789 q 357 620 395 707 q 296 485 319 533 q 256 396 273 437 q 483 450 349 396 q 548 477 517 465 q 406 789 484 750 m 293 977 q 225 1010 225 977 q 241 1036 225 1029 q 295 1048 256 1043 q 393 1064 334 1054 q 517 1081 452 1074 q 589 1050 574 1081 q 590 1038 590 1044 q 584 1022 590 1032 q 553 1004 578 1012 l 293 977 z "},"ā":{"ha":707,"x_min":24,"x_max":680,"o":"m 570 225 q 298 27 468 65 q 227 19 259 19 q 174 20 195 19 q 127 26 153 20 q 80 43 102 31 q 30 123 30 72 q 24 178 24 148 q 38 259 24 209 q 87 368 52 309 q 175 475 123 426 q 407 608 282 578 q 474 616 444 616 q 529 612 505 616 q 635 505 608 612 q 656 315 652 437 q 663 128 659 194 q 680 8 666 62 l 600 8 q 591 73 594 45 q 586 126 589 102 q 570 225 579 183 m 564 435 q 487 514 564 514 q 468 515 477 515 q 259 420 369 515 q 171 323 208 377 q 117 184 117 245 q 209 90 117 104 q 442 201 331 92 q 521 304 490 248 q 564 435 564 378 m 224 724 q 156 758 156 724 q 172 784 156 777 q 226 796 187 791 q 323 812 264 802 q 448 829 382 822 q 519 798 505 829 q 521 786 521 792 q 515 770 521 780 q 484 751 509 760 l 224 724 z "},"Ă":{"ha":890,"x_min":45,"x_max":875,"o":"m 754 496 l 792 496 q 836 492 815 496 q 857 463 857 488 q 793 410 867 408 q 756 412 773 411 q 728 413 739 414 q 719 406 718 412 q 748 317 732 366 q 783 220 764 269 q 875 46 831 99 q 821 -1 852 18 q 789 -20 791 -20 q 785 -19 787 -20 l 594 384 l 224 293 l 210 236 q 122 19 171 80 q 88 16 114 5 q 45 43 45 33 q 73 122 45 46 q 131 276 102 198 q 192 439 160 354 q 252 602 224 525 q 304 741 281 680 q 336 831 327 803 q 349 880 346 859 q 359 916 353 901 q 427 947 373 947 q 517 862 486 914 q 572 750 549 810 q 616 629 594 690 q 674 518 637 568 q 711 498 686 499 q 754 496 735 496 m 415 789 q 366 620 404 707 q 305 485 328 533 q 266 396 282 437 q 492 450 358 396 q 557 477 526 465 q 415 789 494 750 m 260 1048 q 245 1065 260 1048 q 229 1112 229 1082 q 243 1145 229 1141 q 277 1149 256 1149 q 304 1092 282 1105 q 338 1078 326 1078 q 368 1080 351 1078 q 409 1099 384 1082 q 445 1138 434 1116 q 469 1145 458 1145 q 485 1138 479 1145 q 491 1122 491 1131 q 483 1101 491 1114 q 408 1028 445 1043 q 351 1013 372 1013 q 260 1048 292 1013 z "},"ă":{"ha":707,"x_min":24,"x_max":680,"o":"m 570 225 q 298 27 468 65 q 227 19 259 19 q 174 20 195 19 q 127 26 153 20 q 80 43 102 31 q 30 123 30 72 q 24 178 24 148 q 38 259 24 209 q 87 368 52 309 q 175 475 123 426 q 407 608 282 578 q 474 616 444 616 q 529 612 505 616 q 635 505 608 612 q 656 315 652 437 q 663 128 659 194 q 680 8 666 62 l 600 8 q 591 73 594 45 q 586 126 589 102 q 570 225 579 183 m 564 435 q 487 514 564 514 q 468 515 477 515 q 259 420 369 515 q 171 323 208 377 q 117 184 117 245 q 209 90 117 104 q 442 201 331 92 q 521 304 490 248 q 564 435 564 378 m 247 677 q 231 695 247 677 q 216 741 216 712 q 229 774 216 770 q 263 779 243 779 q 290 722 269 735 q 325 708 312 708 q 354 710 338 708 q 395 729 370 712 q 431 768 420 746 q 455 774 445 774 q 471 768 465 774 q 477 752 477 761 q 469 731 477 743 q 395 658 431 673 q 338 643 358 643 q 247 677 278 643 z "},"Ą":{"ha":890,"x_min":35,"x_max":901,"o":"m 745 496 l 783 496 q 827 492 806 496 q 848 463 848 488 q 784 410 857 408 q 747 412 764 411 q 719 413 730 414 q 709 406 708 412 q 739 317 723 366 q 773 220 754 269 q 865 46 822 99 q 812 -1 842 18 q 779 -20 781 -20 q 776 -19 777 -20 l 585 384 l 214 293 l 201 236 q 113 19 161 80 q 79 16 104 5 q 35 43 35 33 q 64 122 35 46 q 121 276 92 198 q 182 439 151 354 q 243 602 214 525 q 294 741 271 680 q 327 831 317 803 q 340 880 336 859 q 350 916 343 901 q 418 947 363 947 q 508 862 476 914 q 562 750 540 810 q 606 629 585 690 q 665 518 628 568 q 701 498 677 499 q 745 496 726 496 m 406 789 q 357 620 395 707 q 296 485 319 533 q 256 396 273 437 q 483 450 349 396 q 548 477 517 465 q 406 789 484 750 m 886 -231 q 830 -247 852 -247 q 731 -214 768 -247 q 656 -72 656 -153 q 679 2 656 -31 q 750 50 701 35 l 846 16 q 840 16 844 16 q 769 -1 796 16 q 728 -71 728 -28 q 757 -138 728 -114 q 829 -170 793 -170 q 901 -155 865 -170 l 886 -231 z "},"ą":{"ha":707,"x_min":24,"x_max":727,"o":"m 570 225 q 298 27 468 65 q 227 19 259 19 q 174 20 195 19 q 127 26 153 20 q 80 43 102 31 q 30 123 30 72 q 24 178 24 148 q 38 259 24 209 q 87 368 52 309 q 175 475 123 426 q 407 608 282 578 q 474 616 444 616 q 529 612 505 616 q 635 505 608 612 q 656 315 652 437 q 663 128 659 194 q 680 8 666 62 l 600 8 q 591 73 594 45 q 586 126 589 102 q 570 225 579 183 m 564 435 q 487 514 564 514 q 468 515 477 515 q 259 420 369 515 q 171 323 208 377 q 117 184 117 245 q 209 90 117 104 q 442 201 331 92 q 521 304 490 248 q 564 435 564 378 m 712 -221 q 656 -237 678 -237 q 557 -205 594 -237 q 483 -62 483 -144 q 505 12 483 -22 q 576 60 528 45 l 673 26 q 666 26 670 26 q 595 8 623 26 q 555 -61 555 -19 q 583 -129 555 -104 q 656 -160 620 -160 q 727 -145 692 -160 l 712 -221 z "},"Ć":{"ha":983,"x_min":30,"x_max":955,"o":"m 708 753 q 513 840 620 840 q 317 762 411 840 q 155 510 199 665 q 138 418 138 454 q 141 361 138 381 q 232 155 141 227 q 450 88 317 88 q 799 228 632 103 q 897 296 845 263 q 935 290 916 296 q 955 259 955 285 q 728 91 821 142 q 419 -1 557 -1 q 401 -1 410 -1 q 144 92 251 -1 q 30 339 30 191 q 70 552 30 450 q 180 732 110 654 q 345 856 250 810 q 551 902 441 902 q 673 876 644 902 q 708 753 708 845 m 449 1088 q 490 1114 468 1114 q 510 1101 503 1114 q 515 1076 517 1088 q 509 1053 514 1063 q 491 1027 503 1042 q 397 943 468 1001 l 355 981 l 449 1088 z "},"ć":{"ha":879,"x_min":30,"x_max":842,"o":"m 585 143 q 613 154 585 143 q 693 184 640 165 q 794 203 746 203 q 842 174 842 203 q 839 153 842 167 q 802 119 836 138 q 721 81 769 99 q 616 49 673 64 q 505 23 559 34 q 345 0 392 0 q 242 11 297 0 q 140 46 187 22 q 30 214 30 103 q 30 247 30 222 q 50 317 30 271 q 111 408 71 362 q 206 491 152 453 q 445 597 320 572 q 517 606 488 606 q 566 606 547 606 q 605 603 585 605 q 640 593 625 601 q 675 524 675 575 q 629 460 675 491 q 608 445 617 452 q 590 498 601 476 q 543 519 579 519 q 267 418 382 486 q 137 255 137 340 q 138 235 137 245 q 205 111 138 148 q 334 84 255 84 q 472 102 414 84 q 585 143 530 121 m 452 821 q 492 846 471 846 q 513 833 506 846 q 518 808 519 821 q 511 785 517 796 q 494 760 506 774 q 400 675 471 734 l 358 713 l 452 821 z "},"Ĉ":{"ha":983,"x_min":30,"x_max":955,"o":"m 708 753 q 513 840 620 840 q 317 762 411 840 q 155 510 199 665 q 138 418 138 454 q 141 361 138 381 q 232 155 141 227 q 450 88 317 88 q 799 228 632 103 q 897 296 845 263 q 935 290 916 296 q 955 259 955 285 q 728 91 821 142 q 419 -1 557 -1 q 401 -1 410 -1 q 144 92 251 -1 q 30 339 30 191 q 70 552 30 450 q 180 732 110 654 q 345 856 250 810 q 551 902 441 902 q 673 876 644 902 q 708 753 708 845 m 312 987 q 272 994 288 987 q 256 1027 256 1001 q 271 1077 256 1053 q 311 1128 285 1101 q 452 1227 368 1188 q 544 1164 521 1183 q 631 1054 582 1130 q 639 1023 639 1038 q 633 1001 639 1009 q 585 1000 618 979 q 526 1044 534 1036 q 500 1070 517 1053 q 442 1128 484 1088 q 330 1023 359 1072 q 312 987 320 1006 z "},"ĉ":{"ha":879,"x_min":30,"x_max":842,"o":"m 585 143 q 613 154 585 143 q 693 184 640 165 q 794 203 746 203 q 842 174 842 203 q 839 153 842 167 q 802 119 836 138 q 721 81 769 99 q 616 49 673 64 q 505 23 559 34 q 345 0 392 0 q 242 11 297 0 q 140 46 187 22 q 30 214 30 103 q 30 247 30 222 q 50 317 30 271 q 111 408 71 362 q 206 491 152 453 q 445 597 320 572 q 517 606 488 606 q 566 606 547 606 q 605 603 585 605 q 640 593 625 601 q 675 524 675 575 q 629 460 675 491 q 608 445 617 452 q 590 498 601 476 q 543 519 579 519 q 267 418 382 486 q 137 255 137 340 q 138 235 137 245 q 205 111 138 148 q 334 84 255 84 q 472 102 414 84 q 585 143 530 121 m 297 692 q 257 699 273 692 q 241 731 241 705 q 256 781 241 757 q 296 833 270 806 q 437 932 353 892 q 529 868 506 887 q 616 758 567 834 q 624 728 624 742 q 618 705 624 713 q 570 704 604 684 q 511 749 519 741 q 486 774 502 757 q 427 833 469 792 q 315 727 345 776 q 297 692 305 711 z "},"Ċ":{"ha":983,"x_min":30,"x_max":955,"o":"m 708 753 q 513 840 620 840 q 317 762 411 840 q 155 510 199 665 q 138 418 138 454 q 141 361 138 381 q 232 155 141 227 q 450 88 317 88 q 799 228 632 103 q 897 296 845 263 q 935 290 916 296 q 955 259 955 285 q 728 91 821 142 q 419 -1 557 -1 q 401 -1 410 -1 q 144 92 251 -1 q 30 339 30 191 q 70 552 30 450 q 180 732 110 654 q 345 856 250 810 q 551 902 441 902 q 673 876 644 902 q 708 753 708 845 m 404 1021 q 427 1065 411 1054 q 453 1077 444 1077 q 475 1075 463 1077 q 503 1057 487 1073 q 522 1020 519 1042 q 509 977 522 987 q 477 967 495 967 q 449 970 460 967 q 429 982 438 974 q 404 1021 404 998 z "},"ċ":{"ha":879,"x_min":30,"x_max":842,"o":"m 585 143 q 613 154 585 143 q 693 184 640 165 q 794 203 746 203 q 842 174 842 203 q 839 153 842 167 q 802 119 836 138 q 721 81 769 99 q 616 49 673 64 q 505 23 559 34 q 345 0 392 0 q 242 11 297 0 q 140 46 187 22 q 30 214 30 103 q 30 247 30 222 q 50 317 30 271 q 111 408 71 362 q 206 491 152 453 q 445 597 320 572 q 517 606 488 606 q 566 606 547 606 q 605 603 585 605 q 640 593 625 601 q 675 524 675 575 q 629 460 675 491 q 608 445 617 452 q 590 498 601 476 q 543 519 579 519 q 267 418 382 486 q 137 255 137 340 q 138 235 137 245 q 205 111 138 148 q 334 84 255 84 q 472 102 414 84 q 585 143 530 121 m 380 693 q 403 737 387 726 q 429 749 419 749 q 450 747 438 749 q 479 729 463 745 q 498 692 495 713 q 484 649 498 659 q 453 639 471 639 q 425 642 435 639 q 404 654 414 646 q 380 693 380 670 z "},"Č":{"ha":983,"x_min":30,"x_max":955,"o":"m 708 753 q 513 840 620 840 q 317 762 411 840 q 155 510 199 665 q 138 418 138 454 q 141 361 138 381 q 232 155 141 227 q 450 88 317 88 q 799 228 632 103 q 897 296 845 263 q 935 290 916 296 q 955 259 955 285 q 728 91 821 142 q 419 -1 557 -1 q 401 -1 410 -1 q 144 92 251 -1 q 30 339 30 191 q 70 552 30 450 q 180 732 110 654 q 345 856 250 810 q 551 902 441 902 q 673 876 644 902 q 708 753 708 845 m 346 1024 q 328 1039 346 1024 q 297 1070 309 1054 q 285 1104 285 1086 q 298 1126 285 1122 q 332 1130 312 1130 q 370 1084 347 1104 q 442 1036 392 1063 q 492 1075 479 1063 q 513 1092 506 1086 q 530 1102 521 1097 q 564 1122 538 1107 q 604 1122 593 1135 q 609 1106 609 1115 q 602 1085 609 1097 q 538 1019 563 1035 q 452 968 507 997 q 346 1024 382 994 z "},"č":{"ha":879,"x_min":30,"x_max":842,"o":"m 585 143 q 613 154 585 143 q 693 184 640 165 q 794 203 746 203 q 842 174 842 203 q 839 153 842 167 q 802 119 836 138 q 721 81 769 99 q 616 49 673 64 q 505 23 559 34 q 345 0 392 0 q 242 11 297 0 q 140 46 187 22 q 30 214 30 103 q 30 247 30 222 q 50 317 30 271 q 111 408 71 362 q 206 491 152 453 q 445 597 320 572 q 517 606 488 606 q 566 606 547 606 q 605 603 585 605 q 640 593 625 601 q 675 524 675 575 q 629 460 675 491 q 608 445 617 452 q 590 498 601 476 q 543 519 579 519 q 267 418 382 486 q 137 255 137 340 q 138 235 137 245 q 205 111 138 148 q 334 84 255 84 q 472 102 414 84 q 585 143 530 121 m 300 701 q 281 716 300 701 q 251 747 263 731 q 239 781 239 764 q 252 803 239 799 q 286 807 266 807 q 323 761 301 781 q 396 713 346 741 q 446 752 433 741 q 467 769 460 764 q 484 779 475 774 q 518 799 492 784 q 557 799 547 812 q 563 783 563 792 q 556 762 563 774 q 492 696 517 712 q 406 646 461 674 q 300 701 336 671 z "},"Ď":{"ha":901,"x_min":52,"x_max":867,"o":"m 142 833 q 408 868 243 868 q 822 719 711 868 q 865 574 865 662 q 867 549 867 562 q 708 274 867 414 q 350 62 563 142 q 117 8 209 8 q 52 19 79 8 l 52 865 l 71 865 q 121 855 102 865 q 142 833 140 845 m 774 563 q 640 742 762 684 q 412 785 549 785 l 388 784 q 165 743 259 781 l 165 96 q 403 165 260 96 q 742 449 650 288 q 774 563 774 506 m 301 991 q 283 1006 301 991 q 252 1038 264 1021 q 240 1072 240 1054 q 254 1093 240 1089 q 288 1097 267 1097 q 325 1051 302 1072 q 397 1004 347 1031 q 448 1042 434 1031 q 469 1059 461 1054 q 485 1069 476 1065 q 519 1089 494 1074 q 559 1089 548 1103 q 564 1074 564 1082 q 557 1053 564 1065 q 494 986 518 1002 q 407 936 463 964 q 301 991 338 962 z "},"Ē":{"ha":822,"x_min":41,"x_max":795,"o":"m 479 861 q 659 844 614 861 l 659 777 q 559 771 623 772 q 423 769 495 770 q 149 749 222 765 q 127 601 126 640 q 130 540 129 562 q 136 415 136 487 q 347 431 228 415 q 530 455 465 448 q 665 463 595 463 l 665 388 l 145 323 l 153 100 q 428 113 288 100 q 641 132 568 126 q 795 138 713 138 q 779 87 795 111 q 720 61 746 43 q 294 20 481 35 q 41 0 106 5 l 46 865 q 176 854 81 854 l 479 861 m 258 898 q 190 932 190 898 q 205 958 190 951 q 260 970 221 964 q 357 985 298 975 q 481 1002 416 996 q 553 971 538 1002 q 555 960 555 966 q 549 943 555 954 q 518 925 543 933 l 258 898 z "},"ē":{"ha":751,"x_min":27,"x_max":707,"o":"m 313 95 q 673 203 433 95 q 697 193 688 203 q 707 170 707 183 q 499 26 652 77 q 213 8 346 -26 q 30 178 62 47 q 27 247 27 203 q 50 361 27 290 q 126 496 72 433 q 254 597 180 560 q 410 633 327 633 q 586 579 488 633 q 659 521 632 553 q 686 454 686 488 q 685 435 686 445 q 605 331 682 353 q 526 321 571 321 l 331 330 q 182 288 233 330 q 140 218 152 264 q 313 95 174 95 m 555 514 q 540 525 555 514 q 492 545 525 536 q 438 555 460 555 q 368 541 416 555 q 281 509 319 526 q 187 418 187 465 q 350 408 296 408 q 553 434 500 408 q 586 468 586 448 q 555 514 586 492 m 247 724 q 179 758 179 724 q 195 784 179 777 q 249 796 210 791 q 347 812 288 802 q 471 829 406 822 q 543 798 528 829 q 544 786 544 792 q 538 770 544 780 q 507 751 532 760 l 247 724 z "},"Ĕ":{"ha":822,"x_min":41,"x_max":795,"o":"m 479 861 q 659 844 614 861 l 659 777 q 559 771 623 772 q 423 769 495 770 q 149 749 222 765 q 127 601 126 640 q 130 540 129 562 q 136 415 136 487 q 347 431 228 415 q 530 455 465 448 q 665 463 595 463 l 665 388 l 145 323 l 153 100 q 428 113 288 100 q 641 132 568 126 q 795 138 713 138 q 779 87 795 111 q 720 61 746 43 q 294 20 481 35 q 41 0 106 5 l 46 865 q 176 854 81 854 l 479 861 m 309 949 q 294 966 309 949 q 278 1013 278 983 q 292 1046 278 1042 q 326 1050 305 1050 q 353 993 331 1006 q 387 979 374 979 q 416 981 400 979 q 458 1000 433 983 q 494 1039 483 1017 q 517 1046 507 1046 q 534 1039 528 1046 q 540 1023 540 1032 q 532 1002 540 1015 q 457 929 494 944 q 400 914 420 914 q 309 949 340 914 z "},"ĕ":{"ha":751,"x_min":27,"x_max":707,"o":"m 313 95 q 673 203 433 95 q 697 193 688 203 q 707 170 707 183 q 499 26 652 77 q 213 8 346 -26 q 30 178 62 47 q 27 247 27 203 q 50 361 27 290 q 126 496 72 433 q 254 597 180 560 q 410 633 327 633 q 586 579 488 633 q 659 521 632 553 q 686 454 686 488 q 685 435 686 445 q 605 331 682 353 q 526 321 571 321 l 331 330 q 182 288 233 330 q 140 218 152 264 q 313 95 174 95 m 555 514 q 540 525 555 514 q 492 545 525 536 q 438 555 460 555 q 368 541 416 555 q 281 509 319 526 q 187 418 187 465 q 350 408 296 408 q 553 434 500 408 q 586 468 586 448 q 555 514 586 492 m 266 715 q 250 733 266 715 q 235 779 235 750 q 248 812 235 808 q 282 817 262 817 q 309 760 288 773 q 344 746 331 746 q 373 748 357 746 q 414 767 389 750 q 450 806 439 784 q 474 812 464 812 q 490 806 484 812 q 496 790 496 799 q 488 769 496 781 q 414 696 450 711 q 357 681 377 681 q 266 715 297 681 z "},"Ė":{"ha":822,"x_min":41,"x_max":795,"o":"m 479 861 q 659 844 614 861 l 659 777 q 559 771 623 772 q 423 769 495 770 q 149 749 222 765 q 127 601 126 640 q 130 540 129 562 q 136 415 136 487 q 347 431 228 415 q 530 455 465 448 q 665 463 595 463 l 665 388 l 145 323 l 153 100 q 428 113 288 100 q 641 132 568 126 q 795 138 713 138 q 779 87 795 111 q 720 61 746 43 q 294 20 481 35 q 41 0 106 5 l 46 865 q 176 854 81 854 l 479 861 m 309 970 q 332 1014 316 1002 q 358 1025 349 1025 q 380 1023 368 1025 q 408 1006 392 1021 q 427 968 425 990 q 414 926 427 936 q 382 916 400 916 q 354 919 365 916 q 334 930 343 922 q 309 970 309 947 z "},"ė":{"ha":751,"x_min":27,"x_max":707,"o":"m 313 95 q 673 203 433 95 q 697 193 688 203 q 707 170 707 183 q 499 26 652 77 q 213 8 346 -26 q 30 178 62 47 q 27 247 27 203 q 50 361 27 290 q 126 496 72 433 q 254 597 180 560 q 410 633 327 633 q 586 579 488 633 q 659 521 632 553 q 686 454 686 488 q 685 435 686 445 q 605 331 682 353 q 526 321 571 321 l 331 330 q 182 288 233 330 q 140 218 152 264 q 313 95 174 95 m 555 514 q 540 525 555 514 q 492 545 525 536 q 438 555 460 555 q 368 541 416 555 q 281 509 319 526 q 187 418 187 465 q 350 408 296 408 q 553 434 500 408 q 586 468 586 448 q 555 514 586 492 m 316 745 q 339 789 323 777 q 365 800 355 800 q 387 798 374 800 q 415 781 399 796 q 434 743 431 765 q 420 701 434 711 q 389 690 407 690 q 361 694 372 690 q 340 705 350 697 q 316 745 316 722 z "},"Ę":{"ha":822,"x_min":41,"x_max":795,"o":"m 479 861 q 659 844 614 861 l 659 777 q 559 771 623 772 q 423 769 495 770 q 149 749 222 765 q 127 601 126 640 q 130 540 129 562 q 136 415 136 487 q 347 431 228 415 q 530 455 465 448 q 665 463 595 463 l 665 388 l 145 323 l 153 100 q 428 113 288 100 q 641 132 568 126 q 795 138 713 138 q 779 87 795 111 q 720 61 746 43 q 294 20 481 35 q 41 0 106 5 l 46 865 q 176 854 81 854 l 479 861 m 758 -179 q 703 -195 724 -195 q 604 -163 640 -195 q 529 -20 529 -102 q 551 54 529 20 q 623 102 574 87 l 719 68 q 712 68 716 68 q 642 50 669 68 q 601 -19 601 23 q 629 -87 601 -62 q 702 -118 666 -118 q 773 -103 738 -118 l 758 -179 z "},"ę":{"ha":751,"x_min":27,"x_max":707,"o":"m 313 95 q 673 203 433 95 q 697 193 688 203 q 707 170 707 183 q 499 26 652 77 q 213 8 346 -26 q 30 178 62 47 q 27 247 27 203 q 50 361 27 290 q 126 496 72 433 q 254 597 180 560 q 410 633 327 633 q 586 579 488 633 q 659 521 632 553 q 686 454 686 488 q 685 435 686 445 q 605 331 682 353 q 526 321 571 321 l 331 330 q 182 288 233 330 q 140 218 152 264 q 313 95 174 95 m 555 514 q 540 525 555 514 q 492 545 525 536 q 438 555 460 555 q 368 541 416 555 q 281 509 319 526 q 187 418 187 465 q 350 408 296 408 q 553 434 500 408 q 586 468 586 448 q 555 514 586 492 m 495 -231 q 439 -247 461 -247 q 340 -214 377 -247 q 266 -72 266 -153 q 288 2 266 -31 q 359 50 311 35 l 456 16 q 449 16 453 16 q 378 -1 406 16 q 338 -71 338 -28 q 366 -138 338 -114 q 439 -170 403 -170 q 510 -155 475 -170 l 495 -231 z "},"Ě":{"ha":822,"x_min":41,"x_max":795,"o":"m 479 861 q 659 844 614 861 l 659 777 q 559 771 623 772 q 423 769 495 770 q 149 749 222 765 q 127 601 126 640 q 130 540 129 562 q 136 415 136 487 q 347 431 228 415 q 530 455 465 448 q 665 463 595 463 l 665 388 l 145 323 l 153 100 q 428 113 288 100 q 641 132 568 126 q 795 138 713 138 q 779 87 795 111 q 720 61 746 43 q 294 20 481 35 q 41 0 106 5 l 46 865 q 176 854 81 854 l 479 861 m 298 981 q 280 996 298 981 q 250 1027 262 1010 q 237 1061 237 1043 q 251 1082 237 1078 q 285 1086 264 1086 q 322 1040 300 1061 q 395 993 345 1020 q 445 1031 431 1020 q 466 1048 458 1043 q 482 1059 473 1054 q 517 1078 491 1063 q 556 1078 545 1092 q 562 1063 562 1072 q 555 1042 562 1054 q 491 975 515 991 q 404 925 460 954 q 298 981 335 951 z "},"ě":{"ha":751,"x_min":27,"x_max":707,"o":"m 313 95 q 673 203 433 95 q 697 193 688 203 q 707 170 707 183 q 499 26 652 77 q 213 8 346 -26 q 30 178 62 47 q 27 247 27 203 q 50 361 27 290 q 126 496 72 433 q 254 597 180 560 q 410 633 327 633 q 586 579 488 633 q 659 521 632 553 q 686 454 686 488 q 685 435 686 445 q 605 331 682 353 q 526 321 571 321 l 331 330 q 182 288 233 330 q 140 218 152 264 q 313 95 174 95 m 555 514 q 540 525 555 514 q 492 545 525 536 q 438 555 460 555 q 368 541 416 555 q 281 509 319 526 q 187 418 187 465 q 350 408 296 408 q 553 434 500 408 q 586 468 586 448 q 555 514 586 492 m 254 742 q 235 757 254 742 q 205 788 217 772 q 193 822 193 804 q 206 844 193 840 q 240 848 220 848 q 277 802 255 822 q 350 754 300 781 q 400 793 387 781 q 421 810 414 804 q 437 820 429 815 q 472 840 446 825 q 511 840 500 853 q 517 824 517 833 q 510 803 517 815 q 446 736 471 753 q 359 686 415 715 q 254 742 290 712 z "},"Ĝ":{"ha":962,"x_min":30,"x_max":930,"o":"m 673 -66 l 673 182 q 494 65 544 94 q 289 1 377 1 q 107 79 183 1 q 30 262 30 159 q 76 481 37 370 q 346 827 157 718 q 562 883 439 883 q 567 883 564 883 l 604 884 q 661 836 666 884 q 457 785 552 830 q 292 665 362 741 q 182 490 222 590 q 142 285 142 389 q 197 134 142 180 q 336 88 251 88 q 540 152 410 88 q 663 244 623 193 q 684 296 684 269 l 684 496 q 494 465 643 496 q 323 430 346 434 q 307 439 316 434 q 296 453 297 444 q 355 515 293 473 q 534 547 370 524 q 743 578 699 571 q 818 589 788 585 q 852 589 831 586 q 890 591 872 593 q 930 544 933 590 l 818 498 q 792 186 792 415 l 795 -16 q 795 -66 795 -43 q 716 -87 754 -87 q 673 -66 678 -87 m 353 959 q 313 966 328 959 q 297 998 297 972 q 311 1048 297 1024 q 351 1100 326 1073 q 492 1199 408 1160 q 585 1135 562 1154 q 671 1025 623 1101 q 680 995 680 1009 q 674 972 680 981 q 625 971 659 951 q 566 1016 575 1008 q 541 1042 557 1024 q 483 1100 525 1059 q 370 994 400 1043 q 353 959 361 978 z "},"ĝ":{"ha":716,"x_min":31,"x_max":688,"o":"m 429 -581 l 410 -579 q 323 -585 369 -579 l 271 -585 q 144 -553 190 -585 q 119 -505 119 -537 l 431 -490 q 575 -335 575 -486 q 575 -317 575 -330 q 575 -260 575 -304 l 582 176 q 581 214 582 199 q 157 9 361 9 q 122 11 140 9 q 31 91 31 11 q 68 229 34 153 q 155 374 102 304 q 277 499 209 444 q 479 585 381 585 q 666 464 593 585 q 688 5 688 141 q 684 -217 688 -130 q 665 -376 680 -304 q 628 -490 651 -448 q 574 -551 605 -532 q 429 -581 522 -581 m 510 486 q 465 491 494 491 q 389 467 435 491 q 301 404 343 442 q 222 317 259 365 q 133 132 133 201 q 145 99 133 110 q 169 94 155 94 q 210 98 183 94 q 284 123 237 103 q 381 174 331 142 q 472 243 431 205 q 567 412 567 330 q 510 486 567 463 m 216 692 q 176 699 191 692 q 160 731 160 705 q 174 781 160 757 q 214 833 189 806 q 355 932 271 892 q 448 868 425 887 q 534 758 486 834 q 543 728 543 742 q 537 705 543 713 q 488 704 522 684 q 429 749 438 741 q 404 774 420 757 q 346 833 388 792 q 233 727 263 776 q 216 692 224 711 z "},"Ğ":{"ha":962,"x_min":30,"x_max":930,"o":"m 673 -66 l 673 182 q 494 65 544 94 q 289 1 377 1 q 107 79 183 1 q 30 262 30 159 q 76 481 37 370 q 346 827 157 718 q 562 883 439 883 q 567 883 564 883 l 604 884 q 661 836 666 884 q 457 785 552 830 q 292 665 362 741 q 182 490 222 590 q 142 285 142 389 q 197 134 142 180 q 336 88 251 88 q 540 152 410 88 q 663 244 623 193 q 684 296 684 269 l 684 496 q 494 465 643 496 q 323 430 346 434 q 307 439 316 434 q 296 453 297 444 q 355 515 293 473 q 534 547 370 524 q 743 578 699 571 q 818 589 788 585 q 852 589 831 586 q 890 591 872 593 q 930 544 933 590 l 818 498 q 792 186 792 415 l 795 -16 q 795 -66 795 -43 q 716 -87 754 -87 q 673 -66 678 -87 m 366 962 q 351 980 366 962 q 335 1026 335 997 q 349 1059 335 1055 q 382 1063 362 1063 q 410 1006 388 1020 q 444 993 431 993 q 473 995 457 993 q 515 1014 490 997 q 551 1053 540 1031 q 574 1059 564 1059 q 591 1053 585 1059 q 597 1037 597 1046 q 589 1016 597 1028 q 514 943 551 958 q 457 928 477 928 q 366 962 397 928 z "},"ğ":{"ha":716,"x_min":31,"x_max":688,"o":"m 429 -581 l 410 -579 q 323 -585 369 -579 l 271 -585 q 144 -553 190 -585 q 119 -505 119 -537 l 431 -490 q 575 -335 575 -486 q 575 -317 575 -330 q 575 -260 575 -304 l 582 176 q 581 214 582 199 q 157 9 361 9 q 122 11 140 9 q 31 91 31 11 q 68 229 34 153 q 155 374 102 304 q 277 499 209 444 q 479 585 381 585 q 666 464 593 585 q 688 5 688 141 q 684 -217 688 -130 q 665 -376 680 -304 q 628 -490 651 -448 q 574 -551 605 -532 q 429 -581 522 -581 m 510 486 q 465 491 494 491 q 389 467 435 491 q 301 404 343 442 q 222 317 259 365 q 133 132 133 201 q 145 99 133 110 q 169 94 155 94 q 210 98 183 94 q 284 123 237 103 q 381 174 331 142 q 472 243 431 205 q 567 412 567 330 q 510 486 567 463 m 252 677 q 237 695 252 677 q 221 741 221 712 q 235 774 221 770 q 269 779 248 779 q 296 722 274 735 q 330 708 317 708 q 359 710 343 708 q 401 729 376 712 q 437 768 426 746 q 460 774 450 774 q 477 768 471 774 q 483 752 483 761 q 475 731 483 743 q 400 658 437 673 q 343 643 363 643 q 252 677 283 643 z "},"Ġ":{"ha":962,"x_min":30,"x_max":930,"o":"m 673 -66 l 673 182 q 494 65 544 94 q 289 1 377 1 q 107 79 183 1 q 30 262 30 159 q 76 481 37 370 q 346 827 157 718 q 562 883 439 883 q 567 883 564 883 l 604 884 q 661 836 666 884 q 457 785 552 830 q 292 665 362 741 q 182 490 222 590 q 142 285 142 389 q 197 134 142 180 q 336 88 251 88 q 540 152 410 88 q 663 244 623 193 q 684 296 684 269 l 684 496 q 494 465 643 496 q 323 430 346 434 q 307 439 316 434 q 296 453 297 444 q 355 515 293 473 q 534 547 370 524 q 743 578 699 571 q 818 589 788 585 q 852 589 831 586 q 890 591 872 593 q 930 544 933 590 l 818 498 q 792 186 792 415 l 795 -16 q 795 -66 795 -43 q 716 -87 754 -87 q 673 -66 678 -87 m 359 993 q 382 1037 366 1025 q 408 1048 399 1048 q 430 1046 418 1048 q 458 1029 442 1044 q 477 991 475 1013 q 464 949 477 959 q 433 939 450 939 q 404 942 415 939 q 384 954 393 945 q 359 993 359 970 z "},"ġ":{"ha":716,"x_min":31,"x_max":688,"o":"m 429 -581 l 410 -579 q 323 -585 369 -579 l 271 -585 q 144 -553 190 -585 q 119 -505 119 -537 l 431 -490 q 575 -335 575 -486 q 575 -317 575 -330 q 575 -260 575 -304 l 582 176 q 581 214 582 199 q 157 9 361 9 q 122 11 140 9 q 31 91 31 11 q 68 229 34 153 q 155 374 102 304 q 277 499 209 444 q 479 585 381 585 q 666 464 593 585 q 688 5 688 141 q 684 -217 688 -130 q 665 -376 680 -304 q 628 -490 651 -448 q 574 -551 605 -532 q 429 -581 522 -581 m 510 486 q 465 491 494 491 q 389 467 435 491 q 301 404 343 442 q 222 317 259 365 q 133 132 133 201 q 145 99 133 110 q 169 94 155 94 q 210 98 183 94 q 284 123 237 103 q 381 174 331 142 q 472 243 431 205 q 567 412 567 330 q 510 486 567 463 m 298 693 q 321 737 305 726 q 347 749 338 749 q 369 747 357 749 q 397 729 381 745 q 416 692 414 713 q 403 649 416 659 q 372 639 389 639 q 343 642 354 639 q 323 654 332 646 q 298 693 298 670 z "},"Ģ":{"ha":962,"x_min":30,"x_max":930,"o":"m 673 -66 l 673 182 q 494 65 544 94 q 289 1 377 1 q 107 79 183 1 q 30 262 30 159 q 76 481 37 370 q 346 827 157 718 q 562 883 439 883 q 567 883 564 883 l 604 884 q 661 836 666 884 q 457 785 552 830 q 292 665 362 741 q 182 490 222 590 q 142 285 142 389 q 197 134 142 180 q 336 88 251 88 q 540 152 410 88 q 663 244 623 193 q 684 296 684 269 l 684 496 q 494 465 643 496 q 323 430 346 434 q 307 439 316 434 q 296 453 297 444 q 355 515 293 473 q 534 547 370 524 q 743 578 699 571 q 818 589 788 585 q 852 589 831 586 q 890 591 872 593 q 930 544 933 590 l 818 498 q 792 186 792 415 l 795 -16 q 795 -66 795 -43 q 716 -87 754 -87 q 673 -66 678 -87 m 477 -107 q 496 -87 486 -90 q 518 -84 506 -84 q 540 -87 530 -84 q 570 -118 570 -95 q 495 -255 570 -140 q 475 -287 481 -277 q 460 -307 469 -297 q 397 -340 429 -340 q 381 -338 389 -340 l 477 -107 z "},"ģ":{"ha":716,"x_min":31,"x_max":688,"o":"m 429 -581 l 410 -579 q 323 -585 369 -579 l 271 -585 q 144 -553 190 -585 q 119 -505 119 -537 l 431 -490 q 575 -335 575 -486 q 575 -317 575 -330 q 575 -260 575 -304 l 582 176 q 581 214 582 199 q 157 9 361 9 q 122 11 140 9 q 31 91 31 11 q 68 229 34 153 q 155 374 102 304 q 277 499 209 444 q 479 585 381 585 q 666 464 593 585 q 688 5 688 141 q 684 -217 688 -130 q 665 -376 680 -304 q 628 -490 651 -448 q 574 -551 605 -532 q 429 -581 522 -581 m 510 486 q 465 491 494 491 q 389 467 435 491 q 301 404 343 442 q 222 317 259 365 q 133 132 133 201 q 145 99 133 110 q 169 94 155 94 q 210 98 183 94 q 284 123 237 103 q 381 174 331 142 q 472 243 431 205 q 567 412 567 330 q 510 486 567 463 m 366 840 q 399 792 399 840 q 353 646 399 736 q 327 600 339 618 l 262 594 l 338 833 q 366 840 354 840 z "},"Ĥ":{"ha":841,"x_min":28,"x_max":795,"o":"m 210 382 q 206 252 206 336 q 232 46 206 167 l 125 -8 l 76 361 q 28 393 28 368 q 51 438 28 412 q 84 481 73 464 q 97 519 95 498 q 103 594 99 540 q 111 709 107 648 q 117 825 114 770 q 121 901 121 879 q 164 937 151 930 q 210 924 198 955 l 202 496 q 605 540 537 496 l 605 968 q 681 991 613 991 q 705 990 696 991 q 707 912 705 964 q 711 793 709 860 q 716 653 713 727 q 722 513 719 579 q 728 309 726 374 q 795 46 738 146 q 661 22 734 22 q 594 427 598 176 q 472 430 505 430 q 399 426 439 430 q 210 382 315 420 m 231 1080 q 191 1086 206 1080 q 175 1119 175 1093 q 189 1169 175 1145 q 229 1221 203 1194 q 370 1320 286 1280 q 463 1256 439 1275 q 549 1146 500 1222 q 557 1116 557 1130 q 552 1093 557 1101 q 503 1092 537 1072 q 444 1137 453 1128 q 419 1162 435 1145 q 361 1221 403 1180 q 248 1115 278 1164 q 231 1080 239 1099 z "},"ĥ":{"ha":688,"x_min":31,"x_max":674,"o":"m 674 19 q 611 -4 662 -4 q 560 33 560 -4 q 553 252 560 193 q 502 393 541 384 q 342 412 404 412 q 241 375 281 412 q 180 252 201 338 q 149 9 159 165 l 45 9 q 47 153 47 87 q 45 311 47 220 q 38 511 42 403 q 31 722 31 636 q 42 880 31 808 q 81 906 56 906 q 130 884 113 906 q 149 844 148 861 l 142 620 q 155 431 142 494 q 407 513 277 513 q 496 506 449 513 q 629 393 598 453 q 648 327 644 362 q 654 247 652 292 q 674 19 662 92 m 244 841 q 204 848 220 841 q 189 880 189 854 q 203 930 189 906 q 243 982 217 955 q 384 1081 300 1042 q 476 1017 453 1036 q 563 907 514 983 q 571 877 571 891 q 566 854 571 863 q 517 853 551 833 q 458 898 467 890 q 433 924 449 906 q 374 982 416 941 q 262 876 292 925 q 244 841 252 860 z "},"Ħ":{"ha":841,"x_min":28,"x_max":795,"o":"m 210 382 q 206 252 206 336 q 232 46 206 167 l 125 -8 l 76 361 q 28 393 28 368 q 51 438 28 412 q 84 481 73 464 q 97 519 95 498 q 103 594 99 540 q 111 709 107 648 q 117 825 114 770 q 121 901 121 879 q 164 937 151 930 q 210 924 198 955 l 202 496 q 605 540 537 496 l 605 968 q 681 991 613 991 q 705 990 696 991 q 707 912 705 964 q 711 793 709 860 q 716 653 713 727 q 722 513 719 579 q 728 309 726 374 q 795 46 738 146 q 661 22 734 22 q 594 427 598 176 q 472 430 505 430 q 399 426 439 430 q 210 382 315 420 m 188 697 q 54 734 54 697 q 85 763 54 755 q 192 777 116 771 q 386 794 269 783 q 633 813 504 805 q 776 778 746 813 q 778 765 778 772 q 766 747 778 758 q 706 727 754 736 l 188 697 z "},"ħ":{"ha":688,"x_min":-20,"x_max":674,"o":"m 674 19 q 611 -4 662 -4 q 560 33 560 -4 q 553 252 560 193 q 502 393 541 384 q 342 412 404 412 q 241 375 281 412 q 180 252 201 338 q 149 9 159 165 l 45 9 q 47 153 47 87 q 45 311 47 220 q 38 511 42 403 q 31 722 31 636 q 42 880 31 808 q 81 906 56 906 q 130 884 113 906 q 149 844 148 861 l 142 620 q 155 431 142 494 q 407 513 277 513 q 496 506 449 513 q 629 393 598 453 q 648 327 644 362 q 654 247 652 292 q 674 19 662 92 m 47 590 q -20 624 -20 590 q -5 650 -20 643 q 50 662 11 656 q 147 677 88 667 q 271 694 206 688 q 343 663 328 694 q 345 652 345 658 q 338 635 345 646 q 308 617 332 625 l 47 590 z "},"Ĩ":{"ha":210,"x_min":-148,"x_max":389,"o":"m 142 22 q 110 -1 142 -1 q 52 22 85 -1 q 35 197 35 58 q 38 425 35 335 q 43 591 41 515 q 52 766 52 757 q 117 789 91 789 q 142 766 142 789 l 142 22 m 18 937 q -99 827 -26 937 q -125 833 -107 827 q -148 856 -144 838 q -87 971 -127 921 q -1 1039 -46 1021 q 23 1043 9 1043 q 56 1029 37 1043 q 100 989 76 1015 q 151 940 125 963 q 205 917 176 917 q 252 926 235 917 q 283 954 269 936 q 314 997 297 971 q 362 1055 331 1023 q 379 1041 370 1055 q 389 1017 388 1027 q 389 991 389 1006 q 379 952 389 977 q 346 903 369 928 q 202 840 286 840 q 102 882 140 840 q 56 922 75 906 q 18 937 37 937 z "},"ĩ":{"ha":210,"x_min":-168,"x_max":369,"o":"m 159 637 q 189 50 176 384 q 123 8 180 8 q 93 14 109 8 q 73 31 77 20 l 73 637 l 159 637 m -3 815 q -119 705 -46 815 q -146 711 -127 705 q -168 734 -164 716 q -107 849 -148 799 q -22 917 -66 899 q 3 921 -11 921 q 36 907 16 921 q 80 867 56 892 q 130 818 104 841 q 185 795 156 795 q 231 804 214 795 q 262 831 248 814 q 294 875 277 849 q 342 933 311 901 q 359 919 350 933 q 368 895 368 905 q 369 869 369 884 q 359 830 369 854 q 326 781 349 806 q 182 718 266 718 q 81 760 119 718 q 35 800 54 784 q -3 815 16 815 z "},"ī":{"ha":210,"x_min":-92,"x_max":273,"o":"m 159 637 q 189 50 176 384 q 123 8 180 8 q 93 14 109 8 q 73 31 77 20 l 73 637 l 159 637 m -24 724 q -92 758 -92 724 q -77 784 -92 777 q -22 796 -61 791 q 75 812 16 802 q 199 829 134 822 q 271 798 256 829 q 273 786 273 792 q 267 770 273 780 q 236 751 260 760 l -24 724 z "},"Ĭ":{"ha":210,"x_min":-45,"x_max":217,"o":"m 142 22 q 110 -1 142 -1 q 52 22 85 -1 q 35 197 35 58 q 38 425 35 335 q 43 591 41 515 q 52 766 52 757 q 117 789 91 789 q 142 766 142 789 l 142 22 m -14 878 q -29 896 -14 878 q -45 942 -45 913 q -31 975 -45 971 q 3 979 -18 979 q 30 922 8 936 q 64 909 52 909 q 94 911 77 909 q 135 930 110 913 q 171 968 160 947 q 195 975 184 975 q 211 968 205 975 q 217 953 217 962 q 209 932 217 944 q 134 859 171 873 q 77 844 98 844 q -14 878 18 844 z "},"Į":{"ha":210,"x_min":-58,"x_max":186,"o":"m 142 22 q 110 -1 142 -1 q 52 22 85 -1 q 35 197 35 58 q 38 425 35 335 q 43 591 41 515 q 52 766 52 757 q 117 789 91 789 q 142 766 142 789 l 142 22 m 171 -227 q 115 -243 137 -243 q 16 -210 53 -243 q -58 -68 -58 -149 q -36 6 -58 -27 q 35 54 -14 39 l 132 20 q 125 20 129 20 q 54 3 81 20 q 14 -66 14 -24 q 42 -134 14 -110 q 115 -165 79 -165 q 186 -151 151 -165 l 171 -227 z "},"į":{"ha":210,"x_min":-16,"x_max":228,"o":"m 159 637 q 189 50 176 384 q 123 8 180 8 q 93 14 109 8 q 73 31 77 20 l 73 637 l 159 637 m 33 822 q 88 869 33 869 q 148 853 125 869 q 152 824 152 838 q 141 796 152 810 q 109 783 130 783 q 65 793 87 783 q 33 822 43 803 m 213 -216 q 157 -232 179 -232 q 58 -199 95 -232 q -16 -57 -16 -138 q 6 17 -16 -16 q 77 65 28 50 l 174 31 q 167 31 171 31 q 96 14 123 31 q 56 -56 56 -14 q 84 -123 56 -99 q 157 -155 121 -155 q 228 -140 193 -155 l 213 -216 z "},"İ":{"ha":210,"x_min":35,"x_max":164,"o":"m 142 22 q 110 -1 142 -1 q 52 22 85 -1 q 35 197 35 58 q 38 425 35 335 q 43 591 41 515 q 52 766 52 757 q 117 789 91 789 q 142 766 142 789 l 142 22 m 46 905 q 69 949 53 937 q 95 960 85 960 q 117 958 104 960 q 145 941 129 956 q 164 903 161 925 q 151 861 164 871 q 119 850 137 850 q 91 854 102 850 q 71 865 80 857 q 46 905 46 882 z "},"ı":{"ha":210,"x_min":73,"x_max":189,"o":"m 159 637 q 189 50 176 384 q 123 8 180 8 q 93 14 109 8 q 73 31 77 20 l 73 637 l 159 637 z "},"Ĵ":{"ha":735,"x_min":12,"x_max":703,"o":"m 582 444 l 578 700 q 581 808 578 761 q 601 854 585 854 l 692 854 q 696 770 692 833 q 701 645 700 708 q 703 537 703 582 q 701 421 703 492 q 688 264 700 350 q 579 22 659 68 q 385 5 518 -12 q 149 84 251 24 q 12 247 30 153 q 33 301 12 278 q 99 345 69 345 q 141 217 100 267 q 446 103 236 103 q 515 107 481 103 q 582 444 582 142 m 248 991 q 208 998 224 991 q 193 1031 193 1005 q 207 1081 193 1057 q 247 1133 221 1105 q 388 1232 304 1192 q 480 1168 457 1187 q 567 1058 518 1134 q 575 1027 575 1042 q 570 1005 575 1013 q 521 1004 555 983 q 462 1048 471 1040 q 437 1074 453 1057 q 378 1133 420 1092 q 266 1027 296 1076 q 248 991 256 1010 z "},"ĵ":{"ha":233,"x_min":-168,"x_max":294,"o":"m 221 -271 q 102 -498 221 -498 q 71 -497 90 -498 q 17 -492 53 -496 q -56 -475 -19 -487 q -168 -388 -144 -445 q -159 -360 -168 -381 q -149 -338 -149 -339 q -53 -401 -104 -372 q 57 -431 -1 -431 q 119 -374 95 -431 q 140 -277 140 -326 q 131 -52 140 -161 q 114 165 122 57 q 95 471 95 389 q 98 608 95 553 q 127 656 94 640 q 184 669 153 669 q 172 536 172 585 q 173 435 172 487 q 181 282 174 382 q 198 81 189 182 q 221 -271 221 -137 m -33 692 q -73 699 -57 692 q -88 731 -88 705 q -74 781 -88 757 q -34 833 -60 806 q 107 932 23 892 q 199 868 176 887 q 286 758 237 834 q 294 728 294 742 q 288 705 294 713 q 240 704 274 684 q 181 749 190 741 q 156 774 172 757 q 98 833 140 792 q -14 727 15 776 q -33 692 -24 711 z "},"Ķ":{"ha":841,"x_min":58,"x_max":826,"o":"m 58 20 q 62 37 58 26 q 68 92 65 47 q 74 200 72 137 q 78 338 76 263 q 82 492 80 414 q 87 646 84 571 q 95 784 90 722 q 127 945 107 920 q 201 977 138 977 q 220 977 201 977 q 208 760 220 925 q 195 563 197 594 q 366 660 283 608 q 519 756 448 712 q 648 829 590 800 q 735 859 707 859 q 783 822 783 859 q 739 759 783 793 q 631 687 696 724 q 489 612 566 650 q 347 538 412 574 q 239 471 282 502 q 195 416 195 439 q 276 376 220 401 q 402 319 332 351 q 547 252 472 288 q 685 179 623 216 q 826 46 826 99 q 803 22 826 28 q 784 19 793 19 l 770 19 q 648 50 705 19 q 527 125 591 81 q 381 215 463 168 q 184 293 300 262 l 184 22 q 160 9 182 16 q 94 0 129 0 q 58 20 58 0 m 418 -107 q 436 -87 426 -90 q 458 -84 446 -84 q 480 -87 471 -84 q 510 -118 510 -95 q 435 -255 510 -140 q 416 -287 422 -277 q 400 -307 410 -297 q 338 -340 369 -340 q 321 -338 330 -340 l 418 -107 z "},"ķ":{"ha":853,"x_min":41,"x_max":830,"o":"m 171 247 l 178 129 q 126 -3 178 20 q 100 -7 115 -7 q 65 0 85 -7 l 66 507 q 54 728 66 617 q 41 948 41 838 q 87 991 41 991 l 98 991 q 110 990 107 991 q 137 787 130 906 q 164 431 152 522 q 267 500 187 444 q 396 592 347 557 q 488 656 445 627 q 616 723 590 723 q 650 697 637 723 q 431 507 582 612 q 310 424 370 465 q 199 338 250 382 q 372 287 290 313 q 529 239 453 260 q 830 180 704 187 q 823 133 830 144 q 773 111 811 114 l 762 111 q 543 163 680 134 q 171 247 273 218 m 423 -107 q 441 -87 431 -90 q 464 -84 452 -84 q 486 -87 476 -84 q 515 -118 515 -95 q 441 -255 515 -140 q 421 -287 427 -277 q 406 -307 415 -297 q 343 -340 374 -340 q 327 -338 335 -340 l 423 -107 z "},"Ĺ":{"ha":962,"x_min":75,"x_max":939,"o":"m 109 593 l 106 930 l 214 926 l 202 132 l 917 111 q 939 88 939 104 q 918 54 939 72 q 829 19 879 19 q 803 22 817 19 l 75 28 q 109 593 109 155 m 484 1135 q 525 1161 503 1161 q 545 1148 538 1161 q 551 1123 552 1135 q 544 1100 549 1111 q 526 1074 538 1089 q 433 990 503 1048 l 391 1028 l 484 1135 z "},"ĺ":{"ha":218,"x_min":22,"x_max":182,"o":"m 61 526 q 60 563 61 526 q 56 657 58 600 q 52 743 53 715 q 30 879 52 770 q 54 910 42 895 q 87 925 65 925 q 160 525 134 925 q 174 61 174 293 q 87 -1 174 -1 l 76 0 q 72 180 76 71 q 66 372 68 290 q 61 526 64 453 m 115 1097 q 156 1123 134 1123 q 176 1110 170 1123 q 182 1085 183 1097 q 175 1062 180 1073 q 157 1036 170 1051 q 64 952 134 1010 l 22 990 l 115 1097 z "},"Ļ":{"ha":962,"x_min":75,"x_max":939,"o":"m 109 593 l 106 930 l 214 926 l 202 132 l 917 111 q 939 88 939 104 q 918 54 939 72 q 829 19 879 19 q 803 22 817 19 l 75 28 q 109 593 109 155 m 477 -107 q 496 -87 486 -90 q 518 -84 506 -84 q 540 -87 530 -84 q 570 -118 570 -95 q 495 -255 570 -140 q 475 -287 481 -277 q 460 -307 469 -297 q 397 -340 429 -340 q 381 -338 389 -340 l 477 -107 z "},"ļ":{"ha":218,"x_min":11,"x_max":199,"o":"m 61 526 q 60 563 61 526 q 56 657 58 600 q 52 743 53 715 q 30 879 52 770 q 54 910 42 895 q 87 925 65 925 q 160 525 134 925 q 174 61 174 293 q 87 -1 174 -1 l 76 0 q 72 180 76 71 q 66 372 68 290 q 61 526 64 453 m 107 -107 q 125 -87 115 -90 q 148 -84 136 -84 q 170 -87 160 -84 q 199 -118 199 -95 q 125 -255 199 -140 q 105 -287 111 -277 q 90 -307 99 -297 q 27 -340 58 -340 q 11 -338 19 -340 l 107 -107 z "},"Ľ":{"ha":962,"x_min":75,"x_max":939,"o":"m 109 593 l 106 930 l 214 926 l 202 132 l 917 111 q 939 88 939 104 q 918 54 939 72 q 829 19 879 19 q 803 22 817 19 l 75 28 q 109 593 109 155 m 488 840 q 521 792 521 840 q 475 646 521 736 q 449 600 461 618 l 384 594 l 460 833 q 488 840 476 840 z "},"Ŀ":{"ha":962,"x_min":75,"x_max":939,"o":"m 109 593 l 106 930 l 214 926 l 202 132 l 917 111 q 939 88 939 104 q 918 54 939 72 q 829 19 879 19 q 803 22 817 19 l 75 28 q 109 593 109 155 m 422 326 q 445 370 429 358 q 471 381 461 381 q 492 379 480 381 q 521 361 505 377 q 540 324 537 346 q 526 281 540 292 q 495 271 513 271 q 467 275 477 271 q 445 285 456 278 q 422 326 422 301 z "},"ŀ":{"ha":414,"x_min":30,"x_max":357,"o":"m 61 526 q 60 563 61 526 q 56 657 58 600 q 52 743 53 715 q 30 879 52 770 q 54 910 42 895 q 87 925 65 925 q 160 525 134 925 q 174 61 174 293 q 87 -1 174 -1 l 76 0 q 72 180 76 71 q 66 372 68 290 q 61 526 64 453 m 239 326 q 262 370 245 358 q 288 381 278 381 q 309 379 297 381 q 338 361 321 377 q 357 324 354 346 q 343 281 357 292 q 312 271 330 271 q 283 275 294 271 q 262 285 273 278 q 239 326 239 301 z "},"Ł":{"ha":962,"x_min":12,"x_max":939,"o":"m 109 593 l 106 930 l 214 926 l 202 132 l 917 111 q 939 88 939 104 q 918 54 939 72 q 829 19 879 19 q 803 22 817 19 l 75 28 q 109 593 109 155 m 80 331 q 12 366 12 331 q 28 391 12 384 q 82 403 43 397 q 180 419 121 408 q 304 437 239 430 q 350 427 331 437 q 377 395 377 414 q 371 377 377 388 q 340 358 365 366 l 80 331 z "},"ł":{"ha":218,"x_min":-85,"x_max":279,"o":"m 61 526 q 60 563 61 526 q 56 657 58 600 q 52 743 53 715 q 30 879 52 770 q 54 910 42 895 q 87 925 65 925 q 160 525 134 925 q 174 61 174 293 q 87 -1 174 -1 l 76 0 q 72 180 76 71 q 66 372 68 290 q 61 526 64 453 m -18 293 q -85 328 -85 293 q -70 353 -85 346 q -16 365 -54 359 q 82 381 23 370 q 206 399 141 392 q 252 389 233 399 q 279 357 279 376 q 273 339 279 350 q 243 320 267 328 l -18 293 z "},"Ń":{"ha":871,"x_min":34,"x_max":825,"o":"m 825 479 q 791 -4 825 66 l 692 4 q 441 366 617 133 q 303 549 372 458 q 178 730 235 640 q 151 247 151 609 q 145 14 151 109 q 89 -11 119 -11 q 46 -5 58 -11 q 34 16 34 1 q 37 60 34 30 q 45 163 41 91 q 54 315 50 235 q 65 675 65 524 q 62 924 65 826 q 109 963 92 951 q 145 962 125 975 q 197 907 165 949 q 288 780 229 864 q 680 248 487 496 l 705 924 q 735 961 720 951 q 774 971 750 971 q 822 884 822 971 l 821 834 l 825 479 m 453 1153 q 494 1179 472 1179 q 514 1166 507 1179 q 519 1141 521 1153 q 513 1118 518 1128 q 495 1092 507 1107 q 401 1008 472 1066 l 359 1046 l 453 1153 z "},"ń":{"ha":694,"x_min":46,"x_max":655,"o":"m 566 297 q 548 534 566 458 q 515 555 559 555 q 396 532 469 555 q 277 486 323 509 q 155 382 167 433 l 155 14 l 64 14 q 46 273 46 60 q 54 552 46 463 q 65 654 61 642 q 122 677 100 677 q 156 597 156 677 q 153 536 156 566 q 149 496 149 507 q 490 658 369 658 q 646 437 627 658 q 654 222 654 359 l 652 115 q 655 0 652 56 q 633 -8 642 -8 q 616 -4 629 -7 q 581 0 602 -1 q 566 111 567 54 q 564 214 564 167 l 566 297 m 359 821 q 400 846 378 846 q 420 833 414 846 q 426 808 427 821 q 419 785 425 796 q 401 760 414 774 q 308 675 378 734 l 266 713 l 359 821 z "},"Ņ":{"ha":871,"x_min":34,"x_max":825,"o":"m 825 479 q 791 -4 825 66 l 692 4 q 441 366 617 133 q 303 549 372 458 q 178 730 235 640 q 151 247 151 609 q 145 14 151 109 q 89 -11 119 -11 q 46 -5 58 -11 q 34 16 34 1 q 37 60 34 30 q 45 163 41 91 q 54 315 50 235 q 65 675 65 524 q 62 924 65 826 q 109 963 92 951 q 145 962 125 975 q 197 907 165 949 q 288 780 229 864 q 680 248 487 496 l 705 924 q 735 961 720 951 q 774 971 750 971 q 822 884 822 971 l 821 834 l 825 479 m 433 -107 q 451 -87 441 -90 q 473 -84 461 -84 q 495 -87 486 -84 q 525 -118 525 -95 q 450 -255 525 -140 q 431 -287 437 -277 q 415 -307 425 -297 q 353 -340 384 -340 q 336 -338 345 -340 l 433 -107 z "},"ņ":{"ha":694,"x_min":46,"x_max":655,"o":"m 566 297 q 548 534 566 458 q 515 555 559 555 q 396 532 469 555 q 277 486 323 509 q 155 382 167 433 l 155 14 l 64 14 q 46 273 46 60 q 54 552 46 463 q 65 654 61 642 q 122 677 100 677 q 156 597 156 677 q 153 536 156 566 q 149 496 149 507 q 490 658 369 658 q 646 437 627 658 q 654 222 654 359 l 652 115 q 655 0 652 56 q 633 -8 642 -8 q 616 -4 629 -7 q 581 0 602 -1 q 566 111 567 54 q 564 214 564 167 l 566 297 m 343 -107 q 361 -87 351 -90 q 384 -84 372 -84 q 406 -87 396 -84 q 435 -118 435 -95 q 361 -255 435 -140 q 341 -287 347 -277 q 326 -307 335 -297 q 263 -340 294 -340 q 247 -338 255 -340 l 343 -107 z "},"Ň":{"ha":871,"x_min":34,"x_max":825,"o":"m 825 479 q 791 -4 825 66 l 692 4 q 441 366 617 133 q 303 549 372 458 q 178 730 235 640 q 151 247 151 609 q 145 14 151 109 q 89 -11 119 -11 q 46 -5 58 -11 q 34 16 34 1 q 37 60 34 30 q 45 163 41 91 q 54 315 50 235 q 65 675 65 524 q 62 924 65 826 q 109 963 92 951 q 145 962 125 975 q 197 907 165 949 q 288 780 229 864 q 680 248 487 496 l 705 924 q 735 961 720 951 q 774 971 750 971 q 822 884 822 971 l 821 834 l 825 479 m 332 1089 q 314 1104 332 1089 q 283 1135 296 1119 q 271 1169 271 1152 q 285 1191 271 1187 q 319 1195 298 1195 q 356 1149 334 1169 q 429 1101 378 1128 q 479 1140 465 1128 q 500 1157 492 1152 q 516 1167 507 1162 q 551 1187 525 1172 q 590 1187 579 1200 q 595 1171 595 1180 q 589 1150 595 1162 q 525 1084 549 1100 q 438 1034 494 1062 q 332 1089 369 1059 z "},"ň":{"ha":694,"x_min":46,"x_max":655,"o":"m 566 297 q 548 534 566 458 q 515 555 559 555 q 396 532 469 555 q 277 486 323 509 q 155 382 167 433 l 155 14 l 64 14 q 46 273 46 60 q 54 552 46 463 q 65 654 61 642 q 122 677 100 677 q 156 597 156 677 q 153 536 156 566 q 149 496 149 507 q 490 658 369 658 q 646 437 627 658 q 654 222 654 359 l 652 115 q 655 0 652 56 q 633 -8 642 -8 q 616 -4 629 -7 q 581 0 602 -1 q 566 111 567 54 q 564 214 564 167 l 566 297 m 244 762 q 226 777 244 762 q 195 808 208 792 q 183 842 183 825 q 197 864 183 860 q 231 868 210 868 q 268 822 245 842 q 340 774 290 802 q 391 813 377 802 q 412 830 404 825 q 428 840 419 836 q 463 860 437 845 q 502 860 491 873 q 507 844 507 853 q 500 823 507 836 q 437 757 461 773 q 350 707 406 735 q 244 762 281 732 z "},"ŉ":{"ha":694,"x_min":46,"x_max":655,"o":"m 566 297 q 548 534 566 458 q 515 555 559 555 q 396 532 469 555 q 277 486 323 509 q 155 382 167 433 l 155 14 l 64 14 q 46 273 46 60 q 54 552 46 463 q 65 654 61 642 q 122 677 100 677 q 156 597 156 677 q 153 536 156 566 q 149 496 149 507 q 490 658 369 658 q 646 437 627 658 q 654 222 654 359 l 652 115 q 655 0 652 56 q 633 -8 642 -8 q 616 -4 629 -7 q 581 0 602 -1 q 566 111 567 54 q 564 214 564 167 l 566 297 m 155 1036 q 173 1057 163 1054 q 195 1059 183 1059 q 217 1057 208 1059 q 247 1025 247 1048 q 172 888 247 1004 q 153 857 159 867 q 137 837 146 846 q 75 803 106 803 q 58 806 66 803 l 155 1036 z "},"Ō":{"ha":930,"x_min":30,"x_max":887,"o":"m 62 228 q 30 400 30 301 q 62 576 30 499 q 149 708 94 652 q 445 823 267 823 q 751 738 631 823 q 887 458 887 640 q 783 126 887 233 q 460 19 680 19 q 62 228 155 19 m 141 427 q 464 107 141 107 q 722 202 623 107 q 821 448 821 296 q 703 665 821 590 q 449 730 602 730 q 233 642 327 730 q 141 427 141 553 m 336 884 q 269 918 269 884 q 284 944 269 937 q 338 956 300 951 q 436 972 377 962 q 560 989 495 982 q 632 958 617 989 q 633 946 633 952 q 627 930 633 940 q 597 911 621 920 l 336 884 z "},"ō":{"ha":781,"x_min":71,"x_max":760,"o":"m 71 258 q 209 515 71 418 q 473 609 319 593 q 511 609 481 609 q 591 591 541 609 q 743 457 703 553 q 760 393 760 419 q 758 355 760 366 q 629 88 758 186 q 331 -1 510 -1 q 136 58 202 -1 q 71 258 71 118 m 164 225 q 209 111 164 141 q 323 90 243 90 q 464 102 403 90 q 572 144 525 114 q 674 346 674 209 q 631 479 674 427 q 506 534 583 534 q 399 514 453 525 q 298 472 346 503 q 164 225 195 406 m 262 724 q 194 758 194 724 q 210 784 194 777 q 264 796 225 791 q 361 812 302 802 q 486 829 420 822 q 557 798 543 829 q 559 786 559 792 q 553 770 559 780 q 522 751 547 760 l 262 724 z "},"Ŏ":{"ha":930,"x_min":30,"x_max":887,"o":"m 62 228 q 30 400 30 301 q 62 576 30 499 q 149 708 94 652 q 445 823 267 823 q 751 738 631 823 q 887 458 887 640 q 783 126 887 233 q 460 19 680 19 q 62 228 155 19 m 141 427 q 464 107 141 107 q 722 202 623 107 q 821 448 821 296 q 703 665 821 590 q 449 730 602 730 q 233 642 327 730 q 141 427 141 553 m 350 926 q 334 943 350 926 q 319 989 319 960 q 332 1023 319 1019 q 366 1027 346 1027 q 393 970 372 983 q 428 956 415 956 q 457 958 441 956 q 498 977 473 960 q 534 1016 524 994 q 558 1023 548 1023 q 574 1016 568 1023 q 581 1000 581 1009 q 572 979 581 991 q 498 906 534 921 q 441 891 461 891 q 350 926 381 891 z "},"ŏ":{"ha":781,"x_min":71,"x_max":760,"o":"m 71 258 q 209 515 71 418 q 473 609 319 593 q 511 609 481 609 q 591 591 541 609 q 743 457 703 553 q 760 393 760 419 q 758 355 760 366 q 629 88 758 186 q 331 -1 510 -1 q 136 58 202 -1 q 71 258 71 118 m 164 225 q 209 111 164 141 q 323 90 243 90 q 464 102 403 90 q 572 144 525 114 q 674 346 674 209 q 631 479 674 427 q 506 534 583 534 q 399 514 453 525 q 298 472 346 503 q 164 225 195 406 m 285 677 q 269 695 285 677 q 254 741 254 712 q 267 774 254 770 q 301 779 281 779 q 328 722 307 735 q 363 708 350 708 q 392 710 376 708 q 433 729 408 712 q 469 768 458 746 q 493 774 483 774 q 509 768 503 774 q 515 752 515 761 q 507 731 515 743 q 433 658 469 673 q 376 643 396 643 q 285 677 316 643 z "},"Ő":{"ha":930,"x_min":30,"x_max":887,"o":"m 62 228 q 30 400 30 301 q 62 576 30 499 q 149 708 94 652 q 445 823 267 823 q 751 738 631 823 q 887 458 887 640 q 783 126 887 233 q 460 19 680 19 q 62 228 155 19 m 141 427 q 464 107 141 107 q 722 202 623 107 q 821 448 821 296 q 703 665 821 590 q 449 730 602 730 q 233 642 327 730 q 141 427 141 553 m 389 1036 q 429 1070 406 1070 q 448 1061 439 1070 q 458 1039 456 1051 q 445 991 458 1015 q 368 883 423 955 l 317 913 l 389 1036 m 586 1024 q 572 978 586 1001 q 494 869 555 948 l 445 899 l 515 1021 q 555 1055 532 1055 q 586 1024 579 1055 z "},"ő":{"ha":781,"x_min":71,"x_max":760,"o":"m 71 258 q 209 515 71 418 q 473 609 319 593 q 511 609 481 609 q 591 591 541 609 q 743 457 703 553 q 760 393 760 419 q 758 355 760 366 q 629 88 758 186 q 331 -1 510 -1 q 136 58 202 -1 q 71 258 71 118 m 164 225 q 209 111 164 141 q 323 90 243 90 q 464 102 403 90 q 572 144 525 114 q 674 346 674 209 q 631 479 674 427 q 506 534 583 534 q 399 514 453 525 q 298 472 346 503 q 164 225 195 406 m 328 859 q 368 892 345 892 q 387 883 378 892 q 397 861 395 873 q 384 814 397 837 q 307 705 362 777 l 256 735 l 328 859 m 525 846 q 511 800 525 823 q 433 692 494 770 l 384 722 l 454 844 q 494 878 471 878 q 525 846 518 878 z "},"Œ":{"ha":1470,"x_min":30,"x_max":1459,"o":"m 1160 844 q 1324 826 1275 844 l 1324 758 q 1150 751 1286 753 q 814 730 899 749 q 792 583 791 624 q 795 521 793 543 q 800 397 800 468 q 1006 413 883 397 q 1195 436 1130 429 q 1328 444 1260 444 l 1328 370 l 810 305 l 817 83 q 1104 95 975 83 q 1459 119 1341 119 q 1442 69 1459 92 q 1411 39 1424 46 q 1385 42 1398 33 q 705 -19 1214 23 l 705 100 q 540 -3 644 23 q 431 -14 500 -14 q 283 13 361 -14 q 149 92 206 39 q 30 406 30 205 q 63 582 30 499 q 154 726 96 665 q 288 825 212 788 q 453 861 365 861 q 709 713 610 861 l 711 848 q 859 837 747 837 l 1160 844 m 239 661 q 216 637 239 661 q 168 551 194 613 q 141 418 141 490 q 161 282 141 347 q 220 171 180 217 q 457 73 301 73 q 678 201 613 73 q 707 279 697 239 l 708 545 q 553 751 671 704 q 454 768 511 768 q 340 738 397 768 q 239 661 283 708 z "},"œ":{"ha":1268,"x_min":33,"x_max":1245,"o":"m 33 229 q 171 487 33 389 q 435 581 281 564 q 453 581 444 581 q 566 549 521 581 q 629 463 610 518 q 859 636 711 595 q 929 648 903 648 q 969 648 955 648 q 1027 637 983 648 q 1180 553 1130 614 q 1200 507 1200 528 q 1198 475 1200 487 q 1095 431 1153 442 q 977 414 1038 419 q 860 406 917 410 q 693 334 734 396 q 675 279 675 308 q 678 232 675 250 q 852 109 712 109 q 1009 136 929 109 q 1211 218 1107 171 q 1235 208 1225 218 q 1245 183 1245 198 q 1063 49 1196 99 q 857 9 960 9 q 696 41 761 9 q 598 122 631 73 q 293 -30 517 -30 q 98 30 164 -30 q 33 229 33 90 m 488 92 q 504 102 488 92 q 541 148 521 111 q 562 221 560 184 q 567 274 564 258 l 567 362 q 529 486 567 448 q 468 506 509 506 q 361 486 415 496 q 260 445 308 475 q 126 197 157 377 q 171 84 126 113 q 283 61 205 61 q 408 67 361 61 q 488 92 454 73 m 1054 518 q 951 567 1023 567 q 861 552 899 567 q 784 475 784 522 l 1054 518 z "},"Ŕ":{"ha":990,"x_min":62,"x_max":926,"o":"m 160 806 q 430 878 235 878 q 635 853 552 878 q 759 802 718 829 q 800 742 800 774 q 627 594 800 667 q 492 545 601 582 q 345 494 382 507 q 235 445 262 463 q 240 433 235 438 q 266 417 245 429 q 327 385 286 406 q 439 324 368 363 q 880 75 654 208 q 909 52 891 66 q 926 21 926 38 q 916 -3 926 4 q 890 -13 905 -9 q 859 -16 875 -16 l 831 -16 q 718 42 804 -16 q 569 144 632 100 q 441 228 506 187 q 198 357 288 327 l 198 46 q 152 19 198 19 l 137 19 q 95 47 109 19 q 76 208 76 91 l 80 480 q 62 833 80 681 q 142 829 95 888 q 160 806 153 815 m 618 789 l 530 791 q 178 720 224 791 q 164 672 164 701 q 167 621 164 643 q 198 541 174 566 q 212 540 202 540 q 250 545 222 540 q 325 565 278 551 q 425 600 372 579 q 526 642 477 620 q 680 754 680 711 q 618 789 680 779 m 410 1078 q 450 1104 429 1104 q 471 1091 464 1104 q 476 1066 477 1078 q 469 1043 475 1054 q 452 1017 464 1032 q 358 933 429 991 l 316 971 l 410 1078 z "},"ŕ":{"ha":766,"x_min":37,"x_max":741,"o":"m 703 495 q 556 536 646 536 q 400 505 472 536 q 214 358 264 448 q 193 271 193 317 q 193 226 193 263 q 206 125 193 189 q 220 -3 220 62 q 174 -9 191 -4 q 144 -15 156 -15 q 123 -4 132 -15 q 103 38 114 7 q 98 84 102 46 q 87 176 94 122 q 74 295 81 231 q 60 422 66 359 q 37 621 45 557 q 84 654 37 654 q 129 630 113 654 q 155 576 145 606 q 168 515 164 545 q 174 473 171 486 q 618 633 353 633 q 681 632 648 633 q 701 633 689 633 q 726 617 713 633 q 741 571 741 598 q 703 495 741 503 m 396 821 q 437 846 415 846 q 457 833 450 846 q 463 808 464 821 q 456 785 461 796 q 438 760 450 774 q 345 675 415 734 l 302 713 l 396 821 z "},"Ŗ":{"ha":990,"x_min":62,"x_max":926,"o":"m 160 806 q 430 878 235 878 q 635 853 552 878 q 759 802 718 829 q 800 742 800 774 q 627 594 800 667 q 492 545 601 582 q 345 494 382 507 q 235 445 262 463 q 240 433 235 438 q 266 417 245 429 q 327 385 286 406 q 439 324 368 363 q 880 75 654 208 q 909 52 891 66 q 926 21 926 38 q 916 -3 926 4 q 890 -13 905 -9 q 859 -16 875 -16 l 831 -16 q 718 42 804 -16 q 569 144 632 100 q 441 228 506 187 q 198 357 288 327 l 198 46 q 152 19 198 19 l 137 19 q 95 47 109 19 q 76 208 76 91 l 80 480 q 62 833 80 681 q 142 829 95 888 q 160 806 153 815 m 618 789 l 530 791 q 178 720 224 791 q 164 672 164 701 q 167 621 164 643 q 198 541 174 566 q 212 540 202 540 q 250 545 222 540 q 325 565 278 551 q 425 600 372 579 q 526 642 477 620 q 680 754 680 711 q 618 789 680 779 m 492 -107 q 511 -87 500 -90 q 533 -84 521 -84 q 555 -87 545 -84 q 585 -118 585 -95 q 510 -255 585 -140 q 490 -287 496 -277 q 475 -307 484 -297 q 412 -340 444 -340 q 396 -338 404 -340 l 492 -107 z "},"ŗ":{"ha":766,"x_min":37,"x_max":741,"o":"m 703 495 q 556 536 646 536 q 400 505 472 536 q 214 358 264 448 q 193 271 193 317 q 193 226 193 263 q 206 125 193 189 q 220 -3 220 62 q 174 -9 191 -4 q 144 -15 156 -15 q 123 -4 132 -15 q 103 38 114 7 q 98 84 102 46 q 87 176 94 122 q 74 295 81 231 q 60 422 66 359 q 37 621 45 557 q 84 654 37 654 q 129 630 113 654 q 155 576 145 606 q 168 515 164 545 q 174 473 171 486 q 618 633 353 633 q 681 632 648 633 q 701 633 689 633 q 726 617 713 633 q 741 571 741 598 q 703 495 741 503 m 380 -107 q 398 -87 388 -90 q 420 -84 408 -84 q 442 -87 433 -84 q 472 -118 472 -95 q 397 -255 472 -140 q 378 -287 384 -277 q 362 -307 372 -297 q 300 -340 331 -340 q 283 -338 292 -340 l 380 -107 z "},"Ř":{"ha":990,"x_min":62,"x_max":926,"o":"m 160 806 q 430 878 235 878 q 635 853 552 878 q 759 802 718 829 q 800 742 800 774 q 627 594 800 667 q 492 545 601 582 q 345 494 382 507 q 235 445 262 463 q 240 433 235 438 q 266 417 245 429 q 327 385 286 406 q 439 324 368 363 q 880 75 654 208 q 909 52 891 66 q 926 21 926 38 q 916 -3 926 4 q 890 -13 905 -9 q 859 -16 875 -16 l 831 -16 q 718 42 804 -16 q 569 144 632 100 q 441 228 506 187 q 198 357 288 327 l 198 46 q 152 19 198 19 l 137 19 q 95 47 109 19 q 76 208 76 91 l 80 480 q 62 833 80 681 q 142 829 95 888 q 160 806 153 815 m 618 789 l 530 791 q 178 720 224 791 q 164 672 164 701 q 167 621 164 643 q 198 541 174 566 q 212 540 202 540 q 250 545 222 540 q 325 565 278 551 q 425 600 372 579 q 526 642 477 620 q 680 754 680 711 q 618 789 680 779 m 294 991 q 276 1006 294 991 q 245 1038 258 1021 q 233 1072 233 1054 q 247 1093 233 1089 q 281 1097 260 1097 q 318 1051 296 1072 q 391 1004 340 1031 q 441 1042 427 1031 q 462 1059 454 1054 q 478 1069 469 1065 q 513 1089 487 1074 q 552 1089 541 1103 q 557 1074 557 1082 q 551 1053 557 1065 q 487 986 511 1002 q 400 936 456 964 q 294 991 331 962 z "},"ř":{"ha":766,"x_min":37,"x_max":741,"o":"m 703 495 q 556 536 646 536 q 400 505 472 536 q 214 358 264 448 q 193 271 193 317 q 193 226 193 263 q 206 125 193 189 q 220 -3 220 62 q 174 -9 191 -4 q 144 -15 156 -15 q 123 -4 132 -15 q 103 38 114 7 q 98 84 102 46 q 87 176 94 122 q 74 295 81 231 q 60 422 66 359 q 37 621 45 557 q 84 654 37 654 q 129 630 113 654 q 155 576 145 606 q 168 515 164 545 q 174 473 171 486 q 618 633 353 633 q 681 632 648 633 q 701 633 689 633 q 726 617 713 633 q 741 571 741 598 q 703 495 741 503 m 279 753 q 261 768 279 753 q 231 799 243 783 q 218 833 218 815 q 232 854 218 850 q 266 859 245 859 q 303 812 281 833 q 376 765 326 792 q 426 804 412 792 q 447 821 439 815 q 463 831 454 826 q 498 850 472 836 q 537 850 526 864 q 543 835 543 844 q 536 814 543 826 q 472 747 496 764 q 385 697 441 726 q 279 753 316 723 z "},"Ś":{"ha":892,"x_min":20,"x_max":846,"o":"m 20 119 q 20 131 20 119 q 41 163 20 144 q 74 191 62 183 q 90 202 85 198 q 256 79 96 79 q 551 157 382 79 q 711 269 670 212 q 724 298 724 286 q 720 316 724 309 l 157 442 q 110 465 133 448 q 68 519 68 495 q 201 689 68 613 q 593 814 347 772 q 675 825 648 823 q 701 820 684 822 q 735 814 718 818 q 770 779 777 804 q 594 705 770 732 q 310 648 366 671 q 229 601 254 625 q 202 543 203 576 q 233 528 202 536 q 308 508 264 519 q 420 477 351 496 q 833 361 589 431 q 846 305 846 331 q 762 167 846 233 q 499 41 667 92 q 277 -1 359 -1 q 145 23 208 -1 q 52 71 83 47 q 20 119 20 94 m 460 966 q 500 991 479 991 q 521 979 514 991 q 526 954 528 966 q 519 930 525 941 q 502 905 514 920 q 408 821 479 879 l 366 859 l 460 966 z "},"ś":{"ha":697,"x_min":30,"x_max":650,"o":"m 500 350 q 650 274 650 350 q 567 141 650 217 q 235 -39 444 28 q 214 -20 225 -39 q 196 9 202 -1 q 187 22 190 19 q 444 146 343 73 q 511 227 511 195 q 431 258 511 258 q 197 220 351 258 q 75 270 126 222 q 30 355 30 312 q 54 433 30 397 q 119 500 79 469 q 214 557 160 532 q 490 621 347 621 q 571 613 532 621 q 609 585 604 613 q 614 491 614 556 q 434 528 534 528 q 228 477 309 528 q 141 350 144 429 q 197 312 141 312 l 296 323 q 500 350 423 350 m 362 821 q 403 846 381 846 q 423 833 416 846 q 429 808 430 821 q 422 785 427 796 q 404 760 416 774 q 311 675 381 734 l 269 713 l 362 821 z "},"Ŝ":{"ha":892,"x_min":20,"x_max":846,"o":"m 20 119 q 20 131 20 119 q 41 163 20 144 q 74 191 62 183 q 90 202 85 198 q 256 79 96 79 q 551 157 382 79 q 711 269 670 212 q 724 298 724 286 q 720 316 724 309 l 157 442 q 110 465 133 448 q 68 519 68 495 q 201 689 68 613 q 593 814 347 772 q 675 825 648 823 q 701 820 684 822 q 735 814 718 818 q 770 779 777 804 q 594 705 770 732 q 310 648 366 671 q 229 601 254 625 q 202 543 203 576 q 233 528 202 536 q 308 508 264 519 q 420 477 351 496 q 833 361 589 431 q 846 305 846 331 q 762 167 846 233 q 499 41 667 92 q 277 -1 359 -1 q 145 23 208 -1 q 52 71 83 47 q 20 119 20 94 m 289 884 q 249 891 264 884 q 233 924 233 898 q 248 974 233 949 q 288 1025 262 998 q 429 1124 345 1085 q 521 1061 498 1080 q 608 951 559 1027 q 616 920 616 935 q 610 898 616 906 q 562 897 595 876 q 503 941 511 933 q 477 967 494 949 q 419 1025 461 985 q 307 920 336 968 q 289 884 297 903 z "},"ŝ":{"ha":697,"x_min":30,"x_max":650,"o":"m 500 350 q 650 274 650 350 q 567 141 650 217 q 235 -39 444 28 q 214 -20 225 -39 q 196 9 202 -1 q 187 22 190 19 q 444 146 343 73 q 511 227 511 195 q 431 258 511 258 q 197 220 351 258 q 75 270 126 222 q 30 355 30 312 q 54 433 30 397 q 119 500 79 469 q 214 557 160 532 q 490 621 347 621 q 571 613 532 621 q 609 585 604 613 q 614 491 614 556 q 434 528 534 528 q 228 477 309 528 q 141 350 144 429 q 197 312 141 312 l 296 323 q 500 350 423 350 m 206 692 q 166 699 182 692 q 151 731 151 705 q 165 781 151 757 q 205 833 179 806 q 346 932 262 892 q 438 868 415 887 q 525 758 476 834 q 533 728 533 742 q 528 705 533 713 q 479 704 513 684 q 420 749 429 741 q 395 774 411 757 q 336 833 378 792 q 224 727 254 776 q 206 692 214 711 z "},"Ş":{"ha":892,"x_min":20,"x_max":846,"o":"m 20 119 q 20 131 20 119 q 41 163 20 144 q 74 191 62 183 q 90 202 85 198 q 256 79 96 79 q 551 157 382 79 q 711 269 670 212 q 724 298 724 286 q 720 316 724 309 l 157 442 q 110 465 133 448 q 68 519 68 495 q 201 689 68 613 q 593 814 347 772 q 675 825 648 823 q 701 820 684 822 q 735 814 718 818 q 770 779 777 804 q 594 705 770 732 q 310 648 366 671 q 229 601 254 625 q 202 543 203 576 q 233 528 202 536 q 308 508 264 519 q 420 477 351 496 q 833 361 589 431 q 846 305 846 331 q 762 167 846 233 q 499 41 667 92 q 277 -1 359 -1 q 145 23 208 -1 q 52 71 83 47 q 20 119 20 94 m 332 11 q 349 38 332 38 q 377 20 365 38 q 384 -3 389 1 q 385 -68 384 -39 q 411 -96 387 -96 q 475 -94 441 -94 q 547 -107 510 -94 q 601 -179 601 -129 q 537 -277 601 -233 q 410 -316 481 -316 q 331 -302 373 -316 q 327 -296 327 -302 q 328 -279 327 -289 q 329 -261 328 -270 q 327 -250 330 -252 q 363 -251 342 -251 q 420 -245 385 -251 q 488 -226 456 -239 q 537 -198 521 -213 q 496 -155 572 -165 q 452 -152 480 -152 q 380 -156 423 -152 q 334 -9 334 -156 q 332 11 332 3 z "},"ş":{"ha":697,"x_min":30,"x_max":650,"o":"m 500 350 q 650 274 650 350 q 567 141 650 217 q 235 -39 444 28 q 214 -20 225 -39 q 196 9 202 -1 q 187 22 190 19 q 444 146 343 73 q 511 227 511 195 q 431 258 511 258 q 197 220 351 258 q 75 270 126 222 q 30 355 30 312 q 54 433 30 397 q 119 500 79 469 q 214 557 160 532 q 490 621 347 621 q 571 613 532 621 q 609 585 604 613 q 614 491 614 556 q 434 528 534 528 q 228 477 309 528 q 141 350 144 429 q 197 312 141 312 l 296 323 q 500 350 423 350 m 311 15 q 327 42 311 42 q 355 24 343 42 q 362 1 368 5 q 363 -64 362 -35 q 389 -92 365 -92 q 454 -90 419 -90 q 525 -103 488 -90 q 579 -175 579 -125 q 515 -273 579 -229 q 388 -312 460 -312 q 309 -298 351 -312 q 305 -292 305 -298 q 306 -275 305 -285 q 307 -257 307 -266 q 305 -245 308 -248 q 342 -247 320 -247 q 399 -241 363 -247 q 467 -222 434 -235 q 515 -194 499 -209 q 475 -151 551 -161 q 430 -148 458 -148 q 358 -152 401 -148 q 312 -5 312 -152 q 311 15 311 7 z "},"Š":{"ha":892,"x_min":20,"x_max":846,"o":"m 20 119 q 20 131 20 119 q 41 163 20 144 q 74 191 62 183 q 90 202 85 198 q 256 79 96 79 q 551 157 382 79 q 711 269 670 212 q 724 298 724 286 q 720 316 724 309 l 157 442 q 110 465 133 448 q 68 519 68 495 q 201 689 68 613 q 593 814 347 772 q 675 825 648 823 q 701 820 684 822 q 735 814 718 818 q 770 779 777 804 q 594 705 770 732 q 310 648 366 671 q 229 601 254 625 q 202 543 203 576 q 233 528 202 536 q 308 508 264 519 q 420 477 351 496 q 833 361 589 431 q 846 305 846 331 q 762 167 846 233 q 499 41 667 92 q 277 -1 359 -1 q 145 23 208 -1 q 52 71 83 47 q 20 119 20 94 m 307 883 q 288 898 307 883 q 258 929 270 913 q 245 963 245 945 q 259 985 245 981 q 293 989 273 989 q 330 943 308 963 q 403 895 353 922 q 453 934 439 922 q 474 951 467 945 q 490 961 481 956 q 525 981 499 966 q 564 981 553 994 q 570 965 570 974 q 563 944 570 956 q 499 878 524 894 q 412 827 468 856 q 307 883 343 853 z "},"š":{"ha":697,"x_min":30,"x_max":650,"o":"m 500 350 q 650 274 650 350 q 567 141 650 217 q 235 -39 444 28 q 214 -20 225 -39 q 196 9 202 -1 q 187 22 190 19 q 444 146 343 73 q 511 227 511 195 q 431 258 511 258 q 197 220 351 258 q 75 270 126 222 q 30 355 30 312 q 54 433 30 397 q 119 500 79 469 q 214 557 160 532 q 490 621 347 621 q 571 613 532 621 q 609 585 604 613 q 614 491 614 556 q 434 528 534 528 q 228 477 309 528 q 141 350 144 429 q 197 312 141 312 l 296 323 q 500 350 423 350 m 241 701 q 223 716 241 701 q 193 747 205 731 q 180 781 180 764 q 194 803 180 799 q 228 807 208 807 q 265 761 243 781 q 338 713 288 741 q 388 752 374 741 q 409 769 401 764 q 425 779 416 774 q 460 799 434 784 q 499 799 488 812 q 505 783 505 792 q 498 762 505 774 q 434 696 458 712 q 347 646 403 674 q 241 701 278 671 z "},"Ţ":{"ha":865,"x_min":0,"x_max":865,"o":"m 665 666 l 544 669 q 434 659 496 669 q 423 522 431 606 q 395 135 395 224 q 397 9 395 46 l 270 0 l 312 670 l 23 686 q 6 704 12 686 q 0 736 0 722 q 12 769 0 751 q 41 787 24 787 q 240 773 140 783 q 556 757 426 757 l 640 760 q 837 781 739 762 q 864 713 859 777 q 865 692 865 700 q 665 666 776 666 m 298 -73 q 317 -53 307 -56 q 339 -50 327 -50 q 361 -53 351 -50 q 391 -84 391 -61 q 316 -221 391 -106 q 296 -253 302 -243 q 281 -273 290 -263 q 218 -307 250 -307 q 202 -304 210 -307 l 298 -73 z "},"ţ":{"ha":562,"x_min":22,"x_max":547,"o":"m 241 130 l 244 347 q 235 435 244 399 l 24 435 l 22 529 l 225 529 l 225 879 q 241 903 229 891 q 273 922 260 922 q 296 920 286 922 q 316 901 305 917 q 338 631 338 811 q 342 543 338 586 q 429 548 385 548 q 499 548 429 548 q 547 551 525 548 l 543 453 l 345 458 l 351 -9 q 309 -20 327 -20 q 241 130 241 -20 m 277 -107 q 295 -87 285 -90 q 317 -84 305 -84 q 339 -87 330 -84 q 369 -118 369 -95 q 294 -255 369 -140 q 275 -287 281 -277 q 259 -307 269 -297 q 197 -340 228 -340 q 180 -338 189 -340 l 277 -107 z "},"Ť":{"ha":865,"x_min":0,"x_max":865,"o":"m 665 666 l 544 669 q 434 659 496 669 q 423 522 431 606 q 395 135 395 224 q 397 9 395 46 l 270 0 l 312 670 l 23 686 q 6 704 12 686 q 0 736 0 722 q 12 769 0 751 q 41 787 24 787 q 240 773 140 783 q 556 757 426 757 l 640 760 q 837 781 739 762 q 864 713 859 777 q 865 692 865 700 q 665 666 776 666 m 290 902 q 272 917 290 902 q 241 948 254 932 q 229 982 229 964 q 243 1004 229 1000 q 277 1008 256 1008 q 314 962 292 982 q 387 914 336 941 q 437 953 423 941 q 458 970 450 964 q 474 980 465 975 q 509 1000 483 985 q 548 1000 537 1013 q 553 984 553 993 q 547 963 553 975 q 483 897 507 913 q 396 846 452 875 q 290 902 327 872 z "},"Ŧ":{"ha":865,"x_min":0,"x_max":865,"o":"m 665 666 l 544 669 q 434 659 496 669 q 423 522 431 606 q 395 135 395 224 q 397 9 395 46 l 270 0 l 312 670 l 23 686 q 6 704 12 686 q 0 736 0 722 q 12 769 0 751 q 41 787 24 787 q 240 773 140 783 q 556 757 426 757 l 640 760 q 837 781 739 762 q 864 713 859 777 q 865 692 865 700 q 665 666 776 666 m 251 450 q 183 484 183 450 q 199 510 183 503 q 253 522 214 517 q 351 538 292 528 q 475 555 410 548 q 547 524 532 555 q 548 512 548 518 q 542 496 548 506 q 511 477 536 486 l 251 450 z "},"ŧ":{"ha":562,"x_min":-15,"x_max":547,"o":"m 241 130 l 244 347 q 235 435 244 399 l 24 435 l 22 529 l 225 529 l 225 879 q 241 903 229 891 q 273 922 260 922 q 296 920 286 922 q 316 901 305 917 q 338 631 338 811 q 342 543 338 586 q 429 548 385 548 q 499 548 429 548 q 547 551 525 548 l 543 453 l 345 458 l 351 -9 q 309 -20 327 -20 q 241 130 241 -20 m 89 154 q -14 195 -14 154 q 10 227 -14 218 q 92 241 33 235 q 240 260 151 248 q 429 281 330 273 q 538 243 515 281 q 540 229 540 237 q 531 209 540 222 q 485 187 522 197 l 89 154 z "},"Ũ":{"ha":780,"x_min":27,"x_max":724,"o":"m 713 22 q 671 -3 713 -3 q 634 3 651 -3 q 613 14 617 9 l 627 187 q 445 53 502 80 q 262 8 355 8 q 225 9 244 8 q 27 263 27 31 q 81 623 27 369 q 104 766 99 701 q 122 768 109 768 q 138 768 122 768 q 151 769 145 769 q 194 704 194 769 q 176 593 194 659 q 122 290 122 374 q 168 152 122 202 q 262 113 198 119 q 278 113 270 113 q 568 326 499 113 q 616 627 609 450 q 623 788 620 708 q 663 829 637 829 q 720 806 689 829 q 724 651 724 727 l 711 133 q 713 22 711 77 m 290 971 q 174 861 247 971 q 147 867 165 861 q 125 890 129 872 q 186 1005 145 955 q 271 1073 227 1055 q 296 1077 282 1077 q 329 1063 309 1077 q 373 1023 349 1048 q 423 974 397 997 q 478 951 449 951 q 524 960 507 951 q 555 987 541 970 q 587 1031 570 1005 q 635 1089 604 1057 q 652 1075 643 1089 q 661 1050 661 1061 q 662 1025 662 1040 q 652 986 662 1010 q 618 937 642 962 q 475 873 559 873 q 374 916 412 873 q 328 956 347 940 q 290 971 309 971 z "},"ũ":{"ha":705,"x_min":18,"x_max":663,"o":"m 30 180 q 26 241 30 202 q 20 326 23 279 q 18 419 18 372 q 26 506 18 467 q 99 594 43 594 q 150 567 137 583 q 163 527 163 551 q 151 468 163 503 q 106 255 106 350 q 110 189 106 224 q 259 98 132 98 q 385 121 326 98 q 540 220 499 163 q 552 329 552 282 q 549 412 552 376 q 541 493 545 449 q 534 590 536 537 q 569 598 552 598 q 604 581 586 598 q 635 514 623 563 q 652 399 648 465 q 657 263 656 334 q 658 127 658 193 q 663 14 658 61 q 632 -1 647 -1 q 552 107 578 -1 q 492 71 534 92 q 281 5 403 22 q 229 3 258 3 q 158 14 201 3 q 77 64 115 24 q 30 180 39 103 m 239 769 q 122 659 195 769 q 96 665 114 659 q 73 688 77 670 q 134 803 94 753 q 220 871 175 853 q 244 875 231 875 q 277 861 258 875 q 321 821 297 846 q 372 772 346 795 q 427 749 397 749 q 473 758 456 749 q 504 785 490 768 q 535 829 518 803 q 583 887 552 854 q 600 873 591 887 q 610 848 609 859 q 610 823 610 838 q 600 784 610 808 q 567 735 590 760 q 423 671 507 671 q 323 713 361 671 q 277 753 296 738 q 239 769 258 769 z "},"Ū":{"ha":780,"x_min":27,"x_max":724,"o":"m 713 22 q 671 -3 713 -3 q 634 3 651 -3 q 613 14 617 9 l 627 187 q 445 53 502 80 q 262 8 355 8 q 225 9 244 8 q 27 263 27 31 q 81 623 27 369 q 104 766 99 701 q 122 768 109 768 q 138 768 122 768 q 151 769 145 769 q 194 704 194 769 q 176 593 194 659 q 122 290 122 374 q 168 152 122 202 q 262 113 198 119 q 278 113 270 113 q 568 326 499 113 q 616 627 609 450 q 623 788 620 708 q 663 829 637 829 q 720 806 689 829 q 724 651 724 727 l 711 133 q 713 22 711 77 m 270 841 q 202 875 202 841 q 218 901 202 894 q 272 913 233 907 q 370 928 311 918 q 494 945 429 939 q 566 914 551 945 q 567 903 567 909 q 561 886 567 897 q 530 868 555 876 l 270 841 z "},"ū":{"ha":705,"x_min":18,"x_max":663,"o":"m 30 180 q 26 241 30 202 q 20 326 23 279 q 18 419 18 372 q 26 506 18 467 q 99 594 43 594 q 150 567 137 583 q 163 527 163 551 q 151 468 163 503 q 106 255 106 350 q 110 189 106 224 q 259 98 132 98 q 385 121 326 98 q 540 220 499 163 q 552 329 552 282 q 549 412 552 376 q 541 493 545 449 q 534 590 536 537 q 569 598 552 598 q 604 581 586 598 q 635 514 623 563 q 652 399 648 465 q 657 263 656 334 q 658 127 658 193 q 663 14 658 61 q 632 -1 647 -1 q 552 107 578 -1 q 492 71 534 92 q 281 5 403 22 q 229 3 258 3 q 158 14 201 3 q 77 64 115 24 q 30 180 39 103 m 224 724 q 156 758 156 724 q 172 784 156 777 q 226 796 187 791 q 323 812 264 802 q 448 829 382 822 q 519 798 505 829 q 521 786 521 792 q 515 770 521 780 q 484 751 509 760 l 224 724 z "},"Ŭ":{"ha":780,"x_min":27,"x_max":724,"o":"m 713 22 q 671 -3 713 -3 q 634 3 651 -3 q 613 14 617 9 l 627 187 q 445 53 502 80 q 262 8 355 8 q 225 9 244 8 q 27 263 27 31 q 81 623 27 369 q 104 766 99 701 q 122 768 109 768 q 138 768 122 768 q 151 769 145 769 q 194 704 194 769 q 176 593 194 659 q 122 290 122 374 q 168 152 122 202 q 262 113 198 119 q 278 113 270 113 q 568 326 499 113 q 616 627 609 450 q 623 788 620 708 q 663 829 637 829 q 720 806 689 829 q 724 651 724 727 l 711 133 q 713 22 711 77 m 278 851 q 262 868 278 851 q 247 915 247 886 q 260 948 247 944 q 294 952 274 952 q 321 895 300 909 q 356 882 343 882 q 385 884 369 882 q 427 903 401 886 q 463 941 452 920 q 486 948 476 948 q 503 941 496 948 q 509 926 509 935 q 500 905 509 917 q 426 831 463 846 q 369 817 389 817 q 278 851 309 817 z "},"ŭ":{"ha":705,"x_min":18,"x_max":663,"o":"m 30 180 q 26 241 30 202 q 20 326 23 279 q 18 419 18 372 q 26 506 18 467 q 99 594 43 594 q 150 567 137 583 q 163 527 163 551 q 151 468 163 503 q 106 255 106 350 q 110 189 106 224 q 259 98 132 98 q 385 121 326 98 q 540 220 499 163 q 552 329 552 282 q 549 412 552 376 q 541 493 545 449 q 534 590 536 537 q 569 598 552 598 q 604 581 586 598 q 635 514 623 563 q 652 399 648 465 q 657 263 656 334 q 658 127 658 193 q 663 14 658 61 q 632 -1 647 -1 q 552 107 578 -1 q 492 71 534 92 q 281 5 403 22 q 229 3 258 3 q 158 14 201 3 q 77 64 115 24 q 30 180 39 103 m 247 677 q 231 695 247 677 q 216 741 216 712 q 229 774 216 770 q 263 779 243 779 q 290 722 269 735 q 325 708 312 708 q 354 710 338 708 q 395 729 370 712 q 431 768 420 746 q 455 774 445 774 q 471 768 465 774 q 477 752 477 761 q 469 731 477 743 q 395 658 431 673 q 338 643 358 643 q 247 677 278 643 z "},"Ů":{"ha":780,"x_min":27,"x_max":724,"o":"m 713 22 q 671 -3 713 -3 q 634 3 651 -3 q 613 14 617 9 l 627 187 q 445 53 502 80 q 262 8 355 8 q 225 9 244 8 q 27 263 27 31 q 81 623 27 369 q 104 766 99 701 q 122 768 109 768 q 138 768 122 768 q 151 769 145 769 q 194 704 194 769 q 176 593 194 659 q 122 290 122 374 q 168 152 122 202 q 262 113 198 119 q 278 113 270 113 q 568 326 499 113 q 616 627 609 450 q 623 788 620 708 q 663 829 637 829 q 720 806 689 829 q 724 651 724 727 l 711 133 q 713 22 711 77 m 319 834 q 306 844 319 834 q 279 875 292 854 q 267 931 267 895 q 283 994 267 967 q 365 1039 311 1039 q 431 1023 400 1039 q 500 926 495 989 q 472 836 500 859 q 389 814 444 814 q 319 834 347 814 m 437 949 q 370 981 407 981 q 320 940 328 981 q 320 923 320 936 q 336 884 320 910 q 388 861 365 861 q 445 902 435 861 q 445 920 445 909 q 437 949 445 930 z "},"ů":{"ha":705,"x_min":18,"x_max":663,"o":"m 30 180 q 26 241 30 202 q 20 326 23 279 q 18 419 18 372 q 26 506 18 467 q 99 594 43 594 q 150 567 137 583 q 163 527 163 551 q 151 468 163 503 q 106 255 106 350 q 110 189 106 224 q 259 98 132 98 q 385 121 326 98 q 540 220 499 163 q 552 329 552 282 q 549 412 552 376 q 541 493 545 449 q 534 590 536 537 q 569 598 552 598 q 604 581 586 598 q 635 514 623 563 q 652 399 648 465 q 657 263 656 334 q 658 127 658 193 q 663 14 658 61 q 632 -1 647 -1 q 552 107 578 -1 q 492 71 534 92 q 281 5 403 22 q 229 3 258 3 q 158 14 201 3 q 77 64 115 24 q 30 180 39 103 m 287 591 q 273 602 287 591 q 247 632 259 612 q 235 688 235 652 q 251 751 235 724 q 332 796 278 796 q 399 780 368 796 q 468 684 463 746 q 439 593 468 616 q 357 571 411 571 q 287 591 315 571 m 404 707 q 338 738 374 738 q 288 697 296 738 q 288 680 288 693 q 304 642 288 667 q 355 618 332 618 q 412 659 403 618 q 412 677 412 666 q 404 707 412 688 z "},"Ű":{"ha":780,"x_min":27,"x_max":724,"o":"m 713 22 q 671 -3 713 -3 q 634 3 651 -3 q 613 14 617 9 l 627 187 q 445 53 502 80 q 262 8 355 8 q 225 9 244 8 q 27 263 27 31 q 81 623 27 369 q 104 766 99 701 q 122 768 109 768 q 138 768 122 768 q 151 769 145 769 q 194 704 194 769 q 176 593 194 659 q 122 290 122 374 q 168 152 122 202 q 262 113 198 119 q 278 113 270 113 q 568 326 499 113 q 616 627 609 450 q 623 788 620 708 q 663 829 637 829 q 720 806 689 829 q 724 651 724 727 l 711 133 q 713 22 711 77 m 361 1031 q 400 1065 377 1065 q 419 1055 411 1065 q 430 1034 427 1046 q 416 986 430 1009 q 339 878 395 949 l 289 907 l 361 1031 m 557 1019 q 544 972 557 996 q 465 864 526 943 l 416 894 l 487 1016 q 527 1050 503 1050 q 557 1019 551 1050 z "},"ű":{"ha":705,"x_min":18,"x_max":663,"o":"m 30 180 q 26 241 30 202 q 20 326 23 279 q 18 419 18 372 q 26 506 18 467 q 99 594 43 594 q 150 567 137 583 q 163 527 163 551 q 151 468 163 503 q 106 255 106 350 q 110 189 106 224 q 259 98 132 98 q 385 121 326 98 q 540 220 499 163 q 552 329 552 282 q 549 412 552 376 q 541 493 545 449 q 534 590 536 537 q 569 598 552 598 q 604 581 586 598 q 635 514 623 563 q 652 399 648 465 q 657 263 656 334 q 658 127 658 193 q 663 14 658 61 q 632 -1 647 -1 q 552 107 578 -1 q 492 71 534 92 q 281 5 403 22 q 229 3 258 3 q 158 14 201 3 q 77 64 115 24 q 30 180 39 103 m 290 859 q 330 892 307 892 q 349 883 340 892 q 359 861 357 873 q 346 814 359 837 q 269 705 324 777 l 218 735 l 290 859 m 487 846 q 473 800 487 823 q 395 692 456 770 l 346 722 l 416 844 q 456 878 433 878 q 487 846 480 878 z "},"Ų":{"ha":780,"x_min":27,"x_max":743,"o":"m 713 22 q 671 -3 713 -3 q 634 3 651 -3 q 613 14 617 9 l 627 187 q 445 53 502 80 q 262 8 355 8 q 225 9 244 8 q 27 263 27 31 q 81 623 27 369 q 104 766 99 701 q 122 768 109 768 q 138 768 122 768 q 151 769 145 769 q 194 704 194 769 q 176 593 194 659 q 122 290 122 374 q 168 152 122 202 q 262 113 198 119 q 278 113 270 113 q 568 326 499 113 q 616 627 609 450 q 623 788 620 708 q 663 829 637 829 q 720 806 689 829 q 724 651 724 727 l 711 133 q 713 22 711 77 m 728 -201 q 673 -217 694 -217 q 574 -184 610 -217 q 499 -42 499 -123 q 522 32 499 -1 q 593 80 544 65 l 689 46 q 682 46 686 46 q 612 28 639 46 q 571 -41 571 1 q 600 -109 571 -84 q 672 -140 636 -140 q 743 -125 708 -140 l 728 -201 z "},"ų":{"ha":705,"x_min":18,"x_max":712,"o":"m 30 180 q 26 241 30 202 q 20 326 23 279 q 18 419 18 372 q 26 506 18 467 q 99 594 43 594 q 150 567 137 583 q 163 527 163 551 q 151 468 163 503 q 106 255 106 350 q 110 189 106 224 q 259 98 132 98 q 385 121 326 98 q 540 220 499 163 q 552 329 552 282 q 549 412 552 376 q 541 493 545 449 q 534 590 536 537 q 569 598 552 598 q 604 581 586 598 q 635 514 623 563 q 652 399 648 465 q 657 263 656 334 q 658 127 658 193 q 663 14 658 61 q 632 -1 647 -1 q 552 107 578 -1 q 492 71 534 92 q 281 5 403 22 q 229 3 258 3 q 158 14 201 3 q 77 64 115 24 q 30 180 39 103 m 697 -197 q 642 -213 663 -213 q 543 -180 579 -213 q 468 -38 468 -119 q 490 36 468 3 q 562 84 513 69 l 658 50 q 651 50 655 50 q 581 33 608 50 q 540 -37 540 5 q 568 -104 540 -80 q 641 -136 605 -136 q 712 -121 677 -136 l 697 -197 z "},"Ŵ":{"ha":1306,"x_min":19,"x_max":1284,"o":"m 1035 225 q 1192 1028 1103 445 q 1282 975 1278 1028 q 1284 952 1283 959 q 1279 905 1284 945 q 1263 793 1274 865 q 1238 627 1253 722 q 1204 429 1223 532 q 1109 19 1158 186 q 1034 8 1061 -15 q 1012 41 1021 20 q 990 90 1002 62 q 925 212 972 113 q 848 369 878 311 q 792 477 819 427 q 688 609 730 590 q 514 193 639 533 q 475 82 492 133 q 445 0 457 31 l 361 4 l 22 788 q 19 802 19 795 q 24 815 19 808 q 41 827 28 822 q 87 836 64 836 q 120 827 110 836 q 136 804 130 818 q 146 774 142 791 q 162 732 151 758 q 196 656 174 707 q 244 551 218 606 q 296 440 270 495 q 345 339 321 385 q 406 225 393 237 q 600 686 563 613 q 646 774 636 758 q 669 798 661 798 q 865 537 727 798 q 936 404 903 468 q 1035 225 1016 250 m 511 954 q 471 960 487 954 q 456 993 456 967 q 470 1043 456 1019 q 510 1095 484 1067 q 651 1194 567 1154 q 743 1130 720 1149 q 830 1020 781 1096 q 838 989 838 1004 q 833 967 838 975 q 784 966 818 945 q 725 1010 734 1002 q 700 1036 716 1019 q 642 1095 684 1054 q 529 989 559 1038 q 511 954 519 972 z "},"ŵ":{"ha":1123,"x_min":62,"x_max":1063,"o":"m 552 374 q 503 191 522 275 q 464 52 483 107 q 396 -28 434 -28 q 350 -9 376 -28 q 174 285 288 57 q 62 563 62 507 q 77 593 62 587 q 111 594 92 600 q 176 552 157 581 q 199 505 186 538 l 233 420 q 346 160 290 278 q 403 279 376 206 l 445 396 q 543 552 499 549 q 746 312 576 574 q 836 179 818 201 q 865 260 848 179 q 895 398 882 342 q 926 503 907 454 q 1029 617 971 617 q 1056 604 1048 617 q 1063 583 1063 591 q 1063 571 1063 575 q 1029 466 1047 525 q 992 345 1012 407 q 953 223 972 283 q 914 114 933 163 q 840 0 869 8 q 765 53 817 -11 q 716 123 742 83 q 662 208 690 164 q 552 374 593 316 m 419 692 q 379 699 395 692 q 363 731 363 705 q 378 781 363 757 q 418 833 392 806 q 559 932 475 892 q 651 868 628 887 q 738 758 689 834 q 746 728 746 742 q 741 705 746 713 q 692 704 726 684 q 633 749 642 741 q 608 774 624 757 q 549 833 591 792 q 437 727 467 776 q 419 692 427 711 z "},"Ŷ":{"ha":742,"x_min":38,"x_max":719,"o":"m 377 -24 q 331 -11 355 -24 q 293 39 283 18 q 335 153 309 68 l 372 275 q 410 404 391 334 l 47 773 q 38 795 38 785 q 49 810 38 804 q 92 818 66 818 q 143 810 117 818 q 209 769 170 802 q 463 494 286 704 q 578 794 543 727 q 634 881 613 861 q 672 902 655 901 q 701 901 689 903 q 719 882 713 898 q 638 679 677 792 q 559 445 600 566 q 377 -24 452 125 m 229 917 q 189 924 205 917 q 174 956 174 930 q 188 1006 174 982 q 228 1058 202 1031 q 369 1157 285 1118 q 461 1093 438 1112 q 548 983 499 1059 q 556 953 556 967 q 551 930 556 939 q 502 929 536 909 q 443 974 452 966 q 418 1000 434 982 q 359 1058 401 1017 q 247 952 277 1001 q 229 917 237 936 z "},"ŷ":{"ha":762,"x_min":30,"x_max":738,"o":"m 323 -511 q 255 -575 294 -575 q 227 -558 236 -575 q 227 -518 218 -541 q 313 -231 256 -392 q 388 -14 369 -69 q 239 176 340 34 q 30 498 30 469 q 31 500 30 499 l 83 552 q 362 216 190 453 q 431 115 406 156 q 476 214 460 172 q 503 280 492 255 q 530 347 513 305 q 658 633 576 460 q 684 639 670 639 q 732 621 718 639 q 738 606 738 614 q 735 589 738 597 l 323 -511 m 239 692 q 199 699 214 692 q 183 731 183 705 q 197 781 183 757 q 237 833 212 806 q 378 932 294 892 q 471 868 448 887 q 557 758 509 834 q 566 728 566 742 q 560 705 566 713 q 511 704 545 684 q 452 749 461 741 q 427 774 444 757 q 369 833 411 792 q 256 727 286 776 q 239 692 247 711 z "},"Ÿ":{"ha":742,"x_min":38,"x_max":719,"o":"m 377 -24 q 331 -11 355 -24 q 293 39 283 18 q 335 153 309 68 l 372 275 q 410 404 391 334 l 47 773 q 38 795 38 785 q 49 810 38 804 q 92 818 66 818 q 143 810 117 818 q 209 769 170 802 q 463 494 286 704 q 578 794 543 727 q 634 881 613 861 q 672 902 655 901 q 701 901 689 903 q 719 882 713 898 q 638 679 677 792 q 559 445 600 566 q 377 -24 452 125 m 241 861 q 209 907 209 861 q 277 952 209 924 q 315 940 305 952 q 326 909 326 928 q 317 881 326 890 q 297 868 309 872 q 241 861 281 861 m 437 861 q 404 907 404 861 q 473 952 404 925 q 522 906 522 952 q 465 863 522 864 q 437 861 450 861 z "},"Ź":{"ha":1089,"x_min":38,"x_max":1044,"o":"m 1044 22 q 429 -4 709 -4 q 38 46 38 -4 q 52 68 38 57 l 637 722 q 549 724 583 724 q 471 724 514 724 q 359 718 427 723 q 84 697 160 701 q 59 709 64 697 q 52 766 54 722 q 742 812 354 799 q 779 807 761 812 q 796 779 796 802 q 534 434 758 673 q 229 99 271 155 q 404 84 304 84 q 608 90 505 84 q 822 106 711 96 q 1034 122 933 115 l 1044 22 m 521 1031 q 562 1057 540 1057 q 582 1044 575 1057 q 587 1019 589 1031 q 581 996 586 1006 q 563 970 575 985 q 469 886 540 944 l 427 924 l 521 1031 z "},"ź":{"ha":688,"x_min":26,"x_max":678,"o":"m 187 -5 q 52 54 52 -5 q 111 153 52 92 q 216 253 171 214 q 301 328 260 292 q 458 491 397 416 q 422 491 446 491 q 351 488 397 491 q 252 479 304 484 q 69 464 113 464 q 26 483 26 464 q 52 525 26 506 q 90 544 79 544 q 108 545 102 544 q 129 549 114 547 q 172 554 144 551 q 247 562 199 557 q 540 587 340 571 q 605 540 605 579 q 510 393 605 490 q 330 224 426 309 q 197 98 235 138 q 289 94 250 94 l 511 103 q 605 98 563 103 q 656 90 647 94 q 678 43 678 77 q 673 14 678 30 q 602 18 639 18 q 506 14 566 18 q 362 3 446 9 q 187 -5 247 -5 m 357 821 q 397 846 376 846 q 418 833 411 846 q 423 808 425 821 q 416 785 422 796 q 399 760 411 774 q 305 675 376 734 l 263 713 l 357 821 z "},"Ż":{"ha":1089,"x_min":38,"x_max":1044,"o":"m 1044 22 q 429 -4 709 -4 q 38 46 38 -4 q 52 68 38 57 l 637 722 q 549 724 583 724 q 471 724 514 724 q 359 718 427 723 q 84 697 160 701 q 59 709 64 697 q 52 766 54 722 q 742 812 354 799 q 779 807 761 812 q 796 779 796 802 q 534 434 758 673 q 229 99 271 155 q 404 84 304 84 q 608 90 505 84 q 822 106 711 96 q 1034 122 933 115 l 1044 22 m 378 936 q 401 980 385 968 q 427 991 418 991 q 449 989 437 991 q 477 972 461 987 q 496 935 494 956 q 483 892 496 902 q 452 882 469 882 q 423 885 434 882 q 403 897 412 888 q 378 936 378 913 z "},"ż":{"ha":688,"x_min":26,"x_max":678,"o":"m 187 -5 q 52 54 52 -5 q 111 153 52 92 q 216 253 171 214 q 301 328 260 292 q 458 491 397 416 q 422 491 446 491 q 351 488 397 491 q 252 479 304 484 q 69 464 113 464 q 26 483 26 464 q 52 525 26 506 q 90 544 79 544 q 108 545 102 544 q 129 549 114 547 q 172 554 144 551 q 247 562 199 557 q 540 587 340 571 q 605 540 605 579 q 510 393 605 490 q 330 224 426 309 q 197 98 235 138 q 289 94 250 94 l 511 103 q 605 98 563 103 q 656 90 647 94 q 678 43 678 77 q 673 14 678 30 q 602 18 639 18 q 506 14 566 18 q 362 3 446 9 q 187 -5 247 -5 m 285 693 q 308 737 292 726 q 334 749 324 749 q 355 747 343 749 q 384 729 368 745 q 403 692 400 713 q 389 649 403 659 q 358 639 376 639 q 330 642 340 639 q 309 654 319 646 q 285 693 285 670 z "},"Ž":{"ha":1089,"x_min":38,"x_max":1044,"o":"m 1044 22 q 429 -4 709 -4 q 38 46 38 -4 q 52 68 38 57 l 637 722 q 549 724 583 724 q 471 724 514 724 q 359 718 427 723 q 84 697 160 701 q 59 709 64 697 q 52 766 54 722 q 742 812 354 799 q 779 807 761 812 q 796 779 796 802 q 534 434 758 673 q 229 99 271 155 q 404 84 304 84 q 608 90 505 84 q 822 106 711 96 q 1034 122 933 115 l 1044 22 m 354 963 q 336 978 354 963 q 305 1009 317 993 q 293 1043 293 1025 q 307 1065 293 1061 q 340 1069 320 1069 q 378 1023 355 1043 q 450 975 400 1002 q 500 1014 487 1002 q 522 1031 514 1025 q 538 1041 529 1036 q 572 1061 547 1046 q 612 1061 601 1074 q 617 1045 617 1054 q 610 1024 617 1036 q 547 958 571 974 q 460 907 515 936 q 354 963 391 933 z "},"ž":{"ha":688,"x_min":26,"x_max":678,"o":"m 187 -5 q 52 54 52 -5 q 111 153 52 92 q 216 253 171 214 q 301 328 260 292 q 458 491 397 416 q 422 491 446 491 q 351 488 397 491 q 252 479 304 484 q 69 464 113 464 q 26 483 26 464 q 52 525 26 506 q 90 544 79 544 q 108 545 102 544 q 129 549 114 547 q 172 554 144 551 q 247 562 199 557 q 540 587 340 571 q 605 540 605 579 q 510 393 605 490 q 330 224 426 309 q 197 98 235 138 q 289 94 250 94 l 511 103 q 605 98 563 103 q 656 90 647 94 q 678 43 678 77 q 673 14 678 30 q 602 18 639 18 q 506 14 566 18 q 362 3 446 9 q 187 -5 247 -5 m 236 673 q 218 688 236 673 q 187 719 199 703 q 175 753 175 735 q 189 774 175 770 q 222 779 202 779 q 260 732 237 753 q 332 685 282 712 q 382 724 369 712 q 404 741 396 735 q 420 751 411 746 q 454 770 429 755 q 494 770 483 784 q 499 755 499 764 q 492 734 499 746 q 429 667 453 684 q 342 617 397 646 q 236 673 273 643 z "},"ƒ":{"ha":825,"x_min":19,"x_max":825,"o":"m 815 453 q 822 416 822 453 q 825 366 822 380 l 359 309 l 388 -538 l 90 -567 l 92 -452 l 288 -448 q 278 -160 288 -327 q 264 81 269 7 q 247 293 255 244 l 71 225 q 41 245 53 225 q 19 309 19 281 l 225 382 q 198 762 198 616 q 222 989 198 907 q 294 1098 247 1070 q 393 1126 340 1126 q 501 1103 446 1126 q 606 1044 556 1080 q 692 965 656 1009 q 727 879 727 921 q 720 833 727 846 q 589 968 666 909 q 415 1039 496 1039 q 312 929 338 1039 q 300 768 300 872 q 305 578 300 665 q 338 406 311 492 q 526 420 422 406 q 815 453 727 452 z "},"Ǽ":{"ha":1218,"x_min":39,"x_max":1198,"o":"m 990 750 l 802 754 q 646 741 708 754 q 623 587 620 621 q 627 532 625 553 q 631 407 631 464 q 811 418 728 407 q 1061 439 974 439 l 1061 366 l 642 315 l 648 92 q 901 100 804 92 q 1192 115 1076 115 q 1198 103 1198 113 q 1188 81 1198 94 q 1118 38 1162 47 q 818 12 967 22 q 537 -8 669 3 l 537 -4 q 491 5 494 3 l 457 334 l 218 298 q 204 242 213 278 q 183 167 195 206 q 117 24 153 71 q 84 22 109 14 q 50 38 60 31 q 39 62 39 45 q 53 132 39 80 q 91 254 66 184 q 146 402 115 324 q 208 553 176 480 q 317 783 281 726 q 378 876 346 845 q 449 914 418 914 q 543 857 511 914 q 656 845 586 846 q 803 844 727 844 q 1057 822 1000 844 l 1057 754 q 990 750 1027 750 m 468 473 l 473 646 q 463 787 473 722 q 260 401 293 538 q 358 410 320 401 q 472 427 430 426 q 468 473 468 446 m 540 965 q 575 985 557 985 q 592 975 586 985 q 597 955 598 965 q 591 937 596 946 q 576 917 586 929 q 497 850 557 896 l 461 880 l 540 965 z "},"ǽ":{"ha":1283,"x_min":24,"x_max":1274,"o":"m 570 225 q 298 27 468 65 q 227 19 259 19 q 174 20 195 19 q 127 26 153 20 q 80 43 102 31 q 30 123 30 72 q 24 178 24 148 q 38 259 24 209 q 87 368 52 309 q 175 475 123 426 q 407 608 282 578 q 474 616 444 616 q 529 612 505 616 q 635 505 608 612 q 656 315 652 437 q 663 128 659 194 q 680 8 666 62 l 600 8 q 591 73 594 45 q 586 126 589 102 q 570 225 579 183 m 564 435 q 487 514 564 514 q 468 515 477 515 q 259 420 369 515 q 171 323 208 377 q 117 184 117 245 q 209 90 117 104 q 442 201 331 92 q 521 304 490 248 q 564 435 564 378 m 880 73 q 1240 182 1000 73 q 1264 172 1255 182 q 1274 148 1274 161 q 1066 4 1219 56 q 780 -14 913 -47 q 597 156 629 26 q 594 225 594 182 q 616 340 594 269 q 693 475 639 411 q 821 575 747 538 q 977 612 894 612 q 1153 557 1055 612 q 1226 499 1199 532 q 1253 433 1253 467 q 1252 414 1253 423 q 1172 309 1249 331 q 1093 300 1138 300 l 898 308 q 749 266 800 308 q 707 197 719 243 q 880 73 741 73 m 1122 492 q 1107 503 1122 492 q 1059 524 1092 514 q 1005 533 1027 533 q 935 519 983 533 q 848 487 886 505 q 754 396 754 444 q 917 387 863 387 q 1120 412 1067 387 q 1153 446 1153 426 q 1122 492 1153 471 m 654 821 q 694 846 673 846 q 715 833 708 846 q 720 808 722 821 q 713 785 719 796 q 696 760 708 774 q 602 675 673 734 l 560 713 l 654 821 z "},"Ǿ":{"ha":930,"x_min":30,"x_max":887,"o":"m 62 228 q 30 400 30 301 q 62 576 30 499 q 149 708 94 652 q 445 823 267 823 q 751 738 631 823 q 887 458 887 640 q 783 126 887 233 q 460 19 680 19 q 62 228 155 19 m 141 427 q 464 107 141 107 q 722 202 623 107 q 821 448 821 296 q 703 665 821 590 q 449 730 602 730 q 233 642 327 730 q 141 427 141 553 m 179 0 q 155 43 155 0 l 155 57 q 690 890 175 117 q 720 935 716 929 q 727 916 727 930 q 711 853 727 901 q 652 716 694 806 q 549 520 609 627 q 423 312 488 414 q 179 0 273 79 m 450 1031 q 491 1057 469 1057 q 511 1044 505 1057 q 517 1019 518 1031 q 510 996 515 1006 q 492 970 505 985 q 399 886 469 944 l 357 924 l 450 1031 z "},"ǿ":{"ha":781,"x_min":71,"x_max":760,"o":"m 71 258 q 209 515 71 418 q 473 609 319 593 q 511 609 481 609 q 591 591 541 609 q 743 457 703 553 q 760 393 760 419 q 758 355 760 366 q 629 88 758 186 q 331 -1 510 -1 q 136 58 202 -1 q 71 258 71 118 m 164 225 q 209 111 164 141 q 323 90 243 90 q 464 102 403 90 q 572 144 525 114 q 674 346 674 209 q 631 479 674 427 q 506 534 583 534 q 399 514 453 525 q 298 472 346 503 q 164 225 195 406 m 173 -62 q 152 -28 152 -62 l 152 -17 q 610 652 169 31 q 635 688 632 683 q 641 672 641 684 q 627 622 641 660 q 577 512 613 584 q 489 355 540 440 q 381 188 437 270 q 173 -62 253 1 m 403 821 q 444 846 422 846 q 464 833 457 846 q 469 808 471 821 q 463 785 468 796 q 445 760 457 774 q 351 675 422 734 l 309 713 l 403 821 z "},"Ș":{"ha":892,"x_min":20,"x_max":846,"o":"m 20 119 q 20 131 20 119 q 41 163 20 144 q 74 191 62 183 q 90 202 85 198 q 256 79 96 79 q 551 157 382 79 q 711 269 670 212 q 724 298 724 286 q 720 316 724 309 l 157 442 q 110 465 133 448 q 68 519 68 495 q 201 689 68 613 q 593 814 347 772 q 675 825 648 823 q 701 820 684 822 q 735 814 718 818 q 770 779 777 804 q 594 705 770 732 q 310 648 366 671 q 229 601 254 625 q 202 543 203 576 q 233 528 202 536 q 308 508 264 519 q 420 477 351 496 q 833 361 589 431 q 846 305 846 331 q 762 167 846 233 q 499 41 667 92 q 277 -1 359 -1 q 145 23 208 -1 q 52 71 83 47 q 20 119 20 94 m 492 -107 q 511 -87 500 -90 q 533 -84 521 -84 q 555 -87 545 -84 q 585 -118 585 -95 q 510 -255 585 -140 q 490 -287 496 -277 q 475 -307 484 -297 q 412 -340 444 -340 q 396 -338 404 -340 l 492 -107 z "},"ș":{"ha":697,"x_min":30,"x_max":650,"o":"m 500 350 q 650 274 650 350 q 567 141 650 217 q 235 -39 444 28 q 214 -20 225 -39 q 196 9 202 -1 q 187 22 190 19 q 444 146 343 73 q 511 227 511 195 q 431 258 511 258 q 197 220 351 258 q 75 270 126 222 q 30 355 30 312 q 54 433 30 397 q 119 500 79 469 q 214 557 160 532 q 490 621 347 621 q 571 613 532 621 q 609 585 604 613 q 614 491 614 556 q 434 528 534 528 q 228 477 309 528 q 141 350 144 429 q 197 312 141 312 l 296 323 q 500 350 423 350 m 346 -107 q 364 -87 354 -90 q 387 -84 374 -84 q 408 -87 399 -84 q 438 -118 438 -95 q 363 -255 438 -140 q 344 -287 350 -277 q 328 -307 338 -297 q 266 -340 297 -340 q 250 -338 258 -340 l 346 -107 z "},"ˆ":{"ha":426,"x_min":24,"x_max":407,"o":"m 80 692 q 40 699 56 692 q 24 731 24 705 q 39 781 24 757 q 79 833 53 806 q 220 932 136 892 q 312 868 289 887 q 399 758 350 834 q 407 728 407 742 q 401 705 407 713 q 353 704 387 684 q 294 749 302 741 q 269 774 285 757 q 210 833 252 792 q 98 727 127 776 q 80 692 88 711 z "},"ˇ":{"ha":426,"x_min":42,"x_max":366,"o":"m 103 673 q 85 688 103 673 q 54 719 66 703 q 42 753 42 735 q 56 774 42 770 q 90 779 69 779 q 127 732 104 753 q 199 685 149 712 q 250 724 236 712 q 271 741 263 735 q 287 751 278 746 q 321 770 296 755 q 361 770 350 784 q 366 755 366 764 q 359 734 366 746 q 296 667 320 684 q 209 617 264 646 q 103 673 140 643 z "},"˘":{"ha":342,"x_min":42,"x_max":304,"o":"m 73 677 q 58 695 73 677 q 42 741 42 712 q 56 774 42 770 q 90 779 69 779 q 117 722 95 735 q 151 708 138 708 q 180 710 164 708 q 222 729 197 712 q 258 768 247 746 q 281 774 271 774 q 298 768 292 774 q 304 752 304 761 q 296 731 304 743 q 221 658 258 673 q 164 643 184 643 q 73 677 104 643 z "}}}
